<svg width="41" height="57" viewBox="0 0 41 57" fill="none" xmlns="http://www.w3.org/2000/svg">
<g clip-path="url(#clip0_715_8811)">
<g clip-path="url(#clip1_715_8811)">
<path d="M10.8906 12.8984V24.8984C10.8906 25.9984 11.7906 26.8984 12.8906 26.8984H26.8906L30.8906 30.8984V12.8984C30.8906 11.7984 29.9906 10.8984 28.8906 10.8984H12.8906C11.7906 10.8984 10.8906 11.7984 10.8906 12.8984ZM18.3906 16.3984C18.3906 17.1984 17.6906 17.8984 16.8906 17.8984C16.0906 17.8984 15.3906 17.1984 15.3906 16.3984C15.3906 15.5984 16.0906 14.8984 16.8906 14.8984C17.6906 14.8984 18.3906 15.5984 18.3906 16.3984ZM26.3906 16.3984C26.3906 17.1984 25.6906 17.8984 24.8906 17.8984C24.0906 17.8984 23.3906 17.1984 23.3906 16.3984C23.3906 15.5984 24.0906 14.8984 24.8906 14.8984C25.6906 14.8984 26.3906 15.5984 26.3906 16.3984ZM15.2906 19.8984H26.5906C25.7906 22.1984 23.5906 22.8984 20.9906 22.8984C18.3906 22.8984 16.0906 22.1984 15.2906 19.8984Z" fill="#F0663F"/>
</g>
</g>
<path d="M7.20063 45.7584C7.17396 48.6318 5.85396 50.7018 3.24063 51.9684L2.75063 51.3884C4.24396 50.7484 5.29729 49.7818 5.91063 48.4884L2.95063 48.7484L2.79063 48.0584L6.15063 47.8584C6.29729 47.3718 6.38063 46.8818 6.40063 46.3884H3.17063V45.7584H7.20063ZM9.15063 48.9484H7.17063V48.2984H9.15063V44.8584H9.91063V53.5984H9.15063V48.9484ZM18.823 48.8084H12.913V45.3884H18.823V48.8084ZM14.733 53.6084H13.973V50.5784H11.923V49.9384H19.813V50.5784H17.733V53.6084H16.973V50.5784H14.733V53.6084ZM18.053 48.1784V46.0184H13.683V48.1784H18.053ZM28.1553 44.8584V53.5984H27.4053V44.8584H28.1553ZM26.5153 50.3884L26.5853 51.0484C26.0986 51.1618 25.382 51.2584 24.4353 51.3384C23.4886 51.4118 22.662 51.4484 21.9553 51.4484H21.5653V45.7684H22.3353V50.7784C22.9286 50.7784 23.6486 50.7418 24.4953 50.6684C25.3486 50.5884 26.022 50.4951 26.5153 50.3884ZM35.6577 50.5484L35.7377 51.1784C35.271 51.2651 34.621 51.3384 33.7877 51.3984C32.961 51.4584 32.191 51.4884 31.4777 51.4884H30.7177V45.6884H34.7877V46.3184H31.4877V48.1484H34.6277V48.7684H31.4877V50.8284C32.161 50.8484 32.911 50.8318 33.7377 50.7784C34.571 50.7184 35.211 50.6418 35.6577 50.5484ZM37.3977 53.5984H36.6377V44.8584H37.3977V53.5984Z" fill="#262626"/>
<defs>
<clipPath id="clip0_715_8811">
<rect x="2.89062" y="2.89844" width="36" height="36" rx="18" fill="white"/>
</clipPath>
<clipPath id="clip1_715_8811">
<rect width="20" height="20" fill="white" transform="translate(10.8906 10.8984)"/>
</clipPath>
</defs>
</svg>
