<svg width="41" height="57" viewBox="0 0 41 57" fill="none" xmlns="http://www.w3.org/2000/svg">
<g clip-path="url(#clip0_715_8803)">
<path d="M18.7143 28.8638V23.4291H23.0621V28.8638C23.0621 29.4616 23.5512 29.9508 24.1491 29.9508H27.4099C28.0077 29.9508 28.4968 29.4616 28.4968 28.8638V21.2552H30.3447C30.8447 21.2552 31.0838 20.6356 30.7033 20.3095L21.6165 12.1248C21.2034 11.7553 20.573 11.7553 20.16 12.1248L11.0731 20.3095C10.7035 20.6356 10.9318 21.2552 11.4318 21.2552H13.2796V28.8638C13.2796 29.4616 13.7687 29.9508 14.3665 29.9508H17.6274C18.2252 29.9508 18.7143 29.4616 18.7143 28.8638Z" fill="#F0663F"/>
</g>
<path d="M23.3606 48.0484C23.3606 48.4084 23.164 48.6884 22.7706 48.8884C22.3773 49.0884 21.814 49.2018 21.0806 49.2284V49.8684H24.6606V50.4984H16.7706V49.8684H20.3206V49.2284C19.6006 49.1951 19.0473 49.0784 18.6606 48.8784C18.2806 48.6784 18.0906 48.4018 18.0906 48.0484C18.0906 47.2551 18.9673 46.8584 20.7206 46.8584C21.574 46.8584 22.2273 46.9584 22.6806 47.1584C23.134 47.3584 23.3606 47.6551 23.3606 48.0484ZM23.6206 53.4884H17.8106V50.9884H23.6206V53.4884ZM22.8606 52.8784V51.6084H18.5706V52.8784H22.8606ZM24.1706 46.5484H17.2606V45.9284H24.1706V46.5484ZM20.7206 48.6384C21.954 48.6384 22.5706 48.4418 22.5706 48.0484C22.5706 47.6551 21.954 47.4584 20.7206 47.4584C19.4873 47.4584 18.8706 47.6551 18.8706 48.0484C18.8706 48.4418 19.4873 48.6384 20.7206 48.6384ZM22.2506 45.4984H19.2406V44.8684H22.2506V45.4984Z" fill="#262626"/>
<defs>
<clipPath id="clip0_715_8803">
<rect x="2.89062" y="3.84766" width="36" height="34.1031" rx="17.0516" fill="white"/>
</clipPath>
</defs>
</svg>
