<svg width="47" height="57" viewBox="0 0 47 57" fill="none" xmlns="http://www.w3.org/2000/svg">
<g clip-path="url(#clip0_715_8820)">
<path fill-rule="evenodd" clip-rule="evenodd" d="M23.8906 10.8984C18.3706 10.8984 13.8906 15.3784 13.8906 20.8984C13.8906 26.4184 18.3706 30.8984 23.8906 30.8984C29.4106 30.8984 33.8906 26.4184 33.8906 20.8984C33.8906 15.3784 29.4106 10.8984 23.8906 10.8984ZM30.2506 25.7284C28.8206 23.9884 25.3506 23.3984 23.8906 23.3984C22.4306 23.3984 18.9606 23.9884 17.5306 25.7284C16.5106 24.3884 15.8906 22.7184 15.8906 20.8984C15.8906 16.4884 19.4806 12.8984 23.8906 12.8984C28.3006 12.8984 31.8906 16.4884 31.8906 20.8984C31.8906 22.7184 31.2706 24.3884 30.2506 25.7284ZM20.3906 18.3984C20.3906 16.4584 21.9506 14.8984 23.8906 14.8984C25.8306 14.8984 27.3906 16.4584 27.3906 18.3984C27.3906 20.3384 25.8306 21.8984 23.8906 21.8984C21.9506 21.8984 20.3906 20.3384 20.3906 18.3984Z" fill="#F0663F"/>
</g>
<path d="M5.63063 51.3984H1.54063V45.7584H5.63063V51.3984ZM4.87063 50.7684V46.3884H2.30063V50.7684H4.87063ZM9.42063 49.0184H7.99063V53.5984H7.23063V44.8584H7.99063V48.3784H9.42063V49.0184ZM17.613 53.5984H16.853V44.8584H17.613V53.5984ZM10.713 48.5984C10.713 47.6651 10.9096 46.9184 11.303 46.3584C11.703 45.7984 12.2563 45.5184 12.963 45.5184C13.6763 45.5184 14.2296 45.7984 14.623 46.3584C15.023 46.9184 15.223 47.6684 15.223 48.6084C15.223 49.5484 15.023 50.2984 14.623 50.8584C14.2296 51.4184 13.6763 51.6984 12.963 51.6984C12.2563 51.6984 11.703 51.4184 11.303 50.8584C10.9096 50.2984 10.713 49.5451 10.713 48.5984ZM14.073 50.3684C14.3596 49.9151 14.503 49.3284 14.503 48.6084C14.503 47.8884 14.3596 47.3051 14.073 46.8584C13.793 46.4051 13.423 46.1784 12.963 46.1784C12.503 46.1784 12.133 46.4051 11.853 46.8584C11.573 47.3051 11.433 47.8884 11.433 48.6084C11.433 49.3284 11.573 49.9151 11.853 50.3684C12.133 50.8151 12.503 51.0384 12.963 51.0384C13.423 51.0384 13.793 50.8151 14.073 50.3684ZM23.9153 51.1684C23.3953 51.2484 22.7253 51.3084 21.9053 51.3484C21.0386 51.4018 20.2653 51.4284 19.5853 51.4284L19.4653 50.7684H20.4353L20.1753 47.1584L20.9353 47.0584C20.9553 47.5251 20.992 48.1884 21.0453 49.0484C21.1053 49.9084 21.142 50.4751 21.1553 50.7484L21.8553 50.7184C21.9353 50.7184 21.9986 50.7151 22.0453 50.7084C22.0986 49.7951 22.1753 48.5784 22.2753 47.0584L23.0353 47.1384C22.8953 48.7384 22.7886 49.9151 22.7153 50.6684C23.322 50.6151 23.6986 50.5751 23.8453 50.5484C23.872 50.8084 23.8953 51.0151 23.9153 51.1684ZM25.3153 53.1484H24.5753V48.8484H23.3753V48.2184H24.5753V45.0684H25.3153V53.1484ZM26.9453 53.5984H26.1953V44.8584H26.9453V53.5984ZM23.6353 46.5784H19.6853V45.9484H23.6353V46.5784ZM35.9177 53.5984H35.1577V44.8584H35.9177V53.5984ZM29.0177 48.5984C29.0177 47.6651 29.2143 46.9184 29.6077 46.3584C30.0077 45.7984 30.561 45.5184 31.2677 45.5184C31.981 45.5184 32.5343 45.7984 32.9277 46.3584C33.3277 46.9184 33.5277 47.6684 33.5277 48.6084C33.5277 49.5484 33.3277 50.2984 32.9277 50.8584C32.5343 51.4184 31.981 51.6984 31.2677 51.6984C30.561 51.6984 30.0077 51.4184 29.6077 50.8584C29.2143 50.2984 29.0177 49.5451 29.0177 48.5984ZM32.3777 50.3684C32.6643 49.9151 32.8077 49.3284 32.8077 48.6084C32.8077 47.8884 32.6643 47.3051 32.3777 46.8584C32.0977 46.4051 31.7277 46.1784 31.2677 46.1784C30.8077 46.1784 30.4377 46.4051 30.1577 46.8584C29.8777 47.3051 29.7377 47.8884 29.7377 48.6084C29.7377 49.3284 29.8777 49.9151 30.1577 50.3684C30.4377 50.8151 30.8077 51.0384 31.2677 51.0384C31.7277 51.0384 32.0977 50.8151 32.3777 50.3684ZM43.28 50.9484L42.81 51.5184C42.35 51.2184 41.8967 50.8218 41.45 50.3284C41.01 49.8284 40.72 49.3384 40.58 48.8584C40.44 49.3851 40.16 49.9084 39.74 50.4284C39.32 50.9484 38.8467 51.3784 38.32 51.7184L37.85 51.1584C38.5233 50.7651 39.08 50.2184 39.52 49.5184C39.96 48.8118 40.18 48.0618 40.18 47.2684V46.3684H38.14V45.7384H43.01V46.3684H40.97V47.2584C40.97 48.0318 41.1933 48.7551 41.64 49.4284C42.0933 50.0951 42.64 50.6018 43.28 50.9484ZM44.29 44.8584H45.05V53.5984H44.29V44.8584Z" fill="#262626"/>
<defs>
<clipPath id="clip0_715_8820">
<rect x="5.89062" y="2.89844" width="36" height="36" rx="18" fill="white"/>
</clipPath>
</defs>
</svg>
