<svg width="41" height="57" viewBox="0 0 41 57" fill="none" xmlns="http://www.w3.org/2000/svg">
<g clip-path="url(#clip0_715_8794)">
<path d="M28.3906 11.8984H13.3906C12.9928 11.8984 12.6113 12.0565 12.33 12.3378C12.0487 12.6191 11.8906 13.0006 11.8906 13.3984V28.3984C11.8906 28.7963 12.0487 29.1778 12.33 29.4591C12.6113 29.7404 12.9928 29.8984 13.3906 29.8984H23.5803C23.7773 29.8988 23.9724 29.8601 24.1544 29.7846C24.3364 29.7091 24.5017 29.5984 24.6406 29.4587L29.4509 24.6484C29.5906 24.5095 29.7013 24.3442 29.7768 24.1622C29.8523 23.9803 29.8909 23.7851 29.8906 23.5881V13.3984C29.8906 13.0006 29.7326 12.6191 29.4513 12.3378C29.17 12.0565 28.7885 11.8984 28.3906 11.8984ZM17.8906 17.1484H23.8906C24.0895 17.1484 24.2803 17.2275 24.421 17.3681C24.5616 17.5088 24.6406 17.6995 24.6406 17.8984C24.6406 18.0973 24.5616 18.2881 24.421 18.4288C24.2803 18.5694 24.0895 18.6484 23.8906 18.6484H17.8906C17.6917 18.6484 17.5009 18.5694 17.3603 18.4288C17.2196 18.2881 17.1406 18.0973 17.1406 17.8984C17.1406 17.6995 17.2196 17.5088 17.3603 17.3681C17.5009 17.2275 17.6917 17.1484 17.8906 17.1484ZM20.8906 24.6484H17.8906C17.6917 24.6484 17.5009 24.5694 17.3603 24.4288C17.2196 24.2881 17.1406 24.0974 17.1406 23.8984C17.1406 23.6995 17.2196 23.5088 17.3603 23.3681C17.5009 23.2275 17.6917 23.1484 17.8906 23.1484H20.8906C21.0895 23.1484 21.2803 23.2275 21.421 23.3681C21.5616 23.5088 21.6406 23.6995 21.6406 23.8984C21.6406 24.0974 21.5616 24.2881 21.421 24.4288C21.2803 24.5694 21.0895 24.6484 20.8906 24.6484ZM17.8906 21.6484C17.6917 21.6484 17.5009 21.5694 17.3603 21.4288C17.2196 21.2881 17.1406 21.0974 17.1406 20.8984C17.1406 20.6995 17.2196 20.5088 17.3603 20.3681C17.5009 20.2275 17.6917 20.1484 17.8906 20.1484H23.8906C24.0895 20.1484 24.2803 20.2275 24.421 20.3681C24.5616 20.5088 24.6406 20.6995 24.6406 20.8984C24.6406 21.0974 24.5616 21.2881 24.421 21.4288C24.2803 21.5694 24.0895 21.6484 23.8906 21.6484H17.8906ZM23.8906 28.0881V23.8984H28.0812L23.8906 28.0881Z" fill="#F0663F"/>
</g>
<path d="M15.8206 47.4384H14.4906V49.3284H13.7306V44.8584H14.4906V46.7984H15.8206V47.4384ZM14.8106 53.5284H8.94063V51.3384H13.7306V50.4584H8.94063V49.8284H14.4906V51.9184H9.70063V52.8884H14.8106V53.5284ZM8.55063 45.7284C8.98396 45.3484 9.51729 45.1584 10.1506 45.1584C10.784 45.1584 11.3173 45.3451 11.7506 45.7184C12.184 46.0918 12.4006 46.5718 12.4006 47.1584C12.4006 47.7451 12.184 48.2218 11.7506 48.5884C11.3173 48.9551 10.784 49.1384 10.1506 49.1384C9.51729 49.1384 8.98396 48.9584 8.55063 48.5984C8.11729 48.2318 7.90063 47.7518 7.90063 47.1584C7.90063 46.5784 8.11729 46.1018 8.55063 45.7284ZM10.1506 45.8384C9.72396 45.8384 9.36396 45.9618 9.07063 46.2084C8.78396 46.4551 8.64062 46.7718 8.64062 47.1584C8.64062 47.5451 8.78396 47.8584 9.07063 48.0984C9.35729 48.3384 9.71729 48.4584 10.1506 48.4584C10.604 48.4584 10.9673 48.3418 11.2406 48.1084C11.5206 47.8684 11.6606 47.5518 11.6606 47.1584C11.6606 46.7651 11.5206 46.4484 11.2406 46.2084C10.9673 45.9618 10.604 45.8384 10.1506 45.8384ZM24.073 53.4684H18.243V50.5484H24.073V53.4684ZM23.313 52.8384V51.1784H19.003V52.8384H23.313ZM24.063 50.0784H23.303V44.8584H24.063V50.0784ZM22.113 48.8184L22.203 49.4384C21.2696 49.5918 19.9796 49.6751 18.333 49.6884H17.363V47.1684H20.623V46.0084H17.323V45.3784H21.383V47.7884H18.123V49.0484C20.0563 49.0484 21.3863 48.9718 22.113 48.8184ZM32.9153 51.9284C32.9153 52.4418 32.652 52.8451 32.1253 53.1384C31.6053 53.4384 30.8886 53.5884 29.9753 53.5884C29.062 53.5884 28.3453 53.4384 27.8253 53.1384C27.3053 52.8451 27.0453 52.4418 27.0453 51.9284C27.0453 51.4018 27.3053 50.9918 27.8253 50.6984C28.3453 50.3984 29.062 50.2484 29.9753 50.2484C30.8886 50.2484 31.6053 50.3984 32.1253 50.6984C32.652 50.9918 32.9153 51.4018 32.9153 51.9284ZM26.1253 46.1284V45.4884H30.8953V46.1284H28.9053C28.9053 46.3884 28.9086 46.5484 28.9153 46.6084C28.9486 47.1418 29.1753 47.6351 29.5953 48.0884C30.0153 48.5351 30.492 48.8451 31.0253 49.0184L30.6053 49.6284C30.1786 49.4551 29.7686 49.1884 29.3753 48.8284C28.982 48.4684 28.6953 48.0951 28.5153 47.7084C28.3953 48.1084 28.1186 48.5184 27.6853 48.9384C27.252 49.3518 26.7953 49.6618 26.3153 49.8684L25.8753 49.2784C26.462 49.0584 26.9786 48.6951 27.4253 48.1884C27.872 47.6818 28.1053 47.1518 28.1253 46.5984C28.1253 46.5851 28.1253 46.5251 28.1253 46.4184C28.132 46.3118 28.1353 46.2151 28.1353 46.1284H26.1253ZM32.1353 51.9284C32.1353 51.5951 31.942 51.3384 31.5553 51.1584C31.1753 50.9784 30.6486 50.8884 29.9753 50.8884C29.3086 50.8884 28.7853 50.9784 28.4053 51.1584C28.0253 51.3384 27.8353 51.5951 27.8353 51.9284C27.8353 52.2484 28.0253 52.5018 28.4053 52.6884C28.7853 52.8684 29.3086 52.9584 29.9753 52.9584C30.642 52.9584 31.1686 52.8684 31.5553 52.6884C31.942 52.5018 32.1353 52.2484 32.1353 51.9284ZM34.1453 47.9184H32.7953V50.2284H32.0353V44.8584H32.7953V47.2784H34.1453V47.9184Z" fill="#262626"/>
<defs>
<clipPath id="clip0_715_8794">
<rect x="0.890625" y="0.898438" width="40" height="40" rx="20" fill="white"/>
</clipPath>
</defs>
</svg>
