<svg width="41" height="57" viewBox="0 0 41 57" fill="none" xmlns="http://www.w3.org/2000/svg">
<g clip-path="url(#clip0_715_8785)">
<path fill-rule="evenodd" clip-rule="evenodd" d="M27.8906 12.8984H26.8906V10.8984H24.8906V12.8984H16.8906V10.8984H14.8906V12.8984H13.8906C12.7806 12.8984 11.8906 13.7984 11.8906 14.8984V28.8984C11.8906 29.9984 12.7806 30.8984 13.8906 30.8984H27.8906C28.9906 30.8984 29.8906 29.9984 29.8906 28.8984V14.8984C29.8906 13.7984 28.9906 12.8984 27.8906 12.8984ZM27.8906 28.8984H13.8906V17.8984H27.8906V28.8984ZM15.3906 21.8984C15.3906 20.5184 16.5106 19.3984 17.8906 19.3984C19.2706 19.3984 20.3906 20.5184 20.3906 21.8984C20.3906 23.2784 19.2706 24.3984 17.8906 24.3984C16.5106 24.3984 15.3906 23.2784 15.3906 21.8984Z" fill="#F0663F"/>
</g>
<path d="M14.2706 45.5684C15.0706 45.5684 15.6273 46.0251 15.9406 46.9384H17.1906V45.0284H17.9306V53.1584H17.1906V50.3084H15.9406C15.6206 51.2084 15.064 51.6584 14.2706 51.6584C13.644 51.6584 13.164 51.3818 12.8306 50.8284C12.504 50.2751 12.3406 49.5351 12.3406 48.6084C12.3406 47.6884 12.5073 46.9518 12.8406 46.3984C13.174 45.8451 13.6506 45.5684 14.2706 45.5684ZM15.4606 48.6084C15.4606 47.8818 15.354 47.3051 15.1406 46.8784C14.9273 46.4451 14.6373 46.2284 14.2706 46.2284C13.904 46.2284 13.614 46.4451 13.4006 46.8784C13.1873 47.3051 13.0806 47.8818 13.0806 48.6084C13.0806 49.3484 13.1873 49.9318 13.4006 50.3584C13.614 50.7851 13.904 50.9984 14.2706 50.9984C14.6373 50.9984 14.9273 50.7851 15.1406 50.3584C15.354 49.9318 15.4606 49.3484 15.4606 48.6084ZM19.6406 53.5984H18.8906V44.8584H19.6406V53.5984ZM17.1906 47.5784H16.1106C16.1706 47.8984 16.2006 48.2418 16.2006 48.6084C16.2006 48.9684 16.1673 49.3218 16.1006 49.6684H17.1906V47.5784ZM23.783 45.3384C24.4163 45.3384 24.9496 45.5351 25.383 45.9284C25.823 46.3151 26.043 46.8184 26.043 47.4384C26.043 48.0651 25.8263 48.5684 25.393 48.9484C24.9596 49.3284 24.423 49.5184 23.783 49.5184C23.1363 49.5184 22.5963 49.3318 22.163 48.9584C21.7296 48.5784 21.513 48.0751 21.513 47.4484C21.513 46.8284 21.7296 46.3218 22.163 45.9284C22.603 45.5351 23.143 45.3384 23.783 45.3384ZM23.783 45.9584C23.343 45.9584 22.9763 46.0984 22.683 46.3784C22.3963 46.6584 22.253 47.0118 22.253 47.4384C22.253 47.8718 22.3963 48.2251 22.683 48.4984C22.9696 48.7651 23.3363 48.8984 23.783 48.8984C24.2363 48.8984 24.603 48.7651 24.883 48.4984C25.1696 48.2318 25.313 47.8818 25.313 47.4484C25.313 47.0084 25.173 46.6518 24.893 46.3784C24.613 46.0984 24.243 45.9584 23.783 45.9584ZM29.473 48.1384V48.7784H28.143V50.0284H27.383V44.8584H28.143V46.2284H29.473V46.8684H28.143V48.1384H29.473ZM28.153 53.5984H27.383V51.0884H22.513V50.4584H28.153V53.5984Z" fill="#262626"/>
<defs>
<clipPath id="clip0_715_8785">
<rect x="0.890625" y="0.898438" width="40" height="40" rx="20" fill="white"/>
</clipPath>
</defs>
</svg>
