<svg width="57" height="57" viewBox="0 0 57 57" fill="none" xmlns="http://www.w3.org/2000/svg">
<rect x="0.890625" y="1.39844" width="55" height="55" rx="15.5" fill="white"/>
<rect x="0.890625" y="1.39844" width="55" height="55" rx="15.5" stroke="#F5B75C"/>
<rect width="24" height="24" transform="translate(16.3906 16.8984)" fill="white"/>
<path opacity="0.2" d="M37.385 33.2181C37.2393 34.3065 36.7033 35.3051 35.8766 36.028C35.0499 36.7509 33.9888 37.1489 32.8906 37.1481C29.5091 37.1481 26.2661 35.8048 23.875 33.4137C21.4839 31.0226 20.1406 27.7796 20.1406 24.3981C20.1398 23.2999 20.5378 22.2388 21.2607 21.4121C21.9836 20.5853 22.9821 20.0493 24.0706 19.9037C24.2315 19.8846 24.3943 19.9181 24.5346 19.9992C24.6748 20.0803 24.7851 20.2047 24.8488 20.3537L26.8297 24.7787C26.8784 24.8923 26.8982 25.0162 26.8874 25.1394C26.8766 25.2626 26.8355 25.3812 26.7678 25.4846L24.7644 27.8668C24.6933 27.974 24.6513 28.0979 24.6424 28.2262C24.6335 28.3546 24.6581 28.483 24.7138 28.599C25.4891 30.1862 27.1297 31.8071 28.7216 32.5749C28.8382 32.6303 28.9672 32.6543 29.0959 32.6446C29.2247 32.6349 29.3486 32.5919 29.4556 32.5196L31.7994 30.5227C31.9032 30.4536 32.0227 30.4115 32.147 30.4002C32.2712 30.3889 32.3963 30.4088 32.5109 30.4581L36.9322 32.439C37.0819 32.5023 37.207 32.6124 37.2886 32.7529C37.3703 32.8934 37.4041 33.0567 37.385 33.2181Z" fill="#EB944D"/>
<path d="M37.2378 31.7539L32.8213 29.7748L32.8091 29.7692C32.5798 29.6711 32.3297 29.6318 32.0814 29.6547C31.833 29.6776 31.5943 29.7621 31.3869 29.9004C31.3625 29.9166 31.339 29.9341 31.3166 29.9529L29.0347 31.8982C27.5891 31.1961 26.0966 29.7148 25.3944 28.2879L27.3425 25.9714C27.3613 25.9479 27.3791 25.9245 27.3959 25.8992C27.5313 25.6923 27.6135 25.4551 27.6351 25.2088C27.6567 24.9625 27.617 24.7146 27.5197 24.4873V24.4761L25.535 20.052C25.4063 19.7551 25.1851 19.5077 24.9042 19.3468C24.6234 19.186 24.2981 19.1203 23.9769 19.1595C22.7065 19.3267 21.5405 19.9505 20.6965 20.9146C19.8525 21.8786 19.3883 23.117 19.3906 24.3982C19.3906 31.842 25.4469 37.8982 32.8906 37.8982C34.1719 37.9005 35.4102 37.4364 36.3743 36.5924C37.3384 35.7484 37.9622 34.5823 38.1294 33.312C38.1687 32.9909 38.1031 32.6656 37.9424 32.3848C37.7817 32.104 37.5346 31.8827 37.2378 31.7539ZM32.8906 36.3982C29.7091 36.3948 26.6589 35.1294 24.4092 32.8797C22.1595 30.63 20.8941 27.5798 20.8906 24.3982C20.8871 23.4828 21.2169 22.5973 21.8185 21.9072C22.4201 21.2171 23.2523 20.7696 24.1597 20.6482C24.1593 20.652 24.1593 20.6558 24.1597 20.6595L26.1284 25.0657L24.1906 27.3851C24.171 27.4078 24.1531 27.4319 24.1372 27.4573C23.9961 27.6738 23.9134 27.9231 23.8969 28.1809C23.8805 28.4388 23.931 28.6966 24.0434 28.9292C24.8928 30.6664 26.6431 32.4036 28.3991 33.252C28.6334 33.3634 28.8927 33.4121 29.1515 33.3934C29.4103 33.3747 29.6598 33.2891 29.8756 33.1451C29.8997 33.1289 29.9229 33.1114 29.945 33.0926L32.2241 31.1482L36.6303 33.1217H36.6406C36.5207 34.0304 36.0739 34.8642 35.3837 35.4673C34.6935 36.0704 33.8072 36.4013 32.8906 36.3982Z" fill="#EB944D"/>
</svg>
