<svg width="57" height="57" viewBox="0 0 57 57" fill="none" xmlns="http://www.w3.org/2000/svg">
<rect x="0.890625" y="1.39844" width="55" height="55" rx="15.5" fill="white"/>
<rect x="0.890625" y="1.39844" width="55" height="55" rx="15.5" stroke="#F5B75C"/>
<rect width="24" height="24" transform="translate(16.3906 16.8984)" fill="white"/>
<path opacity="0.2" d="M38.1406 26.4609C38.1406 32.6484 28.3906 37.8984 28.3906 37.8984C28.3906 37.8984 18.6406 32.6484 18.6406 26.4609C18.6406 25.1183 19.174 23.8306 20.1234 22.8812C21.0728 21.9318 22.3605 21.3984 23.7031 21.3984C25.8209 21.3984 27.635 22.5525 28.3906 24.3984C29.1462 22.5525 30.9603 21.3984 33.0781 21.3984C34.4208 21.3984 35.7085 21.9318 36.6579 22.8812C37.6073 23.8306 38.1406 25.1183 38.1406 26.4609Z" fill="#EB944D"/>
<path d="M33.0781 20.6484C31.1422 20.6484 29.4472 21.4809 28.3906 22.8881C27.3341 21.4809 25.6391 20.6484 23.7031 20.6484C22.1621 20.6502 20.6847 21.2631 19.595 22.3528C18.5053 23.4425 17.8924 24.9199 17.8906 26.4609C17.8906 33.0234 27.6209 38.3353 28.0353 38.5547C28.1445 38.6134 28.2666 38.6442 28.3906 38.6442C28.5146 38.6442 28.6367 38.6134 28.7459 38.5547C29.1603 38.3353 38.8906 33.0234 38.8906 26.4609C38.8889 24.9199 38.2759 23.4425 37.1863 22.3528C36.0966 21.2631 34.6192 20.6502 33.0781 20.6484ZM28.3906 37.0359C26.6788 36.0384 19.3906 31.4944 19.3906 26.4609C19.3921 25.3176 19.8469 24.2216 20.6554 23.4132C21.4638 22.6048 22.5598 22.1499 23.7031 22.1484C25.5266 22.1484 27.0575 23.1197 27.6969 24.6797C27.7534 24.8172 27.8495 24.9349 27.973 25.0177C28.0966 25.1005 28.2419 25.1447 28.3906 25.1447C28.5393 25.1447 28.6847 25.1005 28.8082 25.0177C28.9317 24.9349 29.0279 24.8172 29.0844 24.6797C29.7237 23.1169 31.2547 22.1484 33.0781 22.1484C34.2214 22.1499 35.3175 22.6048 36.1259 23.4132C36.9343 24.2216 37.3891 25.3176 37.3906 26.4609C37.3906 31.4869 30.1006 36.0375 28.3906 37.0359Z" fill="#EB944D"/>
</svg>
