<svg width="57" height="57" viewBox="0 0 57 57" fill="none" xmlns="http://www.w3.org/2000/svg">
<rect x="0.890625" y="1.39844" width="55" height="55" rx="15.5" fill="white"/>
<rect x="0.890625" y="1.39844" width="55" height="55" rx="15.5" stroke="#F5B75C"/>
<rect width="24" height="24" transform="translate(16.3906 16.8984)" fill="white"/>
<path opacity="0.3" d="M28.3906 20.8984C25.6306 20.8984 23.3906 23.1384 23.3906 25.8984C23.3906 28.7484 26.3106 33.1084 28.3906 35.7784C30.5006 33.0884 33.3906 28.7784 33.3906 25.8984C33.3906 23.1384 31.1506 20.8984 28.3906 20.8984ZM28.3906 28.3984C27.7276 28.3984 27.0917 28.135 26.6229 27.6662C26.154 27.1974 25.8906 26.5615 25.8906 25.8984C25.8906 25.2354 26.154 24.5995 26.6229 24.1307C27.0917 23.6618 27.7276 23.3984 28.3906 23.3984C29.0537 23.3984 29.6896 23.6618 30.1584 24.1307C30.6272 24.5995 30.8906 25.2354 30.8906 25.8984C30.8906 26.5615 30.6272 27.1974 30.1584 27.6662C29.6896 28.135 29.0537 28.3984 28.3906 28.3984Z" fill="#EB944D"/>
<path d="M28.3906 18.8984C24.5206 18.8984 21.3906 22.0284 21.3906 25.8984C21.3906 31.1484 28.3906 38.8984 28.3906 38.8984C28.3906 38.8984 35.3906 31.1484 35.3906 25.8984C35.3906 22.0284 32.2606 18.8984 28.3906 18.8984ZM23.3906 25.8984C23.3906 23.1384 25.6306 20.8984 28.3906 20.8984C31.1506 20.8984 33.3906 23.1384 33.3906 25.8984C33.3906 28.7784 30.5106 33.0884 28.3906 35.7784C26.3106 33.1084 23.3906 28.7484 23.3906 25.8984Z" fill="#EB944D"/>
<path d="M28.3906 28.3984C29.7713 28.3984 30.8906 27.2791 30.8906 25.8984C30.8906 24.5177 29.7713 23.3984 28.3906 23.3984C27.0099 23.3984 25.8906 24.5177 25.8906 25.8984C25.8906 27.2791 27.0099 28.3984 28.3906 28.3984Z" fill="#EB944D"/>
</svg>
