<svg width="49" height="48" viewBox="0 0 49 48" fill="none" xmlns="http://www.w3.org/2000/svg">
<g clip-path="url(#clip0_618_6026)">
<path d="M27.0406 16.9849L22.0406 15.2349C21.6206 15.0849 21.1606 15.0849 20.7406 15.2249L16.7506 16.5649C15.9406 16.8449 15.3906 17.6049 15.3906 18.4649V30.3149C15.3906 31.7249 16.8006 32.6849 18.1106 32.1749L21.0406 31.0349C21.2606 30.9449 21.5106 30.9449 21.7306 31.0249L26.7306 32.7749C27.1506 32.9249 27.6106 32.9249 28.0306 32.7849L32.0206 31.4449C32.8306 31.1749 33.3806 30.4049 33.3806 29.5449V17.6949C33.3806 16.2849 31.9706 15.3249 30.6606 15.8349L27.7306 16.9749C27.5106 17.0549 27.2706 17.0649 27.0406 16.9849ZM27.3906 30.8949L21.3906 28.7849V17.1149L27.3906 19.2249V30.8949Z" fill="#7B7B7B"/>
</g>
<defs>
<clipPath id="clip0_618_6026">
<rect x="4.39062" y="4.00391" width="40" height="40" rx="20" fill="white"/>
</clipPath>
</defs>
</svg>
