<svg width="25" height="25" viewBox="0 0 25 25" fill="none" xmlns="http://www.w3.org/2000/svg">
<path d="M24.4932 3.80483L21.4819 0.822201C21.223 0.577767 20.8791 0.441406 20.5215 0.441406C20.1639 0.441406 19.8199 0.577767 19.5611 0.822201L16.8834 3.48238H2.51839C2.08668 3.48238 1.67265 3.65224 1.36739 3.9546C1.06212 4.25695 0.890625 4.66703 0.890625 5.09462V22.8292C0.890625 23.2568 1.06212 23.6668 1.36739 23.9692C1.67265 24.2715 2.08668 24.4414 2.51839 24.4414H20.4238C20.8555 24.4414 21.2696 24.2715 21.5748 23.9692C21.8801 23.6668 22.0516 23.2568 22.0516 22.8292V8.12561L24.4932 5.70726C24.7477 5.45486 24.8906 5.11274 24.8906 4.75605C24.8906 4.39935 24.7477 4.05724 24.4932 3.80483ZM12.9605 14.8728L9.55034 15.6225L10.3642 12.2771L18.1368 4.56258L20.7657 7.16633L12.9605 14.8728ZM21.6446 6.24736L19.0158 3.64361L20.5215 2.15229L23.1503 4.75605L21.6446 6.24736Z" fill="#EB944D"/>
</svg>
