<svg width="57" height="57" viewBox="0 0 57 57" fill="none" xmlns="http://www.w3.org/2000/svg">
<rect x="0.890625" y="1.39844" width="55" height="55" rx="15.5" fill="white"/>
<rect x="0.890625" y="1.39844" width="55" height="55" rx="15.5" stroke="#F5B75C"/>
<rect width="24" height="24" transform="translate(16.3906 16.8984)" fill="white"/>
<path opacity="0.3" d="M34.3906 22.8984C34.9429 22.8984 35.3906 22.4507 35.3906 21.8984C35.3906 21.3462 34.9429 20.8984 34.3906 20.8984C33.8383 20.8984 33.3906 21.3462 33.3906 21.8984C33.3906 22.4507 33.8383 22.8984 34.3906 22.8984Z" fill="#EB944D"/>
<path opacity="0.3" d="M22.3906 29.8984C22.9429 29.8984 23.3906 29.4507 23.3906 28.8984C23.3906 28.3462 22.9429 27.8984 22.3906 27.8984C21.8383 27.8984 21.3906 28.3462 21.3906 28.8984C21.3906 29.4507 21.8383 29.8984 22.3906 29.8984Z" fill="#EB944D"/>
<path opacity="0.3" d="M34.3906 36.918C34.9429 36.918 35.3906 36.4703 35.3906 35.918C35.3906 35.3657 34.9429 34.918 34.3906 34.918C33.8383 34.918 33.3906 35.3657 33.3906 35.918C33.3906 36.4703 33.8383 36.918 34.3906 36.918Z" fill="#EB944D"/>
<path d="M34.3906 32.9784C33.6306 32.9784 32.9506 33.2784 32.4306 33.7484L25.3006 29.5984C25.3506 29.3684 25.3906 29.1384 25.3906 28.8984C25.3906 28.6584 25.3506 28.4284 25.3006 28.1984L32.3506 24.0884C32.8906 24.5884 33.6006 24.8984 34.3906 24.8984C36.0506 24.8984 37.3906 23.5584 37.3906 21.8984C37.3906 20.2384 36.0506 18.8984 34.3906 18.8984C32.7306 18.8984 31.3906 20.2384 31.3906 21.8984C31.3906 22.1384 31.4306 22.3684 31.4806 22.5984L24.4306 26.7084C23.8906 26.2084 23.1806 25.8984 22.3906 25.8984C20.7306 25.8984 19.3906 27.2384 19.3906 28.8984C19.3906 30.5584 20.7306 31.8984 22.3906 31.8984C23.1806 31.8984 23.8906 31.5884 24.4306 31.0884L31.5506 35.2484C31.5006 35.4584 31.4706 35.6784 31.4706 35.8984C31.4706 37.5084 32.7806 38.8184 34.3906 38.8184C36.0006 38.8184 37.3106 37.5084 37.3106 35.8984C37.3106 34.2884 36.0006 32.9784 34.3906 32.9784ZM34.3906 20.8984C34.9406 20.8984 35.3906 21.3484 35.3906 21.8984C35.3906 22.4484 34.9406 22.8984 34.3906 22.8984C33.8406 22.8984 33.3906 22.4484 33.3906 21.8984C33.3906 21.3484 33.8406 20.8984 34.3906 20.8984ZM22.3906 29.8984C21.8406 29.8984 21.3906 29.4484 21.3906 28.8984C21.3906 28.3484 21.8406 27.8984 22.3906 27.8984C22.9406 27.8984 23.3906 28.3484 23.3906 28.8984C23.3906 29.4484 22.9406 29.8984 22.3906 29.8984ZM34.3906 36.9184C33.8406 36.9184 33.3906 36.4684 33.3906 35.9184C33.3906 35.3684 33.8406 34.9184 34.3906 34.9184C34.9406 34.9184 35.3906 35.3684 35.3906 35.9184C35.3906 36.4684 34.9406 36.9184 34.3906 36.9184Z" fill="#EB944D"/>
</svg>
