<svg width="33" height="32" viewBox="0 0 33 32" fill="none" xmlns="http://www.w3.org/2000/svg">
<path opacity="0.2" d="M29.3083 13.5988L23.2208 18.8488L25.0809 26.6976C25.13 26.8993 25.1183 27.111 25.0472 27.3061C24.976 27.5011 24.8486 27.6707 24.6812 27.7934C24.5137 27.916 24.3136 27.9863 24.1062 27.9953C23.8987 28.0043 23.6933 27.9516 23.5159 27.8438L16.6758 23.6363L9.83585 27.8426C9.65838 27.9503 9.45296 28.003 9.24554 27.994C9.03813 27.985 8.83803 27.9148 8.67054 27.7921C8.50305 27.6694 8.37569 27.4999 8.30454 27.3048C8.2334 27.1098 8.22168 26.898 8.27085 26.6963L10.1308 18.8476L4.04335 13.5976C3.88814 13.4613 3.77624 13.2825 3.72146 13.0834C3.66668 12.8842 3.67143 12.6734 3.73511 12.4769C3.79879 12.2804 3.91861 12.1069 4.07979 11.9777C4.24098 11.8485 4.43646 11.7694 4.6421 11.7501L12.6308 11.1001L15.7083 3.65007C15.7868 3.45787 15.9207 3.29339 16.093 3.17761C16.2654 3.06183 16.4683 3 16.6758 3C16.8834 3 17.0863 3.06183 17.2587 3.17761C17.431 3.29339 17.5649 3.45787 17.6433 3.65007L20.7208 11.1001L28.7096 11.7501C28.9155 11.7692 29.1113 11.8482 29.2728 11.9775C29.4342 12.1067 29.5542 12.2805 29.6179 12.4772C29.6817 12.674 29.6863 12.8851 29.6313 13.0844C29.5762 13.2838 29.464 13.4626 29.3083 13.5988Z" fill="white"/>
<path d="M30.5724 12.1573C30.4474 11.773 30.2114 11.4342 29.8942 11.1838C29.577 10.9333 29.1927 10.7823 28.7899 10.7498L21.4149 10.1548L18.5674 3.26858C18.4134 2.89335 18.1513 2.57239 17.8144 2.3465C17.4775 2.12061 17.0811 2 16.6755 2C16.2699 2 15.8735 2.12061 15.5366 2.3465C15.1997 2.57239 14.9376 2.89335 14.7836 3.26858L11.9386 10.1536L4.55989 10.7498C4.15636 10.784 3.77188 10.9364 3.45461 11.1881C3.13734 11.4398 2.9014 11.7795 2.77634 12.1646C2.65128 12.5498 2.64268 12.9633 2.7516 13.3534C2.86052 13.7434 3.08212 14.0927 3.38864 14.3573L9.01364 19.2111L7.29989 26.4686C7.20404 26.8629 7.22751 27.2767 7.36731 27.6577C7.50711 28.0386 7.75694 28.3694 8.08509 28.608C8.41323 28.8467 8.8049 28.9825 9.21036 28.9982C9.61582 29.0139 10.0168 28.9087 10.3624 28.6961L16.6749 24.8111L22.9911 28.6961C23.3369 28.9062 23.737 29.0093 24.1412 28.9925C24.5454 28.9756 24.9356 28.8396 25.2626 28.6014C25.5897 28.3632 25.8389 28.0336 25.979 27.6541C26.1191 27.2746 26.1438 26.8621 26.0499 26.4686L24.3299 19.2098L29.9549 14.3561C30.2639 14.0919 30.4875 13.7419 30.5974 13.3504C30.7074 12.959 30.6987 12.5438 30.5724 12.1573ZM28.6549 12.8411L22.5674 18.0911C22.4286 18.2107 22.3253 18.3662 22.2689 18.5406C22.2124 18.715 22.205 18.9015 22.2474 19.0798L24.1074 26.9298C24.1122 26.9406 24.1127 26.9529 24.1087 26.9641C24.1048 26.9752 24.0967 26.9844 24.0861 26.9898C24.0636 27.0073 24.0574 27.0036 24.0386 26.9898L17.1986 22.7836C17.0411 22.6867 16.8598 22.6355 16.6749 22.6355C16.49 22.6355 16.3087 22.6867 16.1511 22.7836L9.31114 26.9923C9.29239 27.0036 9.28739 27.0073 9.26364 26.9923C9.25309 26.9869 9.245 26.9777 9.24105 26.9666C9.2371 26.9554 9.23758 26.9431 9.24239 26.9323L11.1024 19.0823C11.1448 18.904 11.1374 18.7175 11.0809 18.5431C11.0245 18.3687 10.9212 18.2132 10.7824 18.0936L4.69489 12.8436C4.67989 12.8311 4.66614 12.8198 4.67864 12.7811C4.69114 12.7423 4.70114 12.7473 4.71989 12.7448L12.7099 12.0998C12.8932 12.0841 13.0685 12.0181 13.2167 11.9092C13.3649 11.8003 13.4802 11.6526 13.5499 11.4823L16.6274 4.03108C16.6374 4.00983 16.6411 3.99983 16.6711 3.99983C16.7011 3.99983 16.7049 4.00983 16.7149 4.03108L19.7999 11.4823C19.8702 11.6526 19.9862 11.8002 20.1351 11.9087C20.284 12.0172 20.46 12.0825 20.6436 12.0973L28.6336 12.7423C28.6524 12.7423 28.6636 12.7423 28.6749 12.7786C28.6861 12.8148 28.6749 12.8286 28.6549 12.8411Z" fill="#F0663F"/>
</svg>
