<svg width="24" height="25" viewBox="0 0 24 25" fill="none" xmlns="http://www.w3.org/2000/svg">
<path fill-rule="evenodd" clip-rule="evenodd" d="M14.76 13.6684L20.49 19.3984L19 20.8884L13.27 15.1584C12.2 15.9284 10.91 16.3984 9.5 16.3984C5.91 16.3984 3 13.4884 3 9.89844C3 6.30844 5.91 3.39844 9.5 3.39844C13.09 3.39844 16 6.30844 16 9.89844C16 11.3084 15.53 12.5984 14.76 13.6684ZM9.5 5.39844C7.01 5.39844 5 7.40844 5 9.89844C5 12.3884 7.01 14.3984 9.5 14.3984C11.99 14.3984 14 12.3884 14 9.89844C14 7.40844 11.99 5.39844 9.5 5.39844Z" fill="#C4C4C4"/>
</svg>
