<svg width="31" height="24" viewBox="0 0 31 24" fill="none" xmlns="http://www.w3.org/2000/svg">
<path d="M0.890625 12.0039C0.890625 12.405 1.05421 12.7585 1.38139 13.0646L11.8933 23.5606C12.1993 23.8561 12.5423 24.0039 12.9223 24.0039C13.3128 24.0039 13.64 23.872 13.9038 23.6081C14.1782 23.3548 14.3154 23.0329 14.3154 22.6424C14.3154 22.4525 14.2785 22.273 14.2046 22.1042C14.1413 21.9248 14.0463 21.7717 13.9196 21.6451L10.3735 18.0356L4.10435 12.3205L3.77189 13.0963L8.86952 13.4129H28.8959C29.3075 13.4129 29.64 13.281 29.8933 13.0171C30.1571 12.7532 30.289 12.4155 30.289 12.0039C30.289 11.5923 30.1571 11.2546 29.8933 10.9907C29.64 10.7269 29.3075 10.5949 28.8959 10.5949H8.86952L3.77189 10.9116L4.10435 11.7031L10.3735 5.97224L13.9196 2.36275C14.0463 2.2361 14.1413 2.08834 14.2046 1.91947C14.2785 1.74005 14.3154 1.55536 14.3154 1.36538C14.3154 0.974883 14.1782 0.652983 13.9038 0.399685C13.64 0.135832 13.3128 0.00390625 12.9223 0.00390625C12.7323 0.00390625 12.5476 0.0408456 12.3682 0.114724C12.1993 0.188603 12.0305 0.309975 11.8616 0.47884L1.38139 10.9432C1.05421 11.2493 0.890625 11.6029 0.890625 12.0039Z" fill="#EB944D"/>
</svg>
