<svg width="126" height="126" viewBox="0 0 126 126" fill="none" xmlns="http://www.w3.org/2000/svg">
<rect x="0.5" y="0.5" width="125" height="125" rx="15.5" stroke="#F0663F"/>
<g clip-path="url(#clip0_841_9121)">
<path d="M57.6481 66.5727C50.5757 56.6066 58.709 44.7086 58.709 44.7086L45.2541 42.5782C43.4947 42.2807 42.3217 40.5945 42.671 38.8393L42.7572 38.3693C42.7917 38.214 42.8305 38.0674 42.878 37.9208C42.9858 37.6232 43.1324 37.3558 43.3092 37.1057C43.775 36.4675 44.4607 36.0017 45.2671 35.8292L45.3965 35.8034L47.8718 35.2772C49.1009 35.0228 50.2092 34.4234 51.0975 33.5954C51.9859 32.7674 52.65 31.7065 53.0079 30.5033C53.6333 28.3385 55.272 26.6394 57.4023 25.9278L61.6975 24.4961H61.8528C66.7172 24.4961 70.9607 27.8167 72.138 32.5431L74.7341 43.0138" fill="white"/>
<path d="M57.647 67.0685C57.4917 67.0685 57.3408 66.9952 57.2416 66.8615C51.0101 58.0727 56.3187 47.7487 57.8928 45.0836L45.1753 43.0697C44.1835 42.9015 43.3296 42.3581 42.7604 41.5388C42.1954 40.7194 41.9884 39.7275 42.1868 38.7486L42.273 38.2829C42.3119 38.0974 42.3593 37.9335 42.4067 37.774C42.5318 37.4333 42.6914 37.1271 42.9027 36.8252C43.4547 36.0663 44.2525 35.5444 45.1581 35.3504L47.7628 34.7984C48.8754 34.5698 49.9061 34.0308 50.7557 33.2416C51.588 32.4654 52.2003 31.4735 52.5281 30.3738C53.1965 28.0666 54.956 26.2295 57.2416 25.4662L61.5368 24.0259C61.5885 24.0086 61.6403 24 61.692 24H61.8473C66.9532 24 71.3778 27.4629 72.6112 32.4222L75.2073 42.8929C75.272 43.1602 75.1124 43.4276 74.845 43.4923C74.582 43.557 74.3103 43.3974 74.2456 43.1301L71.6495 32.6594C70.524 28.1443 66.4961 24.9919 61.8473 24.9919H61.774L57.5564 26.3977C55.5813 27.0575 54.059 28.6445 53.4811 30.6412C53.1016 31.9177 52.3944 33.0605 51.4327 33.9575C50.4538 34.8717 49.2549 35.4927 47.9698 35.7601L45.3694 36.3121C44.7053 36.4544 44.1145 36.8425 43.7134 37.3945C43.5538 37.6187 43.4331 37.8473 43.3468 38.0845C43.3123 38.1966 43.2735 38.3303 43.2434 38.4683L43.1571 38.9254C43.0148 39.6456 43.1614 40.3701 43.5754 40.9652C43.9894 41.5646 44.6147 41.9614 45.3349 42.0821L58.7854 44.2125C58.9536 44.2384 59.0959 44.3505 59.1649 44.5057C59.2339 44.661 59.2167 44.8421 59.1175 44.9801C59.0399 45.0965 51.2645 56.7143 58.0523 66.2793C58.2119 66.5036 58.1601 66.8141 57.9359 66.9693C57.8496 67.0297 57.7505 67.0599 57.6513 67.0599L57.647 67.0685Z" fill="#F0663F"/>
<path d="M45.3978 35.8607C45.3978 37.0251 44.4577 37.9652 43.2933 37.9652C43.1467 37.9652 43.0087 37.9523 42.875 37.9221C43.2545 36.8656 44.1429 36.0721 45.2641 35.8306L45.3892 35.8047C45.3892 35.8047 45.3935 35.8435 45.3935 35.8607H45.3978Z" fill="white"/>
<path d="M43.2989 38.4613C43.1048 38.4613 42.9323 38.444 42.7684 38.4052C42.6304 38.3707 42.514 38.2844 42.4493 38.1594C42.3846 38.0343 42.3717 37.8877 42.4191 37.754C42.8633 36.5207 43.8897 35.6193 45.1705 35.3477L45.3042 35.3218C45.5457 35.2744 45.7915 35.4124 45.8734 35.6495C45.9036 35.7444 45.9036 35.8263 45.9036 35.8652C45.9036 37.2969 44.7392 38.4656 43.3032 38.4656L43.2989 38.4613ZM44.7651 36.5207C44.3382 36.7233 43.9673 37.0338 43.6956 37.422C44.1743 37.3012 44.5667 36.9648 44.7651 36.5207ZM44.9074 35.8608H45.2308L44.9074 35.8565V35.8608Z" fill="#F0663F"/>
<g style="mix-blend-mode:darken">
<path d="M69.8065 33.5898L70.5569 39.1702C70.8588 41.4126 69.3063 43.4309 67.2751 43.4309H65.0499C63.0187 43.4309 61.4662 41.4126 61.7681 39.1702L62.4581 34.034" fill="#FAE0B7"/>
</g>
<path d="M55.518 35.6191C55.0911 35.6191 54.7461 35.2741 54.7461 34.8472V33.5922C54.7461 33.1653 55.0911 32.8203 55.518 32.8203C55.945 32.8203 56.29 33.1653 56.29 33.5922V34.8472C56.29 35.2741 55.945 35.6191 55.518 35.6191Z" fill="#F0663F"/>
<g style="mix-blend-mode:darken">
<path d="M58.709 44.7083L45.2541 42.578C43.4947 42.2804 42.3217 40.5942 42.671 38.8391L42.7572 38.369C42.7917 38.2138 42.8305 38.0671 42.878 37.9205C42.9858 37.623 43.1324 37.3556 43.3092 37.1055C44.0553 38.5588 45.5862 40.2061 48.7084 41.1376C55.1728 43.0653 58.709 44.7083 58.709 44.7083Z" fill="#FAE0B7"/>
</g>
<path d="M68.7376 31.2969L69.4707 36.8772C69.764 39.1197 68.246 41.1379 66.2666 41.1379H64.0931C62.1093 41.1379 60.5914 39.1197 60.8889 36.8772L61.566 31.7411" fill="white"/>
<path d="M66.2659 41.6338H64.0925C63.0834 41.6338 62.1389 41.1896 61.4317 40.3832C60.5994 39.4345 60.2199 38.1321 60.3924 36.8082L61.0694 31.672C61.1039 31.4004 61.3541 31.2106 61.6257 31.2451C61.8974 31.2796 62.0872 31.5297 62.0527 31.8014L61.3756 36.9375C61.2376 37.9769 61.5309 38.9946 62.1777 39.7277C62.6909 40.3142 63.3723 40.6376 64.0925 40.6376H66.2659C66.9861 40.6376 67.6632 40.3142 68.1807 39.7277C68.8275 38.9903 69.1165 37.9769 68.9828 36.9375L68.2497 31.3572C68.2152 31.0855 68.4049 30.8354 68.6766 30.8009C68.9483 30.7664 69.1984 30.9562 69.2329 31.2279L69.966 36.8082C70.1385 38.1278 69.7633 39.4301 68.9267 40.3832C68.2195 41.1896 67.2751 41.6338 66.2659 41.6338Z" fill="#F0663F"/>
<path d="M78.1211 46.3055C76.8834 45.0678 74.6107 45.3266 73.0496 46.8877C71.4885 48.4488 71.2254 50.7215 72.4674 51.9591C72.4674 51.9591 72.4717 51.9634 72.4761 51.9678C72.9073 52.3947 72.9677 53.0717 72.5709 53.5332L71.3203 55.1331L72.5537 56.3665L77.5432 51.3769C79.1043 49.8158 79.3674 47.5432 78.1254 46.3055H78.1211Z" fill="#EB944D"/>
<path d="M72.5478 56.8612C72.4227 56.8612 72.2934 56.8138 72.1985 56.7146L70.9651 55.4812C70.7883 55.3044 70.7711 55.0241 70.9263 54.8257L72.1769 53.2258C72.4098 52.9541 72.3796 52.5703 72.1209 52.3159C71.4007 51.5957 71.0816 50.5952 71.2109 49.4826C71.336 48.4131 71.8621 47.3652 72.6944 46.5329C74.4453 44.782 77.0371 44.519 78.4688 45.9507C79.176 46.658 79.4995 47.6628 79.3701 48.7711C79.245 49.8405 78.7189 50.8885 77.8866 51.7208L72.8971 56.7103C72.8022 56.8052 72.6729 56.8569 72.5478 56.8569V56.8612ZM71.9786 55.0931L72.5478 55.6624L77.1837 51.0265C78.5507 49.6594 78.8095 47.7016 77.7659 46.6536C77.2743 46.162 76.5627 45.9464 75.7563 46.037C74.911 46.1361 74.0701 46.5588 73.393 47.2358C72.716 47.9129 72.2891 48.7495 72.1942 49.599C72.1036 50.4055 72.3192 51.117 72.8109 51.6087C73.4491 52.2426 73.5009 53.2043 72.9402 53.8554L71.9742 55.0888L71.9786 55.0931Z" fill="#F0663F"/>
<path d="M76.3072 50.1486C77.0112 49.4446 77.1286 48.4207 76.5695 47.8616C76.0103 47.3024 74.9864 47.4198 74.2824 48.1238C73.5785 48.8278 73.4611 49.8517 74.0202 50.4108C74.5793 50.97 75.6033 50.8525 76.3072 50.1486Z" fill="white"/>
<path d="M74.9212 51.2497C74.4468 51.2497 73.9983 51.0859 73.6663 50.7538C72.9159 50.0034 73.0324 48.6623 73.9293 47.7653C74.8263 46.8683 76.1675 46.7519 76.9179 47.5022C77.2931 47.8774 77.4699 48.4208 77.4009 48.9986C77.3362 49.542 77.0731 50.0724 76.6548 50.4908C76.1546 50.991 75.5163 51.2497 74.9212 51.2497ZM75.6673 47.9982C75.3266 47.9982 74.9385 48.162 74.6323 48.4682C74.132 48.9685 74.0113 49.6973 74.3692 50.0552C74.7271 50.4131 75.456 50.2924 75.9562 49.7921C76.2149 49.5334 76.3831 49.2056 76.4176 48.8865C76.4478 48.6062 76.3788 48.3647 76.2193 48.2052C76.0813 48.0672 75.8829 47.9982 75.6673 47.9982Z" fill="#F0663F"/>
<path d="M61.4062 67.5052L61.6262 66.4185C61.8892 65.1118 62.5361 63.913 63.4762 62.9685L71.312 55.1328L72.5453 56.3662L61.4062 67.5052Z" fill="white"/>
<path d="M61.407 67.9999C61.3251 67.9999 61.2475 67.9827 61.1742 67.9396C60.9801 67.8361 60.8809 67.6205 60.924 67.4048L61.144 66.3181C61.4286 64.9122 62.1186 63.6314 63.132 62.618L70.9678 54.7823C71.1618 54.5882 71.4766 54.5882 71.6707 54.7823L72.904 56.0156C73.0981 56.2097 73.0981 56.5245 72.904 56.7186L61.765 67.8576C61.6701 67.9525 61.5407 68.0043 61.4157 68.0043L61.407 67.9999ZM71.3171 55.8345L63.8306 63.3166C63.0889 64.0584 62.5541 64.9597 62.2523 65.9558L71.8432 56.3649L71.3127 55.8345H71.3171Z" fill="#F0663F"/>
<path d="M82.6117 50.796C83.8494 52.0337 83.5907 54.3063 82.0296 55.8675C80.4685 57.4286 78.1958 57.6916 76.9581 56.4496C76.9581 56.4496 76.9538 56.4453 76.9495 56.441C76.5226 56.0098 75.8455 55.9494 75.3841 56.3461L73.7841 57.5967L72.5508 56.3634L77.5403 51.3739C79.1014 49.8128 81.3741 49.5497 82.6117 50.7917V50.796Z" fill="#EB944D"/>
<path d="M73.7829 58.0917C73.6535 58.0917 73.5285 58.0442 73.4336 57.945L72.2002 56.7117C72.0062 56.5176 72.0062 56.2028 72.2002 56.0087L77.1897 51.0192C78.0221 50.1869 79.07 49.6565 80.1395 49.5357C81.2521 49.4064 82.2526 49.7298 82.9598 50.437C83.6671 51.1443 83.9905 52.1491 83.8611 53.2574C83.7361 54.3269 83.2099 55.3748 82.3776 56.2071C81.5453 57.0394 80.4974 57.5698 79.4279 57.6906C78.3153 57.8157 77.3148 57.4965 76.6076 56.7893C76.3445 56.5219 75.9607 56.4917 75.7063 56.7117L74.0891 57.9795C73.9985 58.0485 73.8907 58.083 73.7829 58.083V58.0917ZM73.2525 56.3624L73.8217 56.9316L75.0766 55.9484C75.7106 55.4007 76.6766 55.4524 77.3019 56.0864C77.7978 56.5823 78.5137 56.8022 79.3158 56.7074C80.161 56.6082 81.002 56.1855 81.679 55.5085C82.3561 54.8314 82.783 53.9948 82.8779 53.1453C82.9684 52.3388 82.7528 51.6273 82.2612 51.1357C81.7696 50.644 81.058 50.4284 80.2516 50.519C79.4063 50.6182 78.5654 51.0408 77.8884 51.7178L73.2525 56.3537V56.3624Z" fill="#F0663F"/>
<path d="M80.7877 54.633C81.4917 53.929 81.6091 52.9051 81.0499 52.3459C80.4908 51.7868 79.4669 51.9042 78.7629 52.6082C78.059 53.3121 77.9415 54.3361 78.5007 54.8952C79.0598 55.4543 80.0837 55.3369 80.7877 54.633Z" fill="white"/>
<path d="M79.4131 55.7423C78.9258 55.7423 78.4773 55.5655 78.1539 55.2421C77.7787 54.8669 77.6019 54.3235 77.6709 53.7457C77.7356 53.2023 77.9987 52.6719 78.417 52.2536C79.314 51.3566 80.6551 51.2401 81.4055 51.9905C82.1559 52.7409 82.0394 54.082 81.1424 54.979C80.7241 55.3973 80.1937 55.6647 79.6503 55.7251C79.5684 55.7337 79.4908 55.738 79.4131 55.738V55.7423ZM79.1199 52.9565C78.8611 53.2152 78.693 53.543 78.6585 53.8621C78.6283 54.1424 78.6973 54.3839 78.8568 54.5435C79.0164 54.703 79.2622 54.7764 79.5382 54.7419C79.853 54.7074 80.1851 54.5349 80.4438 54.2804C80.9441 53.7802 81.0648 53.0514 80.7069 52.6934C80.3489 52.3355 79.6201 52.4562 79.1199 52.9565Z" fill="#F0663F"/>
<path d="M61.4102 67.5024L62.4969 67.2824C63.8036 67.0194 65.0024 66.3725 65.9469 65.4324L73.7826 57.5966L72.5492 56.3633L61.4102 67.5024Z" fill="white"/>
<path d="M61.4088 67.9985C61.2277 67.9985 61.0595 67.8993 60.9732 67.7355C60.8697 67.5414 60.9042 67.3042 61.0595 67.149L72.1986 56.0099C72.2934 55.915 72.4185 55.8633 72.5479 55.8633C72.6815 55.8633 72.8066 55.915 72.8972 56.0099L74.1305 57.2433C74.3246 57.4373 74.3246 57.7521 74.1305 57.9462L66.2948 65.7819C65.2814 66.7954 64.0006 67.4854 62.5947 67.77L61.508 67.9899C61.4735 67.9985 61.4433 67.9985 61.4088 67.9985ZM72.5479 57.0665L62.957 66.6574C63.9531 66.3598 64.8544 65.8207 65.5919 65.079L73.0783 57.5926L72.5479 57.0621V57.0665Z" fill="#F0663F"/>
</g>
<path d="M60.5 97.12H59.284V83.136H60.5V97.12ZM56.484 93.52H49.876V84.576H56.484V93.52ZM55.268 92.512V85.584H51.108V92.512H55.268ZM74.6518 86.08C74.6518 87.04 74.0384 87.7547 72.8118 88.224V90.208H76.0758V91.216H63.4518V90.208H66.6678V88.208C65.4838 87.7493 64.8918 87.04 64.8918 86.08C64.8918 85.2693 65.3238 84.6293 66.1878 84.16C67.0518 83.68 68.2411 83.44 69.7558 83.44C71.2811 83.44 72.4758 83.68 73.3398 84.16C74.2144 84.6293 74.6518 85.2693 74.6518 86.08ZM73.4198 92.752C74.3051 93.1787 74.7478 93.7867 74.7478 94.576C74.7478 95.3653 74.3104 95.9733 73.4358 96.4C72.5611 96.8267 71.3451 97.04 69.7878 97.04C68.2304 97.04 67.0144 96.8267 66.1398 96.4C65.2758 95.9733 64.8438 95.3653 64.8438 94.576C64.8438 93.7867 65.2758 93.1787 66.1398 92.752C67.0144 92.3147 68.2251 92.096 69.7718 92.096C71.3291 92.096 72.5451 92.3147 73.4198 92.752ZM73.4678 86.08C73.4678 85.568 73.1318 85.1627 72.4598 84.864C71.7878 84.5653 70.8864 84.416 69.7558 84.416C68.6251 84.416 67.7291 84.5653 67.0677 84.864C66.4064 85.1627 66.0758 85.568 66.0758 86.08C66.0758 86.5813 66.4064 86.9813 67.0677 87.28C67.7398 87.568 68.6358 87.712 69.7558 87.712C70.8864 87.712 71.7878 87.568 72.4598 87.28C73.1318 86.9813 73.4678 86.5813 73.4678 86.08ZM69.7718 93.152C68.6304 93.152 67.7238 93.2747 67.0518 93.52C66.3904 93.7653 66.0598 94.1173 66.0598 94.576C66.0598 95.024 66.3958 95.3707 67.0677 95.616C67.7398 95.8613 68.6411 95.984 69.7718 95.984C70.9238 95.984 71.8358 95.8613 72.5078 95.616C73.1798 95.3707 73.5158 95.024 73.5158 94.576C73.5158 94.1173 73.1798 93.7653 72.5078 93.52C71.8358 93.2747 70.9238 93.152 69.7718 93.152ZM69.7558 88.688C69.0731 88.688 68.4491 88.64 67.8838 88.544V90.208H71.5958V88.56C70.9984 88.6453 70.3851 88.688 69.7558 88.688Z" fill="#262626"/>
<defs>
<clipPath id="clip0_841_9121">
<rect width="41.7705" height="44" fill="white" transform="translate(42.1133 24)"/>
</clipPath>
</defs>
</svg>
