<svg width="126" height="126" viewBox="0 0 126 126" fill="none" xmlns="http://www.w3.org/2000/svg">
<rect x="0.5" y="0.5" width="125" height="125" rx="15.5" stroke="#F0663F"/>
<g clip-path="url(#clip0_841_9126)">
<path d="M43.9453 67.5519V37.0689L63.0011 24.4453L82.053 37.0689V67.5519H43.9453Z" fill="#FAE0B7"/>
<path d="M82.0544 67.998H43.9467C43.6981 67.998 43.5 67.7999 43.5 67.5514V37.0683C43.5 36.9168 43.5738 36.777 43.6981 36.6954L62.7539 24.0718C62.9015 23.9708 63.0996 23.9708 63.2472 24.0718L82.303 36.6954C82.4273 36.777 82.5011 36.9168 82.5011 37.0683V67.5475C82.5011 67.7961 82.303 67.9941 82.0544 67.9941V67.998ZM44.3934 67.1047H81.6077V37.3091L63.0025 24.9807L44.3934 37.3091V67.1047Z" fill="#F0663F"/>
<path d="M79.9364 65.43H46.0625V38.2058L63.0014 26.9844L79.9364 38.2058V65.43Z" fill="white"/>
<path d="M79.9378 65.8761H46.0639C45.8153 65.8761 45.6172 65.678 45.6172 65.4294V38.2052C45.6172 38.0537 45.691 37.9139 45.8153 37.8323L62.7542 26.6109C62.9018 26.5099 63.0999 26.5099 63.2475 26.6109L80.1825 37.8323C80.3068 37.9139 80.3806 38.0537 80.3806 38.2052V65.4294C80.3806 65.678 80.1825 65.8761 79.9339 65.8761H79.9378ZM46.5105 64.9827H79.4911V38.446L63.0028 27.5198L46.5105 38.446V64.9827Z" fill="#F0663F"/>
<path d="M76.2237 42.3721C76.2237 44.6017 75.6644 46.7613 74.639 48.6684C74.1185 49.6394 73.4776 50.5483 72.7241 51.3679C72.0016 52.1564 71.1782 52.8633 70.2654 53.4692L69.7915 53.7839L68.2651 54.7938L67.2396 55.4735L67.092 55.5706L66.8629 55.7221L66.6958 55.8386L66.5249 55.7221L64.9752 54.6928L63.6001 53.7839L63.1224 53.4692C61.258 52.2341 59.7703 50.5755 58.7449 48.6684C57.7234 46.7613 57.1641 44.6017 57.1641 42.3721C57.1641 39.7309 59.2382 37.4975 61.8756 37.4237C64.175 37.3616 66.121 38.8958 66.6958 40.9971C67.2629 38.8958 69.2128 37.3616 71.5083 37.4237C74.1496 37.4936 76.2237 39.727 76.2237 42.3721Z" fill="#EB944D"/>
<path d="M66.6981 56.1326C66.6399 56.1326 66.5855 56.1171 66.535 56.0821L66.3641 55.9656L62.9654 53.7128C61.101 52.4776 59.5512 50.7802 58.4947 48.8071C57.4382 46.8339 56.8789 44.6083 56.8789 42.3749C56.8789 39.5627 59.1201 37.2128 61.874 37.1351C63.9753 37.073 65.8552 38.2809 66.6981 40.1415C67.5371 38.2809 69.417 37.0768 71.5184 37.1351C74.2723 37.2089 76.5134 39.5588 76.5134 42.3749C76.5134 44.6122 75.9541 46.8378 74.8937 48.811C74.3538 49.817 73.6935 50.7453 72.9361 51.5687C72.1903 52.3844 71.3436 53.1069 70.423 53.7167L66.8574 56.086C66.8069 56.121 66.7486 56.1365 66.6942 56.1365L66.6981 56.1326ZM62.0177 37.7138C61.975 37.7138 61.9322 37.7138 61.8895 37.7138C59.4463 37.7799 57.4615 39.8696 57.4615 42.371C57.4615 44.5112 57.9975 46.6397 59.0113 48.5313C60.0251 50.4229 61.505 52.0465 63.2917 53.2273L66.702 55.4879L67.0826 55.2354L70.1084 53.2273C70.9901 52.6446 71.798 51.9533 72.5127 51.1725C73.2391 50.384 73.8683 49.4946 74.3849 48.5313C75.3987 46.6436 75.9347 44.515 75.9347 42.371C75.9347 39.8696 73.946 37.7799 71.5028 37.7138C69.3937 37.6595 67.5254 39.0384 66.9778 41.0737C66.9428 41.2018 66.8302 41.2873 66.6981 41.2873C66.5661 41.2873 66.4534 41.198 66.4185 41.0737C65.8747 39.0772 64.0763 37.7138 62.0177 37.7138Z" fill="#F0663F"/>
<path d="M69.7727 47.4407L69.0813 44.648C68.7667 43.3895 67.6403 42.5039 66.343 42.5039H66.3003L65.1544 42.8846C64.5873 43.0749 64.1484 43.5293 63.9853 44.1042C63.8882 44.4227 63.7134 44.7062 63.4765 44.9238C63.2356 45.1451 62.9443 45.3044 62.6181 45.3704L61.9577 45.5103L61.9267 45.518C61.8956 45.5219 61.8645 45.5336 61.8373 45.5413C61.8218 45.5452 61.8063 45.553 61.7868 45.5608C61.7325 45.5802 61.6781 45.6074 61.6315 45.6423C61.6159 45.654 61.6004 45.6656 61.581 45.6773C61.5111 45.7278 61.4528 45.7899 61.4062 45.8598C61.3596 45.9259 61.3169 45.9958 61.2897 46.0774C61.2741 46.1162 61.2664 46.155 61.2586 46.1939L61.2353 46.3221C61.1421 46.7882 61.4528 47.2387 61.9228 47.3164L65.5079 47.8835C65.5079 47.8835 64.2766 49.6935 64.4825 51.725L64.4902 51.756C64.5096 51.9308 64.5368 52.1056 64.5796 52.2804L64.9874 54.6886L66.5372 55.7179L66.7081 55.8344L66.8751 55.7179L67.1043 55.5664L67.0965 55.38C67.147 55.411 67.1975 55.4421 67.2519 55.4693L68.2773 54.7896L69.8038 53.7797L70.2777 53.4651C71.1904 52.8591 72.0139 52.1522 72.7363 51.3637C70.6971 49.3129 69.7844 47.4368 69.7844 47.4368L69.7727 47.4407Z" fill="white"/>
<path d="M66.6973 56.1319C66.639 56.1319 66.5846 56.1163 66.5341 56.0814L66.3632 55.9649L64.8173 54.9356C64.7513 54.8928 64.7047 54.819 64.693 54.7413L64.2852 52.3332C64.2502 52.1856 64.2191 52.0069 64.1958 51.7933V51.7738C64.1881 51.7544 64.1881 51.735 64.1881 51.7156C64.0444 50.1658 64.6775 48.7636 65.0348 48.1111L61.8731 47.61C61.5662 47.5595 61.3021 47.3925 61.1273 47.14C60.9525 46.8837 60.8865 46.5768 60.9487 46.2738L60.9681 46.1534C60.9797 46.0913 60.9953 46.0369 61.0147 45.9864C61.0458 45.8932 61.0963 45.7961 61.1662 45.699C61.24 45.5941 61.3215 45.5125 61.4109 45.4504L61.4653 45.4115C61.5352 45.3649 61.6051 45.33 61.675 45.3028C61.6983 45.2911 61.7216 45.2834 61.7449 45.2756C61.7838 45.2601 61.8304 45.2484 61.877 45.2406H61.8886L62.5567 45.093C62.8247 45.0387 63.0733 44.9105 63.2792 44.7163C63.4773 44.5298 63.6249 44.2929 63.7064 44.0249C63.8968 43.3607 64.4017 42.8325 65.062 42.6149L66.2078 42.2343C66.2389 42.2226 66.27 42.2188 66.3011 42.2188H66.3438C67.7771 42.2188 69.02 43.1898 69.3657 44.5803L70.0493 47.342C70.1658 47.5712 71.0786 49.3035 72.9314 51.1679C73.0401 51.2767 73.044 51.4553 72.9391 51.568C72.1934 52.3837 71.3466 53.1061 70.4261 53.7159L67.4003 55.724C67.3731 55.7396 67.3459 55.7551 67.3187 55.7629C67.2993 55.7862 67.2799 55.8056 67.2527 55.8212L66.8604 56.0853C66.8099 56.1202 66.7516 56.1358 66.6973 56.1358V56.1319ZM65.2446 54.5238L66.6973 55.491L66.7982 55.425V55.4017C66.7944 55.2929 66.8487 55.1919 66.942 55.1375C67.0313 55.0832 67.1439 55.0832 67.2333 55.1375L70.1076 53.2304C70.9116 52.6983 71.6574 52.0729 72.3254 51.3776C70.4105 49.3967 69.5521 47.6488 69.5172 47.5712C69.5094 47.5517 69.5016 47.5323 69.4977 47.5129L68.8064 44.7202C68.5267 43.5899 67.5168 42.8014 66.3554 42.7975L65.2562 43.1626C64.7785 43.3219 64.4095 43.7064 64.2735 44.188C64.1609 44.557 63.9589 44.8872 63.6831 45.1435C63.3957 45.4077 63.05 45.5902 62.681 45.664L62.0013 45.8077C61.9663 45.8155 61.9547 45.8194 61.9391 45.8233C61.9275 45.8272 61.8964 45.8388 61.8848 45.8427C61.8576 45.8543 61.8265 45.8699 61.7954 45.8893L61.7449 45.9243C61.7177 45.9437 61.6789 45.9825 61.6439 46.033C61.609 46.0835 61.5818 46.1301 61.5662 46.1767C61.5546 46.2039 61.5468 46.2311 61.5429 46.2583L61.5235 46.3748C61.4924 46.5302 61.5235 46.6817 61.609 46.8021C61.6944 46.9264 61.8226 47.0079 61.9702 47.0312L65.5553 47.5983C65.6524 47.6139 65.7379 47.6799 65.7767 47.7692C65.8155 47.8586 65.8078 47.9673 65.7495 48.0489C65.7379 48.0644 64.5804 49.8007 64.7746 51.6962C64.7746 51.7039 64.7746 51.7117 64.7746 51.7233C64.7979 51.9214 64.8212 52.0768 64.8562 52.2166L65.2446 54.52V54.5238Z" fill="#F0663F"/>
<path d="M61.961 45.5312C61.961 45.8419 61.7086 46.0905 61.4017 46.0905C61.3629 46.0905 61.3279 46.0905 61.2891 46.0788C61.3901 45.7992 61.627 45.5855 61.9261 45.5234L61.961 45.5156C61.961 45.5156 61.961 45.5273 61.961 45.5312Z" fill="white"/>
<path d="M61.4006 46.3815C61.3385 46.3815 61.2802 46.3737 61.2219 46.3621C61.1404 46.3426 61.0743 46.2922 61.0316 46.2184C60.9928 46.1446 60.985 46.0591 61.0122 45.9814C61.1481 45.6008 61.4666 45.325 61.8589 45.2395L61.8978 45.2318C62.0415 45.2046 62.1813 45.2862 62.2318 45.4221C62.2435 45.4532 62.2474 45.4998 62.2474 45.5309C62.2474 46.0008 61.8667 46.3815 61.3967 46.3815H61.4006Z" fill="#F0663F"/>
<g style="mix-blend-mode:darken">
<path d="M68.459 44.9258L68.661 46.4134C68.7426 47.0116 68.327 47.5476 67.7871 47.5476H67.1928C66.6529 47.5476 66.2373 47.0116 66.3188 46.4134L66.5014 45.0462L68.459 44.9297V44.9258Z" fill="#FAE0B7"/>
</g>
<path d="M64.6546 45.5495C64.4953 45.5495 64.3633 45.4174 64.3633 45.2582V44.9241C64.3633 44.7649 64.4953 44.6328 64.6546 44.6328C64.8138 44.6328 64.9459 44.7649 64.9459 44.9241V45.2582C64.9459 45.4174 64.8138 45.5495 64.6546 45.5495Z" fill="#F0663F"/>
<g style="mix-blend-mode:darken">
<path d="M65.504 47.8908L61.9189 47.3238C61.4489 47.2461 61.1382 46.7955 61.2314 46.3294L61.2547 46.2051C61.2624 46.1624 61.2741 46.1235 61.2858 46.0847C61.3129 46.007 61.3557 45.9332 61.4023 45.8672C61.6004 46.2556 62.0082 46.6945 62.8394 46.9431C64.564 47.4558 65.504 47.8947 65.504 47.8947V47.8908Z" fill="#FAE0B7"/>
</g>
<path d="M68.1774 44.3164L68.3716 45.804C68.4493 46.4022 68.0453 46.9382 67.5171 46.9382H66.9383C66.4101 46.9382 66.0061 46.4022 66.0838 45.804L66.2625 44.4368" fill="white"/>
<path d="M67.5177 47.2302H66.9389C66.6243 47.2302 66.3291 47.0942 66.1116 46.8417C65.8591 46.5543 65.7465 46.162 65.797 45.7658L65.9756 44.3986C65.9951 44.2393 66.1427 44.1267 66.3019 44.15C66.4612 44.1694 66.5738 44.317 66.5505 44.4763L66.3718 45.8435C66.3408 46.0727 66.4068 46.3018 66.5466 46.4611C66.6515 46.5815 66.7913 46.6514 66.9389 46.6514H67.5177C67.6614 46.6514 67.8012 46.5854 67.91 46.4611C68.0498 46.3018 68.1158 46.0727 68.0847 45.8435L67.8905 44.3559C67.8711 44.1966 67.9799 44.049 68.1391 44.0296C68.2984 44.0102 68.446 44.1189 68.4654 44.2782L68.6596 45.7658C68.7101 46.162 68.5975 46.5543 68.345 46.8417C68.1275 47.0903 67.8323 47.2302 67.5177 47.2302Z" fill="#F0663F"/>
<path d="M55.6301 59.0387L57.1178 57.5511L63.515 60.6312C64.2996 61.0041 65.2008 61.0274 66.0009 60.705L76.0182 56.6267C76.7135 56.3431 77.0359 55.5468 76.7251 54.8632C76.6591 54.7118 76.5659 54.5797 76.4532 54.467C76.1153 54.1291 75.6104 53.9932 75.1326 54.133L70.5493 55.5158L64.9638 57.2015L62.61 56.3548L62.7576 56.2072L64.9755 53.9738L62.6683 52.1948C61.9186 51.6122 60.9592 51.3714 60.0193 51.519L56.306 52.2647C54.9077 52.5444 53.6181 53.2319 52.6121 54.2418L51.7227 55.1312" fill="white"/>
<path d="M64.8408 61.2205C64.3436 61.2205 63.8465 61.1118 63.392 60.8943L57.1773 57.9034L55.8373 59.2435C55.7246 59.3561 55.5382 59.3561 55.4256 59.2435C55.3129 59.1308 55.3129 58.9444 55.4256 58.8318L56.9132 57.3441C56.9987 57.2587 57.1346 57.2354 57.2434 57.2859L63.6406 60.366C64.3475 60.7001 65.1671 60.7272 65.8895 60.432L75.903 56.3537C76.1671 56.2449 76.3691 56.0429 76.4739 55.7788C76.5788 55.5186 76.571 55.235 76.4545 54.9787C76.404 54.8621 76.3302 54.7573 76.2448 54.6679C75.9768 54.3999 75.5806 54.2989 75.2155 54.4077L65.0467 57.4762C64.9884 57.4956 64.9224 57.4917 64.8641 57.4723L62.5103 56.6255C62.4171 56.5906 62.3472 56.5129 62.3239 56.4158C62.3006 56.3187 62.3316 56.2177 62.4015 56.1478L64.534 53.9998L62.4909 52.4229C61.8073 51.8946 60.9256 51.6693 60.0672 51.8053L56.3655 52.551C55.0216 52.8191 53.7942 53.4755 52.8193 54.4504L51.9298 55.3399C51.8172 55.4525 51.6307 55.4525 51.5181 55.3399C51.4054 55.2272 51.4054 55.0408 51.5181 54.9282L52.4076 54.0387C53.464 52.9822 54.7924 52.2714 56.2529 51.9801L59.9662 51.2343C60.9955 51.0712 62.0403 51.3392 62.8482 51.9645L65.1515 53.7435C65.2176 53.794 65.2603 53.8717 65.2642 53.9532C65.2681 54.0348 65.2409 54.1164 65.1787 54.1785L63.1357 56.2332L64.969 56.8936L75.0446 53.8522C75.6155 53.6813 76.2331 53.8367 76.6526 54.2562C76.7924 54.396 76.9012 54.5592 76.9828 54.7378C77.1614 55.1379 77.1731 55.5846 77.01 55.9924C76.8468 56.4042 76.5283 56.7227 76.1205 56.8897L66.1032 60.9681C65.6953 61.1351 65.2642 61.2167 64.833 61.2167L64.8408 61.2205Z" fill="#F0663F"/>
<g style="mix-blend-mode:darken">
<path d="M61.7109 56.3779L64.8144 58.2346L68.0849 57.9976C68.8773 57.9394 69.5842 57.4694 69.9376 56.7547L70.5552 55.5156L64.9698 57.2014L62.616 56.3546L62.7636 56.207L61.7109 56.3779Z" fill="#FAE0B7"/>
</g>
<path d="M62.7894 52.2852L64.9801 53.9787L68.2933 54.8837C68.7671 55.0119 69.0856 55.4508 69.0701 55.9402C69.0507 56.4762 68.6351 56.9112 68.103 56.9539L64.9684 57.2064L61.4727 55.9479" fill="white"/>
<path d="M64.9647 57.4929C64.9297 57.4929 64.8987 57.4891 64.8676 57.4774L61.3718 56.2189C61.2203 56.1646 61.1426 55.9975 61.197 55.8461C61.2514 55.6946 61.4184 55.6169 61.5699 55.6713L65.0074 56.9103L68.0798 56.6617C68.4643 56.6307 68.7673 56.316 68.7828 55.9276C68.7945 55.5703 68.5653 55.2557 68.2196 55.1624L64.9064 54.2574C64.8715 54.2458 64.8365 54.2302 64.8054 54.2069L62.6148 52.5134C62.4866 52.4163 62.4633 52.2338 62.5643 52.1056C62.6614 51.9774 62.8439 51.9541 62.9721 52.0551L65.1162 53.7136L68.375 54.6031C68.9809 54.7701 69.3888 55.3217 69.3655 55.9509C69.3422 56.6345 68.81 57.19 68.1303 57.2444L64.9958 57.4968C64.9958 57.4968 64.9802 57.4968 64.9725 57.4968L64.9647 57.4929Z" fill="#F0663F"/>
<g style="mix-blend-mode:darken">
<path d="M57.3594 57.3137L56.8894 57.0612C56.5127 56.8592 56.1204 56.8786 55.8912 57.1078L54.6172 58.3818L55.4523 59.2169L57.3594 57.3098V57.3137Z" fill="#FAE0B7"/>
</g>
<path d="M57.0361 59.2815L51.1016 54.0898L48.9175 56.5864L54.852 61.7781L57.0361 59.2815Z" fill="#FAE0B7"/>
<path d="M54.8518 62.0718C54.7819 62.0718 54.7119 62.0446 54.6615 61.998L48.7264 56.8088C48.6682 56.7583 48.6332 56.6845 48.6293 56.6107C48.6254 56.5369 48.6487 56.4592 48.6992 56.4009L50.8821 53.9034C50.987 53.783 51.1735 53.7713 51.2939 53.8762L57.2289 59.0655C57.2872 59.116 57.3221 59.1898 57.326 59.2636C57.3299 59.3374 57.3066 59.415 57.2561 59.4733L55.0732 61.9708C55.0227 62.0291 54.9489 62.0641 54.8751 62.0679C54.8673 62.0679 54.8634 62.0679 54.8557 62.0679L54.8518 62.0718ZM49.3285 56.5641L54.8246 61.3727L56.6269 59.3141L51.1307 54.5054L49.3285 56.5641Z" fill="#F0663F"/>
</g>
<path d="M53.388 86.816C53.388 87.7227 52.94 88.4533 52.044 89.008C51.1587 89.5627 49.948 89.84 48.412 89.84C46.8867 89.84 45.676 89.568 44.78 89.024C43.8947 88.4693 43.452 87.7333 43.452 86.816C43.452 85.8987 43.8947 85.1627 44.78 84.608C45.6653 84.0533 46.876 83.776 48.412 83.776C49.948 83.776 51.1587 84.0533 52.044 84.608C52.94 85.1627 53.388 85.8987 53.388 86.816ZM46.588 97.12H45.372V92.16H42.108V91.136H54.732V92.16H51.42V97.12H50.204V92.16H46.588V97.12ZM48.412 84.848C47.26 84.848 46.3427 85.0293 45.66 85.392C44.988 85.744 44.652 86.2187 44.652 86.816C44.652 87.4133 44.988 87.888 45.66 88.24C46.3427 88.592 47.26 88.768 48.412 88.768C49.5853 88.768 50.508 88.592 51.18 88.24C51.852 87.888 52.188 87.4133 52.188 86.816C52.188 86.208 51.852 85.728 51.18 85.376C50.508 85.024 49.5853 84.848 48.412 84.848ZM65.3478 93.376L64.7078 94.352C63.9291 93.9893 63.1558 93.4293 62.3878 92.672C61.6304 91.904 61.1291 91.1627 60.8838 90.448C60.6918 91.184 60.2278 91.968 59.4918 92.8C58.7664 93.6213 58.0144 94.2347 57.2358 94.64L56.5158 93.744C57.5184 93.264 58.3878 92.512 59.1238 91.488C59.8598 90.4533 60.2278 89.3227 60.2278 88.096V87.664H56.9478V86.656H64.7398V87.664H61.4758V88.08C61.4758 89.296 61.8704 90.4 62.6598 91.392C63.4598 92.3733 64.3558 93.0347 65.3478 93.376ZM67.9718 97.12H66.7398V83.136H67.9718V97.12ZM62.9798 85.072H58.7398V83.968H62.9798V85.072ZM78.9395 86.384C78.9395 87.1733 78.5928 87.7973 77.8995 88.256C77.2168 88.7147 76.3262 88.944 75.2275 88.944C74.1182 88.944 73.2168 88.7147 72.5235 88.256C71.8302 87.7973 71.4835 87.168 71.4835 86.368C71.4835 85.5893 71.8302 84.9653 72.5235 84.496C73.2275 84.0267 74.1288 83.792 75.2275 83.792C76.3155 83.792 77.2062 84.032 77.8995 84.512C78.5928 84.9813 78.9395 85.6053 78.9395 86.384ZM82.2835 93.888H81.0675V92.368H78.1235V91.408H81.0675V83.136H82.2835V93.888ZM82.5715 96.784H72.5715V92.736H73.7875V95.76H82.5715V96.784ZM77.0515 87.52C77.5102 87.232 77.7395 86.8533 77.7395 86.384C77.7395 85.9147 77.5048 85.536 77.0355 85.248C76.5768 84.9493 75.9742 84.8 75.2275 84.8C74.4702 84.8 73.8568 84.944 73.3875 85.232C72.9288 85.52 72.6995 85.904 72.6995 86.384C72.6995 86.8533 72.9288 87.232 73.3875 87.52C73.8568 87.808 74.4702 87.952 75.2275 87.952C75.9848 87.952 76.5928 87.808 77.0515 87.52ZM75.9315 93.328H74.7155V90.784C72.9448 90.848 71.6488 90.88 70.8275 90.88L70.6355 89.84C72.1928 89.8613 73.7502 89.8453 75.3075 89.792C76.5128 89.7387 77.9902 89.6213 79.7395 89.44L79.8355 90.384C79.2915 90.4587 77.9902 90.5653 75.9315 90.704V93.328Z" fill="#262626"/>
<defs>
<clipPath id="clip0_841_9126">
<rect width="39.0011" height="44" fill="white" transform="translate(43.5 24)"/>
</clipPath>
</defs>
</svg>
