<svg width="126" height="126" viewBox="0 0 126 126" fill="none" xmlns="http://www.w3.org/2000/svg">
<rect x="0.5" y="0.5" width="125" height="125" rx="15.5" stroke="#F0663F"/>
<path d="M41.438 44.2617H51.6016V42.3384H41.438V44.2617Z" fill="white"/>
<path d="M51.6033 44.7052H41.4397C41.195 44.7052 41 44.5101 41 44.2654V42.3421C41 42.0974 41.195 41.9023 41.4397 41.9023H51.6033C51.848 41.9023 52.043 42.0974 52.043 42.3421V44.2654C52.043 44.5101 51.848 44.7052 51.6033 44.7052ZM41.8795 43.8257H51.1636V42.7818H41.8795V43.8257Z" fill="#F0663F"/>
<path d="M82.812 42.3438H72.6484V44.2671H82.812V42.3438Z" fill="white"/>
<path d="M82.8142 44.7052H72.6507C72.4059 44.7052 72.2109 44.5101 72.2109 44.2654V42.3421C72.2109 42.0974 72.4059 41.9023 72.6507 41.9023H82.8142C83.0589 41.9023 83.254 42.0974 83.254 42.3421V44.2654C83.254 44.5101 83.0589 44.7052 82.8142 44.7052ZM73.0904 43.8257H82.3745V42.7818H73.0904V43.8257Z" fill="#F0663F"/>
<path d="M42.5125 64.4453H51.6016V44.2635H42.5125V64.4453Z" fill="white"/>
<path d="M51.6031 64.8855H42.5179C42.2731 64.8855 42.0781 64.6905 42.0781 64.4458V44.264C42.0781 44.0192 42.2731 43.8242 42.5179 43.8242H51.6069C51.8517 43.8242 52.0467 44.0192 52.0467 44.264V64.4458C52.0467 64.6905 51.8517 64.8855 51.6069 64.8855H51.6031ZM42.9538 64.006H51.1634V44.7037H42.9576V64.006H42.9538Z" fill="#F0663F"/>
<path d="M68.2926 33.5242H55.9648V31.4058L62.1287 28.4883L68.2926 31.4058V33.5242Z" fill="white"/>
<path d="M68.291 33.9633H55.9632C55.7184 33.9633 55.5234 33.7683 55.5234 33.5235V31.4052C55.5234 31.2369 55.6229 31.0802 55.7758 31.0075L61.9397 28.0938C62.0582 28.0364 62.1959 28.0364 62.3144 28.0938L68.4783 31.0075C68.6313 31.0802 68.7307 31.2331 68.7307 31.4052V33.5235C68.7307 33.7683 68.5357 33.9633 68.291 33.9633ZM56.4029 33.0838H67.8512V31.6805L62.1271 28.9733L56.4029 31.6805V33.0838Z" fill="#F0663F"/>
<path d="M70.6144 33.5273H53.6445V36.051H70.6144V33.5273Z" fill="white"/>
<path d="M70.6127 36.4891H53.6429C53.3981 36.4891 53.2031 36.2941 53.2031 36.0494V33.5257C53.2031 33.2809 53.3981 33.0859 53.6429 33.0859H70.6127C70.8574 33.0859 71.0524 33.2809 71.0524 33.5257V36.0494C71.0524 36.2941 70.8574 36.4891 70.6127 36.4891ZM54.0826 35.6096H70.173V33.9654H54.0826V35.6096Z" fill="#F0663F"/>
<path d="M72.6476 36.0508H51.6055V64.446H72.6476V36.0508Z" fill="white"/>
<path d="M72.6459 64.8841H51.6038C51.3591 64.8841 51.1641 64.6891 51.1641 64.4443V36.0491C51.1641 35.8044 51.3591 35.6094 51.6038 35.6094H72.6459C72.8907 35.6094 73.0857 35.8044 73.0857 36.0491V64.4443C73.0857 64.6891 72.8907 64.8841 72.6459 64.8841ZM52.0435 64.0046H72.2062V36.4888H52.0435V64.0046Z" fill="#F0663F"/>
<g style="mix-blend-mode:multiply">
<path d="M51.6048 44.2656H49.7617V64.4474H51.6048V44.2656Z" fill="#FAE0B7"/>
</g>
<path d="M81.7375 44.2695H72.6484V64.4513H81.7375V44.2695Z" fill="white"/>
<path d="M81.7358 64.8855H72.6468C72.402 64.8855 72.207 64.6905 72.207 64.4458V44.264C72.207 44.0192 72.402 43.8242 72.6468 43.8242H81.7358C81.9806 43.8242 82.1756 44.0192 82.1756 44.264V64.4458C82.1756 64.6905 81.9806 64.8855 81.7358 64.8855ZM73.0865 64.006H81.2961V44.7037H73.0865V64.006Z" fill="#F0663F"/>
<g style="mix-blend-mode:multiply">
<path d="M72.6491 64.4453H74.4922V44.2635H72.6491V64.4453Z" fill="#FAE0B7"/>
</g>
<path d="M77.1926 66.4829C81.2621 66.4829 84.561 63.1839 84.561 59.1145C84.561 55.045 81.2621 51.7461 77.1926 51.7461C73.1232 51.7461 69.8242 55.045 69.8242 59.1145C69.8242 63.1839 73.1232 66.4829 77.1926 66.4829Z" fill="white"/>
<path d="M77.1909 66.9209C72.8854 66.9209 69.3828 63.4184 69.3828 59.1128C69.3828 54.8073 72.8854 51.3047 77.1909 51.3047C81.4965 51.3047 84.999 54.8073 84.999 59.1128C84.999 63.4184 81.4965 66.9209 77.1909 66.9209ZM77.1909 52.188C73.371 52.188 70.2623 55.2967 70.2623 59.1166C70.2623 62.9366 73.371 66.0453 77.1909 66.0453C81.0109 66.0453 84.1196 62.9366 84.1196 59.1166C84.1196 55.2967 81.0109 52.188 77.1909 52.188Z" fill="#F0663F"/>
<path d="M79.1389 58.9097C78.5195 58.47 77.8159 58.2903 77.1926 58.3515C76.5694 58.2903 75.862 58.47 75.2463 58.9097C74.0839 59.7357 73.671 61.1543 74.3286 62.0796C74.7531 62.6761 75.514 62.9209 76.3132 62.7985C76.8982 62.7105 77.4871 62.7105 78.0721 62.7985C78.8713 62.9209 79.636 62.6761 80.0566 62.0796C80.7143 61.1543 80.3014 59.7357 79.1389 58.9097Z" fill="#EB944D"/>
<path d="M78.473 63.2704C78.32 63.2704 78.1632 63.2589 78.0026 63.2322C77.4635 63.148 76.9167 63.148 76.3775 63.2322C75.3757 63.3851 74.4733 63.0486 73.9686 62.3336C73.1732 61.2132 73.6321 59.5155 74.9895 58.5519C75.6625 58.0739 76.4425 57.8483 77.192 57.9133C77.9415 57.8483 78.7215 58.0739 79.3945 58.5519C80.7519 59.5155 81.2108 61.2132 80.4154 62.3336C79.9872 62.9339 79.2836 63.2666 78.4768 63.2666L78.473 63.2704ZM77.1882 62.2915C77.5056 62.2915 77.8191 62.3145 78.1326 62.3642C78.798 62.4674 79.383 62.2647 79.6927 61.825C80.209 61.0985 79.8419 59.9552 78.8783 59.2669C78.3735 58.9075 77.7732 58.7354 77.2302 58.7889C77.1997 58.7889 77.1729 58.7889 77.1423 58.7889C76.5993 58.7354 75.999 58.9075 75.4943 59.2669C74.5307 59.9514 74.1636 61.0985 74.6798 61.825C74.9895 62.2647 75.5746 62.4636 76.2399 62.3642C76.5534 62.3145 76.8708 62.2915 77.1844 62.2915H77.1882Z" fill="#F0663F"/>
<path d="M75.6497 57.0962C76.1185 57.0962 76.4985 56.7161 76.4985 56.2473C76.4985 55.7785 76.1185 55.3984 75.6497 55.3984C75.1808 55.3984 74.8008 55.7785 74.8008 56.2473C74.8008 56.7161 75.1808 57.0962 75.6497 57.0962Z" fill="#EB944D"/>
<path d="M75.6515 57.5339C75.4909 57.5339 75.3303 57.5033 75.1774 57.4421C74.8562 57.3159 74.6077 57.0712 74.47 56.7577C74.3323 56.4403 74.3285 56.0923 74.4547 55.7711C74.5809 55.4499 74.8256 55.2014 75.1392 55.0637C75.4527 54.9261 75.8045 54.9223 76.1257 55.0485C76.4469 55.1746 76.6954 55.4194 76.8331 55.7329C76.9707 56.0465 76.9746 56.3982 76.8484 56.7194C76.7222 57.0406 76.4775 57.2892 76.1639 57.4268C75.9995 57.4995 75.8274 57.5339 75.6554 57.5339H75.6515ZM75.6515 55.84C75.598 55.84 75.5407 55.8514 75.4909 55.8744C75.3915 55.9164 75.315 55.9967 75.273 56.1C75.2309 56.2032 75.2348 56.3103 75.2768 56.4135C75.3648 56.62 75.6057 56.7156 75.8121 56.6277C76.0186 56.5397 76.1142 56.2988 76.0263 56.0923C75.9842 55.9929 75.9039 55.9164 75.8007 55.8744C75.751 55.8553 75.7013 55.8438 75.6515 55.8438V55.84Z" fill="#F0663F"/>
<path d="M78.7317 57.0962C79.2005 57.0962 79.5806 56.7161 79.5806 56.2473C79.5806 55.7785 79.2005 55.3984 78.7317 55.3984C78.2629 55.3984 77.8828 55.7785 77.8828 56.2473C77.8828 56.7161 78.2629 57.0962 78.7317 57.0962Z" fill="#EB944D"/>
<path d="M78.7297 57.5339C78.5577 57.5339 78.3818 57.4995 78.2212 57.4268C77.9038 57.2892 77.6629 57.0406 77.5367 56.7194C77.4106 56.3982 77.4144 56.0503 77.552 55.7329C77.6897 55.4155 77.9382 55.1746 78.2594 55.0485C78.5806 54.9223 78.9286 54.9261 79.246 55.0637C79.5595 55.2014 79.8042 55.4499 79.9304 55.7711C80.0566 56.0923 80.0528 56.4403 79.9151 56.7577C79.7775 57.075 79.5289 57.3159 79.2077 57.4421C79.0548 57.5033 78.8942 57.5339 78.7336 57.5339H78.7297ZM78.7297 55.84C78.68 55.84 78.6265 55.8514 78.5806 55.8706C78.4812 55.9088 78.4009 55.9891 78.355 56.0885C78.2671 56.295 78.3627 56.5359 78.5691 56.6238C78.7756 56.7118 79.0165 56.6162 79.1045 56.4097C79.1924 56.2032 79.0968 55.9623 78.8903 55.8744C78.8368 55.8514 78.7833 55.84 78.7297 55.84Z" fill="#F0663F"/>
<path d="M72.9934 58.7915C73.4622 58.7915 73.8423 58.4114 73.8423 57.9426C73.8423 57.4738 73.4622 57.0938 72.9934 57.0938C72.5246 57.0938 72.1445 57.4738 72.1445 57.9426C72.1445 58.4114 72.5246 58.7915 72.9934 58.7915Z" fill="#EB944D"/>
<path d="M72.9953 59.2331C72.8347 59.2331 72.6741 59.2025 72.5211 59.1413C72.1999 59.0152 71.9514 58.7704 71.8137 58.4569C71.6761 58.1395 71.6723 57.7916 71.7985 57.4704C71.9246 57.1492 72.1694 56.9006 72.4829 56.763C72.8003 56.6253 73.1482 56.6215 73.4694 56.7477C73.7906 56.8739 74.0392 57.1186 74.1768 57.4321C74.3145 57.7457 74.3183 58.0975 74.1921 58.4187C74.0659 58.7399 73.8212 58.9884 73.5077 59.1261C73.3433 59.1987 73.1712 59.2331 72.9991 59.2331H72.9953ZM72.9953 57.5392C72.9418 57.5392 72.8882 57.5507 72.8347 57.5736C72.7353 57.6157 72.6588 57.696 72.6167 57.7992C72.5747 57.9024 72.5785 58.0095 72.6206 58.1128C72.7085 58.3192 72.9494 58.4148 73.1559 58.3269C73.3624 58.2389 73.458 57.998 73.37 57.7916C73.305 57.6386 73.1521 57.5468 72.9953 57.5468V57.5392Z" fill="#F0663F"/>
<path d="M81.3957 58.7915C81.8646 58.7915 82.2446 58.4114 82.2446 57.9426C82.2446 57.4738 81.8646 57.0938 81.3957 57.0938C80.9269 57.0938 80.5469 57.4738 80.5469 57.9426C80.5469 58.4114 80.9269 58.7915 81.3957 58.7915Z" fill="#EB944D"/>
<path d="M81.3938 59.2331C81.2217 59.2331 81.0458 59.1987 80.8853 59.1261C80.5679 58.9884 80.327 58.7399 80.2008 58.4187C80.0746 58.0975 80.0784 57.7495 80.2161 57.4321C80.3537 57.1148 80.6023 56.8739 80.9235 56.7477C81.2447 56.6215 81.5926 56.6253 81.91 56.763C82.2274 56.9006 82.4683 57.1492 82.5945 57.4704C82.7207 57.7916 82.7168 58.1395 82.5792 58.4569C82.4415 58.7743 82.193 59.0152 81.8718 59.1413C81.7188 59.2025 81.5582 59.2331 81.3976 59.2331H81.3938ZM81.3938 57.5392C81.237 57.5392 81.0841 57.631 81.0191 57.7839C80.977 57.8833 80.9732 57.9942 81.0153 58.0975C81.0573 58.2007 81.1338 58.2772 81.2332 58.3231C81.4397 58.411 81.6806 58.3154 81.7685 58.1089C81.8565 57.9024 81.7609 57.6616 81.5544 57.5736C81.5009 57.5507 81.4473 57.5392 81.3938 57.5392Z" fill="#F0663F"/>
<path d="M57.5838 38.875H54.5898V40.7716H57.5838V38.875Z" fill="#FAE0B7"/>
<path d="M57.5822 41.2096H54.5882C54.3434 41.2096 54.1484 41.0146 54.1484 40.7699V38.8733C54.1484 38.6286 54.3434 38.4336 54.5882 38.4336H57.5822C57.8269 38.4336 58.0219 38.6286 58.0219 38.8733V40.7699C58.0219 41.0146 57.8269 41.2096 57.5822 41.2096ZM55.0279 40.3302H57.1424V39.3131H55.0279V40.3302Z" fill="#F0663F"/>
<path d="M63.6229 38.875H60.6289V40.7716H63.6229V38.875Z" fill="#FAE0B7"/>
<path d="M63.6251 41.2096H60.6311C60.3864 41.2096 60.1914 41.0146 60.1914 40.7699V38.8733C60.1914 38.6286 60.3864 38.4336 60.6311 38.4336H63.6251C63.8699 38.4336 64.0649 38.6286 64.0649 38.8733V40.7699C64.0649 41.0146 63.8699 41.2096 63.6251 41.2096ZM61.0709 40.3302H63.1854V39.3131H61.0709V40.3302Z" fill="#F0663F"/>
<path d="M69.662 38.875H66.668V40.7716H69.662V38.875Z" fill="#FAE0B7"/>
<path d="M69.6642 41.2096H66.6702C66.4255 41.2096 66.2305 41.0146 66.2305 40.7699V38.8733C66.2305 38.6286 66.4255 38.4336 66.6702 38.4336H69.6642C69.9089 38.4336 70.1039 38.6286 70.1039 38.8733V40.7699C70.1039 41.0146 69.9089 41.2096 69.6642 41.2096ZM67.1099 40.3302H69.2245V39.3131H67.1099V40.3302Z" fill="#F0663F"/>
<path d="M57.5838 43.5977H54.5898V45.4942H57.5838V43.5977Z" fill="#FAE0B7"/>
<path d="M57.5822 45.9323H54.5882C54.3434 45.9323 54.1484 45.7373 54.1484 45.4926V43.596C54.1484 43.3513 54.3434 43.1562 54.5882 43.1562H57.5822C57.8269 43.1562 58.0219 43.3513 58.0219 43.596V45.4926C58.0219 45.7373 57.8269 45.9323 57.5822 45.9323ZM55.0279 45.0528H57.1424V44.0357H55.0279V45.0528Z" fill="#F0663F"/>
<path d="M63.6229 43.5977H60.6289V45.4942H63.6229V43.5977Z" fill="#FAE0B7"/>
<path d="M63.6251 45.9323H60.6311C60.3864 45.9323 60.1914 45.7373 60.1914 45.4926V43.596C60.1914 43.3513 60.3864 43.1562 60.6311 43.1562H63.6251C63.8699 43.1562 64.0649 43.3513 64.0649 43.596V45.4926C64.0649 45.7373 63.8699 45.9323 63.6251 45.9323ZM61.0709 45.0528H63.1854V44.0357H61.0709V45.0528Z" fill="#F0663F"/>
<path d="M69.662 43.5977H66.668V45.4942H69.662V43.5977Z" fill="#FAE0B7"/>
<path d="M69.6642 45.9323H66.6702C66.4255 45.9323 66.2305 45.7373 66.2305 45.4926V43.596C66.2305 43.3513 66.4255 43.1562 66.6702 43.1562H69.6642C69.9089 43.1562 70.1039 43.3513 70.1039 43.596V45.4926C70.1039 45.7373 69.9089 45.9323 69.6642 45.9323ZM67.1099 45.0528H69.2245V44.0357H67.1099V45.0528Z" fill="#F0663F"/>
<path d="M57.5838 48.3203H54.5898V50.2169H57.5838V48.3203Z" fill="#FAE0B7"/>
<path d="M57.5822 50.655H54.5882C54.3434 50.655 54.1484 50.4599 54.1484 50.2152V48.3186C54.1484 48.0739 54.3434 47.8789 54.5882 47.8789H57.5822C57.8269 47.8789 58.0219 48.0739 58.0219 48.3186V50.2152C58.0219 50.4599 57.8269 50.655 57.5822 50.655ZM55.0279 49.7755H57.1424V48.7584H55.0279V49.7755Z" fill="#F0663F"/>
<path d="M63.6229 48.3203H60.6289V50.2169H63.6229V48.3203Z" fill="#FAE0B7"/>
<path d="M63.6251 50.655H60.6311C60.3864 50.655 60.1914 50.4599 60.1914 50.2152V48.3186C60.1914 48.0739 60.3864 47.8789 60.6311 47.8789H63.6251C63.8699 47.8789 64.0649 48.0739 64.0649 48.3186V50.2152C64.0649 50.4599 63.8699 50.655 63.6251 50.655ZM61.0709 49.7755H63.1854V48.7584H61.0709V49.7755Z" fill="#F0663F"/>
<path d="M69.662 48.3203H66.668V50.2169H69.662V48.3203Z" fill="#FAE0B7"/>
<path d="M69.6642 50.655H66.6702C66.4255 50.655 66.2305 50.4599 66.2305 50.2152V48.3186C66.2305 48.0739 66.4255 47.8789 66.6702 47.8789H69.6642C69.9089 47.8789 70.1039 48.0739 70.1039 48.3186V50.2152C70.1039 50.4599 69.9089 50.655 69.6642 50.655ZM67.1099 49.7755H69.2245V48.7584H67.1099V49.7755Z" fill="#F0663F"/>
<path d="M57.5838 53.043H54.5898V54.9396H57.5838V53.043Z" fill="#FAE0B7"/>
<path d="M57.5822 55.3776H54.5882C54.3434 55.3776 54.1484 55.1826 54.1484 54.9379V53.0413C54.1484 52.7966 54.3434 52.6016 54.5882 52.6016H57.5822C57.8269 52.6016 58.0219 52.7966 58.0219 53.0413V54.9379C58.0219 55.1826 57.8269 55.3776 57.5822 55.3776ZM55.0279 54.4981H57.1424V53.481H55.0279V54.4981Z" fill="#F0663F"/>
<path d="M63.6229 53.043H60.6289V54.9396H63.6229V53.043Z" fill="#FAE0B7"/>
<path d="M63.6251 55.3776H60.6311C60.3864 55.3776 60.1914 55.1826 60.1914 54.9379V53.0413C60.1914 52.7966 60.3864 52.6016 60.6311 52.6016H63.6251C63.8699 52.6016 64.0649 52.7966 64.0649 53.0413V54.9379C64.0649 55.1826 63.8699 55.3776 63.6251 55.3776ZM61.0709 54.4981H63.1854V53.481H61.0709V54.4981Z" fill="#F0663F"/>
<path d="M69.662 53.043H66.668V54.9396H69.662V53.043Z" fill="#FAE0B7"/>
<path d="M69.6642 55.3776H66.6702C66.4255 55.3776 66.2305 55.1826 66.2305 54.9379V53.0413C66.2305 52.7966 66.4255 52.6016 66.6702 52.6016H69.6642C69.9089 52.6016 70.1039 52.7966 70.1039 53.0413V54.9379C70.1039 55.1826 69.9089 55.3776 69.6642 55.3776ZM67.1099 54.4981H69.2245V53.481H67.1099V54.4981Z" fill="#F0663F"/>
<path d="M62.1297 57.9453H58.9062V64.4495H62.1297V57.9453Z" fill="#EB944D"/>
<path d="M62.128 64.8838H58.9046C58.6599 64.8838 58.4648 64.6887 58.4648 64.444V57.9436C58.4648 57.6989 58.6599 57.5039 58.9046 57.5039H62.128C62.3727 57.5039 62.5677 57.6989 62.5677 57.9436V64.444C62.5677 64.6887 62.3727 64.8838 62.128 64.8838ZM59.3443 64.0043H61.6883V58.3795H59.3443V64.0043Z" fill="#F0663F"/>
<path d="M65.3523 57.9453H62.1289V64.4495H65.3523V57.9453Z" fill="#EB944D"/>
<path d="M65.3507 64.8838H62.1272C61.8825 64.8838 61.6875 64.6887 61.6875 64.444V57.9436C61.6875 57.6989 61.8825 57.5039 62.1272 57.5039H65.3507C65.5954 57.5039 65.7904 57.6989 65.7904 57.9436V64.444C65.7904 64.6887 65.5954 64.8838 65.3507 64.8838ZM62.567 64.0043H64.9109V58.3795H62.567V64.0043Z" fill="#F0663F"/>
<path d="M62.9017 26.0175L63.4026 27.134L64.6185 27.2679C65.3489 27.3482 65.6433 28.2506 65.1003 28.7438L64.1941 29.5659L64.4426 30.7628C64.5918 31.4816 63.8232 32.0399 63.1846 31.6767L62.1216 31.0687L61.0586 31.6767C60.42 32.0399 59.6515 31.4816 59.8006 30.7628L60.0491 29.5659L59.1429 28.7438C58.5999 28.2506 58.8944 27.3443 59.6247 27.2679L60.8407 27.134L61.3416 26.0175C61.6436 25.3483 62.5958 25.3483 62.894 26.0175H62.9017Z" fill="white"/>
<path d="M60.6369 32.2363C60.3731 32.2363 60.1093 32.1522 59.8798 31.9877C59.463 31.6857 59.268 31.1848 59.3751 30.68L59.5739 29.7279L58.8551 29.074C58.4727 28.7261 58.335 28.2099 58.4956 27.7204C58.6562 27.231 59.073 26.8907 59.5854 26.8371L60.5528 26.7301L60.9505 25.843C61.1608 25.3726 61.612 25.082 62.1282 25.082C62.6444 25.082 63.0956 25.3726 63.3059 25.843L63.7036 26.7301L64.671 26.8371C65.1834 26.8945 65.6002 27.231 65.7608 27.7204C65.9214 28.2099 65.7837 28.7299 65.4013 29.0779L64.6825 29.7317L64.8813 30.6838C64.9845 31.1886 64.7934 31.6895 64.3766 31.9916C63.9598 32.2936 63.4245 32.3242 62.9771 32.068L62.132 31.5862L61.287 32.068C61.0843 32.1828 60.8625 32.2401 60.6446 32.2401L60.6369 32.2363ZM62.1244 25.9577C62.0632 25.9577 61.8491 25.9768 61.7496 26.2024L61.2487 27.3189C61.1837 27.4604 61.0499 27.5598 60.897 27.5751L59.681 27.709C59.4363 27.7357 59.3522 27.9307 59.333 27.9919C59.3139 28.0531 59.2642 28.2596 59.4477 28.424L60.354 29.2461C60.4687 29.3493 60.5222 29.5099 60.4878 29.6629L60.2393 30.8597C60.1896 31.1006 60.3502 31.2421 60.3999 31.2765C60.4496 31.3148 60.6331 31.4256 60.8472 31.2995L61.9102 30.6915C62.0441 30.615 62.2123 30.615 62.3462 30.6915L63.4092 31.2995C63.6233 31.4218 63.8068 31.3109 63.8565 31.2765C63.9062 31.2383 64.0668 31.1006 64.0171 30.8597L63.7686 29.6629C63.738 29.5099 63.7877 29.3532 63.9024 29.2461L64.8087 28.424C64.9922 28.2596 64.9425 28.0493 64.9234 27.9919C64.9042 27.9307 64.8201 27.7357 64.5754 27.709L63.3595 27.5751C63.2065 27.5598 63.0688 27.4604 63.0077 27.3189L62.5068 26.2024C62.4035 25.9768 62.1932 25.9577 62.132 25.9577H62.1244Z" fill="#F0663F"/>
<path d="M59.924 90.208C59.924 90.9227 59.572 91.488 58.868 91.904C58.1747 92.3093 57.2253 92.5387 56.02 92.592V94.448H61.732V95.472H49.108V94.448H54.804V92.592C53.6093 92.5387 52.6653 92.304 51.972 91.888C51.2893 91.472 50.948 90.912 50.948 90.208C50.948 89.44 51.348 88.848 52.148 88.432C52.948 88.016 54.0413 87.808 55.428 87.808C56.8147 87.808 57.908 88.016 58.708 88.432C59.5187 88.848 59.924 89.44 59.924 90.208ZM57.716 91.264C58.3347 91.0293 58.644 90.6773 58.644 90.208C58.644 89.7387 58.3347 89.3867 57.716 89.152C57.0973 88.9173 56.3347 88.8 55.428 88.8C54.532 88.8 53.7747 88.9173 53.156 89.152C52.5373 89.3867 52.228 89.7387 52.228 90.208C52.228 90.6773 52.5373 91.0293 53.156 91.264C53.7747 91.4987 54.532 91.616 55.428 91.616C56.3347 91.616 57.0973 91.4987 57.716 91.264ZM61.14 87.056H49.716V86.032H61.14V87.056ZM57.924 84.88H52.884V83.824H57.924V84.88ZM75.7558 97.024H66.0758V93.632H74.0118V92.304H66.0278V91.296H75.2438V94.576H67.2918V96H75.7558V97.024ZM72.5878 90.464H71.4038V87.216H69.4198V86.224H71.4038V83.392H72.5878V90.464ZM75.2438 90.624H74.0278V83.136H75.2438V90.624ZM65.3078 89.104H65.6438C67.4678 89.104 68.8864 88.992 69.8998 88.768L70.0598 89.776C68.7904 90.032 67.1051 90.16 65.0038 90.16H64.1078V83.952H69.3078V84.96H65.3078V86.384H68.6838V87.376H65.3078V89.104Z" fill="#262626"/>
</svg>
