<svg width="126" height="126" viewBox="0 0 126 126" fill="none" xmlns="http://www.w3.org/2000/svg">
<rect x="0.5" y="0.5" width="125" height="125" rx="15.5" stroke="#F0663F"/>
<g clip-path="url(#clip0_841_9136)">
<path d="M71.9478 24.4844H54.12C52.3586 24.4844 50.9336 25.9136 50.9336 27.6708V35.3509C50.9336 37.1123 52.3628 38.5373 54.12 38.5373H60.7618L63.0318 43.5271L65.3018 38.5373H71.9436C73.705 38.5373 75.13 37.108 75.13 35.3509V27.6708C75.13 25.9094 73.7008 24.4844 71.9436 24.4844H71.9478Z" fill="#FAE0B7"/>
<path d="M63.0351 44.0138C62.8459 44.0138 62.6735 43.9045 62.5937 43.7321L60.4498 39.0282H54.119C52.0929 39.0282 50.4492 37.3803 50.4492 35.3584V27.6698C50.4492 25.6478 52.0971 24 54.119 24H71.9469C73.9731 24 75.6167 25.6478 75.6167 27.6698V35.35C75.6167 37.3761 73.9689 39.0198 71.9469 39.0198H65.6161L63.4722 43.7237C63.3924 43.8961 63.22 44.0054 63.0309 44.0054L63.0351 44.0138ZM54.119 24.9668C52.6267 24.9668 51.4119 26.1817 51.4119 27.674V35.3542C51.4119 36.8465 52.6267 38.0613 54.119 38.0613H60.7609C60.95 38.0613 61.1224 38.1706 61.2023 38.343L63.0351 42.3659L64.8679 38.343C64.9477 38.1706 65.1201 38.0613 65.3093 38.0613H71.9511C73.4434 38.0613 74.6583 36.8465 74.6583 35.3542V27.6698C74.6583 26.1775 73.4434 24.9626 71.9511 24.9626H54.119V24.9668Z" fill="#F0663F"/>
<path d="M69.4821 67.7339H56.5221C54.4539 67.7339 52.6926 66.2248 52.3773 64.1818L51.4062 57.9141H74.598L73.6269 64.1818C73.3117 66.2248 71.5503 67.7339 69.4821 67.7339Z" fill="white"/>
<path d="M69.4807 67.9979H56.5207C54.3054 67.9979 52.4558 66.4089 52.1153 64.223L51.1442 57.9553C51.1316 57.8796 51.1526 57.7998 51.2031 57.7409C51.2535 57.6821 51.325 57.6484 51.4048 57.6484H74.5966C74.6722 57.6484 74.7479 57.6821 74.7984 57.7409C74.8488 57.7998 74.8698 57.8754 74.8572 57.9553L73.8862 64.223C73.5457 66.4089 71.6918 67.9979 69.4807 67.9979ZM51.7117 58.1781L52.6365 64.1431C52.935 66.0726 54.5702 67.4725 56.5207 67.4725H69.4765C71.427 67.4725 73.0622 66.0726 73.3607 64.1431L74.2855 58.1781H51.7117Z" fill="#F0663F"/>
<path d="M75.1125 56.0977H50.8867C50.6127 56.0977 50.3906 56.3197 50.3906 56.5937V57.4218C50.3906 57.6958 50.6127 57.9179 50.8867 57.9179H75.1125C75.3865 57.9179 75.6085 57.6958 75.6085 57.4218V56.5937C75.6085 56.3197 75.3865 56.0977 75.1125 56.0977Z" fill="#EB944D"/>
<path d="M74.6998 58.1816H51.2978C50.6505 58.1816 50.125 57.6561 50.125 57.0088C50.125 56.3614 50.6505 55.8359 51.2978 55.8359H74.6956C75.3429 55.8359 75.8684 56.3614 75.8684 57.0088C75.8684 57.6561 75.3429 58.1816 74.6956 58.1816H74.6998ZM51.302 56.3614C50.9447 56.3614 50.6547 56.6515 50.6547 57.0088C50.6547 57.3661 50.9447 57.6561 51.302 57.6561H74.6998C75.0571 57.6561 75.3471 57.3661 75.3471 57.0088C75.3471 56.6515 75.0571 56.3614 74.6998 56.3614H51.2978H51.302Z" fill="#F0663F"/>
<path d="M62.9943 55.0919C61.3759 55.0919 60.0013 53.9064 59.7659 52.3006L59.0807 49.4337C58.8032 47.542 60.2703 45.8438 62.183 45.8438H63.8056C65.7183 45.8438 67.1854 47.542 66.9079 49.4337L66.2227 52.3006C65.9873 53.9022 64.6127 55.0919 62.9943 55.0919Z" fill="white"/>
<path d="M62.9958 55.3553C61.2638 55.3553 59.7631 54.0648 59.5067 52.3539L58.8215 49.4996C58.8215 49.4996 58.8215 49.4828 58.8173 49.4786C58.6744 48.4991 58.9602 47.5112 59.6076 46.763C60.255 46.0147 61.1924 45.5859 62.1802 45.5859H63.8029C64.7907 45.5859 65.7282 46.0147 66.3755 46.763C67.0229 47.5112 67.3087 48.5033 67.1658 49.4786C67.1658 49.487 67.1658 49.4954 67.1616 49.4996L66.4764 52.3539C66.22 54.0648 64.7235 55.3553 62.9874 55.3553H62.9958ZM59.3428 49.3861L60.028 52.2404C60.028 52.2404 60.028 52.2572 60.0322 52.2614C60.2466 53.7243 61.5203 54.8256 63 54.8256C64.4797 54.8256 65.7534 53.7243 65.9678 52.2614C65.9678 52.253 65.9678 52.2446 65.972 52.2404L66.6572 49.3861C66.7749 48.5621 66.5311 47.734 65.9888 47.1035C65.4423 46.4729 64.652 46.1072 63.8155 46.1072H62.1929C61.3563 46.1072 60.566 46.4687 60.0196 47.1035C59.4773 47.734 59.2335 48.5621 59.3512 49.3861H59.3428Z" fill="#F0663F"/>
<path d="M63.7555 51.433C63.7555 51.8492 62.9989 52.1897 62.9989 52.1897C62.9989 52.1897 62.2422 51.8492 62.2422 51.433C62.2422 51.0169 62.5827 51.2228 62.9989 51.2228C63.415 51.2228 63.7555 51.0169 63.7555 51.433Z" fill="#F0663F"/>
<path d="M62.9981 52.4559C62.9602 52.4559 62.9224 52.4475 62.8888 52.4349C62.7374 52.3676 61.9766 51.9977 61.9766 51.4386C61.9766 51.3714 61.9766 51.1612 62.1363 51.0225C62.3002 50.8795 62.5104 50.909 62.7122 50.9384C62.8972 50.9636 63.0947 50.9636 63.2797 50.9384C63.4815 50.909 63.6917 50.8795 63.8556 51.0225C64.0154 51.1612 64.0154 51.3714 64.0154 51.4386C64.0154 51.9977 63.2545 52.3676 63.1032 52.4349C63.0695 52.4517 63.0317 52.4559 62.9939 52.4559H62.9981ZM62.5062 51.4386C62.5104 51.5605 62.75 51.7623 62.9981 51.8968C63.2461 51.7623 63.4857 51.5605 63.4899 51.4386C63.4479 51.4386 63.3974 51.4512 63.3554 51.4554C63.2545 51.468 63.1284 51.4891 62.9981 51.4891C62.8677 51.4891 62.7374 51.4722 62.6407 51.4554C62.5987 51.4512 62.5483 51.4428 62.5062 51.4386Z" fill="#F0663F"/>
<path d="M62.9953 53.7193C62.8482 53.7193 62.7305 53.6016 62.7305 53.4545V51.8781C62.7305 51.731 62.8482 51.6133 62.9953 51.6133C63.1424 51.6133 63.2601 51.731 63.2601 51.8781V53.4545C63.2601 53.6016 63.1424 53.7193 62.9953 53.7193Z" fill="#F0663F"/>
<path d="M62.4411 54.1513C61.9871 54.1513 61.6172 53.7813 61.6172 53.3273C61.6172 53.1802 61.7349 53.0625 61.882 53.0625C62.0291 53.0625 62.1469 53.1802 62.1469 53.3273C62.1469 53.4913 62.2772 53.6216 62.4411 53.6216C62.6051 53.6216 62.7354 53.4913 62.7354 53.3273C62.7354 53.1802 62.8531 53.0625 63.0002 53.0625C63.1473 53.0625 63.265 53.1802 63.265 53.3273C63.265 53.7813 62.8951 54.1513 62.4411 54.1513Z" fill="#F0663F"/>
<path d="M63.5544 54.1513C63.1004 54.1513 62.7305 53.7813 62.7305 53.3273C62.7305 53.1802 62.8482 53.0625 62.9953 53.0625C63.1424 53.0625 63.2601 53.1802 63.2601 53.3273C63.2601 53.4913 63.3904 53.6216 63.5544 53.6216C63.7183 53.6216 63.8487 53.4913 63.8487 53.3273C63.8487 53.1802 63.9664 53.0625 64.1135 53.0625C64.2606 53.0625 64.3783 53.1802 64.3783 53.3273C64.3783 53.7813 64.0084 54.1513 63.5544 54.1513Z" fill="#F0663F"/>
<path d="M61.8814 45.8594H60.6582C59.6997 45.8594 58.8506 46.4773 58.5605 47.3895L57.3372 51.2149C57.1817 51.6983 57.5432 52.1901 58.0519 52.1901C58.3798 52.1901 58.6698 51.9757 58.7665 51.6647L59.8132 48.3269" fill="white"/>
<path d="M58.0478 52.4542C57.7199 52.4542 57.4214 52.3028 57.228 52.038C57.0347 51.7732 56.98 51.4453 57.0809 51.1342L58.3042 47.3089C58.6321 46.2832 59.5779 45.5938 60.6541 45.5938H61.8773C62.0245 45.5938 62.1422 45.7115 62.1422 45.8586C62.1422 46.0057 62.0245 46.1234 61.8773 46.1234H60.6541C59.8091 46.1234 59.0651 46.6657 58.8086 47.4728L57.5854 51.2982C57.5391 51.4453 57.5643 51.605 57.6568 51.7311C57.7493 51.8572 57.8922 51.9287 58.0478 51.9287C58.2622 51.9287 58.4471 51.7942 58.5102 51.5882L59.5569 48.2505C59.5989 48.1118 59.7503 48.0319 59.889 48.0781C60.0277 48.1202 60.1076 48.2715 60.0613 48.4102L59.0146 51.748C58.8801 52.1725 58.4934 52.4584 58.0478 52.4584V52.4542Z" fill="#F0663F"/>
<path d="M61.7481 50.7953C61.8247 50.7953 61.8868 50.6767 61.8868 50.5305C61.8868 50.3842 61.8247 50.2656 61.7481 50.2656C61.6715 50.2656 61.6094 50.3842 61.6094 50.5305C61.6094 50.6767 61.6715 50.7953 61.7481 50.7953Z" fill="#F0663F"/>
<path d="M61.747 51.0554C61.5158 51.0554 61.3477 50.8326 61.3477 50.5258C61.3477 50.2189 61.5158 49.9961 61.747 49.9961C61.9782 49.9961 62.1464 50.2189 62.1464 50.5258C62.1464 50.8326 61.9782 51.0554 61.747 51.0554ZM61.7344 50.5258C61.7344 50.5258 61.7512 50.5258 61.7638 50.5258C61.7554 50.5258 61.747 50.5258 61.7344 50.5258Z" fill="#F0663F"/>
<path d="M64.252 50.7953C64.3286 50.7953 64.3907 50.6767 64.3907 50.5305C64.3907 50.3842 64.3286 50.2656 64.252 50.2656C64.1754 50.2656 64.1133 50.3842 64.1133 50.5305C64.1133 50.6767 64.1754 50.7953 64.252 50.7953Z" fill="#F0663F"/>
<path d="M64.2509 51.0554C64.0197 51.0554 63.8516 50.8326 63.8516 50.5258C63.8516 50.2189 64.0197 49.9961 64.2509 49.9961C64.4821 49.9961 64.6503 50.2189 64.6503 50.5258C64.6503 50.8326 64.4821 51.0554 64.2509 51.0554ZM64.2383 50.5258C64.2383 50.5258 64.2551 50.5258 64.2677 50.5258C64.2593 50.5258 64.2509 50.5258 64.2383 50.5258Z" fill="#F0663F"/>
<g style="mix-blend-mode:darken">
<path d="M66.9149 49.4317L66.2297 52.2986C65.9943 53.9002 64.6197 55.0898 63.0013 55.0898C62.459 55.0898 61.9462 54.9595 61.4922 54.7199C61.736 54.7787 61.9882 54.8082 62.2446 54.8082C63.8631 54.8082 65.2377 53.6227 65.4731 52.0211L66.1583 49.1542C66.3601 47.788 65.6496 46.5227 64.5188 45.9258C66.07 46.2831 67.1546 47.7838 66.9107 49.4359L66.9149 49.4317Z" fill="#FAE0B7"/>
</g>
<path d="M64.1172 45.8594H65.3405C66.2989 45.8594 67.148 46.4773 67.4381 47.3895L68.6614 51.2149C68.8169 51.6983 68.4554 52.1901 67.9467 52.1901C67.6189 52.1901 67.3288 51.9757 67.2321 51.6647L66.1854 48.3269" fill="white"/>
<path d="M67.9499 52.4545C67.5043 52.4545 67.1175 52.1686 66.983 51.744L65.9363 48.4063C65.8943 48.2676 65.9699 48.1205 66.1086 48.0742C66.2474 48.0322 66.3945 48.1079 66.4407 48.2466L67.4875 51.5843C67.5505 51.7861 67.7355 51.9248 67.9499 51.9248C68.1054 51.9248 68.2483 51.8533 68.3408 51.7272C68.4333 51.6011 68.4585 51.4414 68.4123 51.2942L67.189 47.4689C66.9326 46.6618 66.1885 46.1195 65.3436 46.1195H64.1203C63.9732 46.1195 63.8555 46.0018 63.8555 45.8547C63.8555 45.7075 63.9732 45.5898 64.1203 45.5898H65.3436C66.4197 45.5898 67.3655 46.2792 67.6934 47.3049L68.9167 51.1303C69.0176 51.4414 68.9629 51.7735 68.7696 52.0341C68.5762 52.2989 68.2777 52.4503 67.9499 52.4503V52.4545Z" fill="#F0663F"/>
<path d="M59.727 54.0977C58.8148 54.0977 57.8438 54.6063 57.8438 55.2284V56.3719C57.8438 56.7166 58.1254 56.9982 58.4701 56.9982C58.8148 56.9982 59.0964 56.7166 59.0964 56.3719C59.0964 56.7166 59.3781 56.9982 59.7228 56.9982C60.0675 56.9982 60.3491 56.7166 60.3491 56.3719C60.3491 56.7166 60.6308 56.9982 60.9755 56.9982C61.3202 56.9982 61.6018 56.7166 61.6018 56.3719V55.2284C61.6018 54.6021 60.6308 54.0977 59.7186 54.0977H59.727Z" fill="white"/>
<path d="M60.9825 57.2661C60.7387 57.2661 60.5159 57.1653 60.3562 57.0055C60.1964 57.1653 59.9736 57.2661 59.7298 57.2661C59.486 57.2661 59.2632 57.1653 59.1035 57.0055C58.9437 57.1653 58.7209 57.2661 58.4771 57.2661C57.9853 57.2661 57.5859 56.8668 57.5859 56.375V55.2316C57.5859 54.4076 58.7167 53.8359 59.734 53.8359C60.7513 53.8359 61.8821 54.4076 61.8821 55.2316V56.375C61.8821 56.8668 61.4828 57.2661 60.9909 57.2661H60.9825ZM60.3562 56.1101C60.5033 56.1101 60.621 56.2278 60.621 56.375C60.621 56.5767 60.7849 56.7365 60.9825 56.7365C61.1801 56.7365 61.344 56.5725 61.344 56.375V55.2316C61.344 54.8028 60.5285 54.3614 59.7256 54.3614C58.9227 54.3614 58.1072 54.7986 58.1072 55.2316V56.375C58.1072 56.5767 58.2711 56.7365 58.4687 56.7365C58.6663 56.7365 58.8302 56.5725 58.8302 56.375C58.8302 56.2278 58.9479 56.1101 59.0951 56.1101C59.2422 56.1101 59.3599 56.2278 59.3599 56.375C59.3599 56.5767 59.5238 56.7365 59.7214 56.7365C59.919 56.7365 60.0829 56.5725 60.0829 56.375C60.0829 56.2278 60.2006 56.1101 60.3478 56.1101H60.3562Z" fill="#F0663F"/>
<path d="M66.2733 54.0977C67.1855 54.0977 68.1565 54.6063 68.1565 55.2284V56.3719C68.1565 56.7166 67.8749 56.9982 67.5302 56.9982C67.1855 56.9982 66.9038 56.7166 66.9038 56.3719C66.9038 56.7166 66.6222 56.9982 66.2775 56.9982C65.9328 56.9982 65.6511 56.7166 65.6511 56.3719C65.6511 56.7166 65.3695 56.9982 65.0248 56.9982C64.6801 56.9982 64.3984 56.7166 64.3984 56.3719V55.2284C64.3984 54.6021 65.3695 54.0977 66.2817 54.0977H66.2733Z" fill="white"/>
<path d="M67.5255 57.2661C67.2817 57.2661 67.0589 57.1653 66.8991 57.0055C66.7394 57.1653 66.5166 57.2661 66.2728 57.2661C66.029 57.2661 65.8062 57.1653 65.6464 57.0055C65.4867 57.1653 65.2639 57.2661 65.0201 57.2661C64.5283 57.2661 64.1289 56.8668 64.1289 56.375V55.2316C64.1289 54.4076 65.2597 53.8359 66.277 53.8359C67.2943 53.8359 68.4251 54.4076 68.4251 55.2316V56.375C68.4251 56.8668 68.0257 57.2661 67.5339 57.2661H67.5255ZM67.164 56.375C67.164 56.5767 67.3279 56.7365 67.5255 56.7365C67.7231 56.7365 67.887 56.5725 67.887 56.375V55.2316C67.887 54.8028 67.0715 54.3614 66.2686 54.3614C65.4657 54.3614 64.6502 54.7986 64.6502 55.2316V56.375C64.6502 56.5767 64.8141 56.7365 65.0117 56.7365C65.2093 56.7365 65.3732 56.5725 65.3732 56.375C65.3732 56.2278 65.4909 56.1101 65.638 56.1101C65.7852 56.1101 65.9029 56.2278 65.9029 56.375C65.9029 56.5767 66.0668 56.7365 66.2644 56.7365C66.462 56.7365 66.6259 56.5725 66.6259 56.375C66.6259 56.2278 66.7436 56.1101 66.8907 56.1101C67.0379 56.1101 67.1556 56.2278 67.1556 56.375H67.164Z" fill="#F0663F"/>
<path d="M53.9042 54.4099C54.3453 54.4099 54.7029 54.0523 54.7029 53.6112C54.7029 53.1701 54.3453 52.8125 53.9042 52.8125C53.4631 52.8125 53.1055 53.1701 53.1055 53.6112C53.1055 54.0523 53.4631 54.4099 53.9042 54.4099Z" fill="white"/>
<path d="M53.9034 54.6739C53.3149 54.6739 52.8398 54.1947 52.8398 53.6104C52.8398 53.0261 53.3191 52.5469 53.9034 52.5469C54.4877 52.5469 54.9669 53.0261 54.9669 53.6104C54.9669 54.1947 54.4877 54.6739 53.9034 54.6739ZM53.9034 53.0723C53.6091 53.0723 53.3695 53.3119 53.3695 53.6062C53.3695 53.9005 53.6091 54.1401 53.9034 54.1401C54.1976 54.1401 54.4372 53.9005 54.4372 53.6062C54.4372 53.3119 54.1976 53.0723 53.9034 53.0723Z" fill="#F0663F"/>
<path d="M55.048 50.5608C55.3614 50.5608 55.6155 50.3067 55.6155 49.9933C55.6155 49.6799 55.3614 49.4258 55.048 49.4258C54.7345 49.4258 54.4805 49.6799 54.4805 49.9933C54.4805 50.3067 54.7345 50.5608 55.048 50.5608Z" fill="white"/>
<path d="M55.0469 50.8242C54.5887 50.8242 54.2188 50.4501 54.2188 49.9961C54.2188 49.5421 54.5929 49.168 55.0469 49.168C55.5009 49.168 55.875 49.5421 55.875 49.9961C55.875 50.4501 55.5009 50.8242 55.0469 50.8242ZM55.0469 49.6934C54.8787 49.6934 54.7442 49.8279 54.7442 49.9961C54.7442 50.1642 54.8787 50.2988 55.0469 50.2988C55.215 50.2988 55.3495 50.1642 55.3495 49.9961C55.3495 49.8279 55.215 49.6934 55.0469 49.6934Z" fill="#F0663F"/>
<path d="M71.2942 47.0416C72.1579 47.0416 72.858 46.3415 72.858 45.4778C72.858 44.6142 72.1579 43.9141 71.2942 43.9141C70.4306 43.9141 69.7305 44.6142 69.7305 45.4778C69.7305 46.3415 70.4306 47.0416 71.2942 47.0416Z" fill="white"/>
<path d="M71.2932 47.3051C70.2843 47.3051 69.4688 46.4853 69.4688 45.4807C69.4688 44.476 70.2885 43.6562 71.2932 43.6562C72.2978 43.6562 73.1176 44.476 73.1176 45.4807C73.1176 46.4853 72.2978 47.3051 71.2932 47.3051ZM71.2932 44.1817C70.5785 44.1817 69.9942 44.7618 69.9942 45.4807C69.9942 46.1995 70.5743 46.7796 71.2932 46.7796C72.012 46.7796 72.5921 46.1995 72.5921 45.4807C72.5921 44.7618 72.012 44.1817 71.2932 44.1817Z" fill="#F0663F"/>
<g style="mix-blend-mode:darken">
<path d="M74.595 57.9141L73.6198 64.1818C73.3045 66.2248 71.5432 67.7339 69.475 67.7339H68.5039C70.261 67.7339 71.7576 66.2248 72.0266 64.1818L72.8547 57.9141H74.5908H74.595Z" fill="#FAE0B7"/>
</g>
<path d="M70.6845 34.6016H55.3789L55.6774 32.5081C55.732 32.2181 55.8833 31.97 56.0977 31.7935C56.3121 31.6169 56.5854 31.5118 56.8796 31.5118C57.4892 31.5118 58.0062 31.062 58.0903 30.4525L58.1323 30.1498C58.271 29.1241 59.1454 28.3633 60.1795 28.3633H65.8965C66.9306 28.3633 67.805 29.1284 67.9437 30.1498L67.9858 30.4525C68.0656 31.0578 68.5869 31.5118 69.1964 31.5118C69.806 31.5118 70.2894 31.9322 70.3987 32.5081L70.6971 34.6016H70.6845Z" fill="white"/>
<path d="M70.683 34.8701H55.3774C55.2976 34.8701 55.2261 34.8365 55.1756 34.7776C55.1252 34.7188 55.1 34.6389 55.1126 34.5632L55.4111 32.4698C55.4741 32.1167 55.6591 31.8098 55.9239 31.587C56.1929 31.3642 56.5334 31.2423 56.8781 31.2423C57.3532 31.2423 57.7567 30.8892 57.8198 30.4184L57.8618 30.1157C58.0173 28.9639 59.0136 28.0938 60.1738 28.0938H65.8908C67.0511 28.0938 68.0473 28.9639 68.2029 30.1157L68.2449 30.4184C68.308 30.8892 68.7157 31.2423 69.1865 31.2423C69.9054 31.2423 70.5233 31.7552 70.6536 32.4614L70.9521 34.5632C70.9647 34.6389 70.9395 34.7188 70.889 34.7776C70.8386 34.8365 70.7629 34.8701 70.6872 34.8701H70.683ZM55.6843 34.332H70.372L70.1198 32.5455C70.0399 32.1041 69.6447 31.7804 69.1865 31.7804C68.4425 31.7804 67.8077 31.2255 67.711 30.4899L67.669 30.1872C67.5471 29.3002 66.7862 28.6318 65.8908 28.6318H60.1738C59.2784 28.6318 58.5134 29.3002 58.3957 30.1872L58.3536 30.4899C58.2527 31.2255 57.618 31.7804 56.8781 31.7804C56.6511 31.7804 56.441 31.8561 56.2686 31.999C56.1005 32.1419 55.9828 32.3395 55.9407 32.5539L55.6885 34.3278L55.6843 34.332Z" fill="#F0663F"/>
<path d="M60.1738 29.1995H62.6162V31.2215H58.7109C58.816 31.0197 58.8833 30.8011 58.9169 30.5657L58.959 30.263C59.043 29.6535 59.5643 29.1953 60.178 29.1953L60.1738 29.1995Z" fill="#FAE0B7"/>
<path d="M62.6168 31.4897H58.7116C58.6191 31.4897 58.5308 31.4393 58.4804 31.3594C58.4299 31.2795 58.4299 31.1787 58.472 31.0946C58.5644 30.918 58.6233 30.7289 58.6485 30.5271L58.6905 30.2286C58.7914 29.4888 59.4304 28.9297 60.1744 28.9297H62.6168C62.7639 28.9297 62.8858 29.0516 62.8858 29.1987V31.2207C62.8858 31.3678 62.7639 31.4897 62.6168 31.4897ZM59.1067 30.9517H62.3478V29.4678H60.1744C59.6952 29.4678 59.2875 29.8251 59.2244 30.3001L59.1866 30.5986C59.1698 30.7163 59.1445 30.834 59.1109 30.9475L59.1067 30.9517Z" fill="#F0663F"/>
<path d="M67.3544 31.2212H63.4492V29.1992H65.8916C66.5011 29.1992 67.0266 29.6574 67.1106 30.2628L67.1527 30.5654C67.1863 30.7966 67.2536 31.0194 67.3544 31.217V31.2212Z" fill="#FAE0B7"/>
<path d="M67.354 31.4897H63.4487C63.3016 31.4897 63.1797 31.3678 63.1797 31.2207V29.1987C63.1797 29.0516 63.3016 28.9297 63.4487 28.9297H65.8911C66.6351 28.9297 67.2741 29.4888 67.375 30.2244L67.417 30.5271C67.4422 30.7247 67.5053 30.918 67.5936 31.0946C67.6356 31.1787 67.6314 31.2753 67.5809 31.3552C67.5305 31.4351 67.4464 31.4855 67.3497 31.4855L67.354 31.4897ZM63.7178 30.9517H66.9588C66.9252 30.8382 66.9 30.7205 66.8831 30.6028L66.8411 30.3001C66.7738 29.8251 66.3661 29.4678 65.8911 29.4678H63.7178V30.9517Z" fill="#F0663F"/>
<path d="M70.5245 34.0586H55.5384C55.2389 34.0586 54.9961 34.3014 54.9961 34.6009V34.6051C54.9961 34.9046 55.2389 35.1473 55.5384 35.1473H70.5245C70.824 35.1473 71.0668 34.9046 71.0668 34.6051V34.6009C71.0668 34.3014 70.824 34.0586 70.5245 34.0586Z" fill="white"/>
<path d="M70.5237 35.4156H55.5418C55.092 35.4156 54.7305 35.0499 54.7305 34.6043C54.7305 34.1587 55.0962 33.793 55.5418 33.793H70.5237C70.9735 33.793 71.335 34.1587 71.335 34.6043C71.335 35.0499 70.9693 35.4156 70.5237 35.4156ZM55.5418 34.3268C55.3904 34.3268 55.2685 34.4487 55.2685 34.6001C55.2685 34.7514 55.3904 34.8733 55.5418 34.8733H70.5237C70.6751 34.8733 70.797 34.7514 70.797 34.6001C70.797 34.4487 70.6751 34.3268 70.5237 34.3268H55.5418Z" fill="#F0663F"/>
<path d="M63.4267 28.3656H64.4019L64.2884 27.8359H63.4141L63.4267 28.3656Z" fill="white"/>
<path d="M64.4017 28.6338H63.4265C63.2793 28.6338 63.1616 28.5161 63.1574 28.3732L63.1406 27.8436C63.1406 27.7721 63.1658 27.7006 63.2163 27.6502C63.2667 27.5997 63.3382 27.5703 63.4097 27.5703H64.284C64.4101 27.5703 64.5194 27.6586 64.5489 27.7805L64.6666 28.3102C64.6834 28.39 64.6666 28.4741 64.6119 28.5372C64.5615 28.6002 64.4858 28.638 64.4017 28.638V28.6338Z" fill="#F0663F"/>
<path d="M63.3984 27.3047L63.4153 27.8344H64.2896L64.1719 27.3047H63.3984Z" fill="#FAE0B7"/>
<path d="M64.2891 28.1026H63.4148C63.2676 28.1026 63.1499 27.9849 63.1457 27.842L63.1289 27.3123C63.1289 27.2408 63.1541 27.1694 63.2046 27.1189C63.255 27.0685 63.3265 27.0391 63.3979 27.0391H64.1714C64.2975 27.0391 64.4068 27.1273 64.4363 27.2492L64.554 27.7789C64.5708 27.8588 64.554 27.9429 64.4993 28.0059C64.4489 28.069 64.3732 28.1068 64.2891 28.1068V28.1026Z" fill="#F0663F"/>
<path d="M61.774 27.8359L61.6562 28.3656H62.6315L62.6483 27.8359H61.774Z" fill="white"/>
<path d="M62.6325 28.6341H61.6573C61.5774 28.6341 61.4975 28.5963 61.4471 28.5333C61.3966 28.4702 61.3756 28.3861 61.3924 28.3063L61.5101 27.7766C61.5353 27.6547 61.6446 27.5664 61.775 27.5664H62.6493C62.7208 27.5664 62.7922 27.5958 62.8427 27.6463C62.8931 27.6967 62.9226 27.7682 62.9184 27.8396L62.9015 28.3693C62.9015 28.5164 62.7796 28.6299 62.6325 28.6299V28.6341Z" fill="#F0663F"/>
<path d="M62.6646 27.3047H61.8911L61.7734 27.8344H62.6478L62.6646 27.3047Z" fill="#FAE0B7"/>
<path d="M62.6488 28.1029H61.7744C61.6946 28.1029 61.6147 28.0651 61.5643 28.002C61.5138 27.9389 61.4928 27.8549 61.5096 27.775L61.6273 27.2453C61.6525 27.1234 61.7618 27.0352 61.8921 27.0352H62.6656C62.7371 27.0352 62.8085 27.0646 62.859 27.115C62.9094 27.1655 62.9389 27.2369 62.9347 27.3084L62.9178 27.8381C62.9178 27.9852 62.7959 28.0987 62.6488 28.0987V28.1029Z" fill="#F0663F"/>
<path d="M62.6496 27.8359L62.6328 28.3656H63.4273L63.4147 27.8359H62.6496Z" fill="#FAE0B7"/>
<path d="M63.4272 28.6338H62.6327C62.5613 28.6338 62.4898 28.6044 62.4393 28.554C62.3889 28.5035 62.3595 28.4321 62.3637 28.3606L62.3805 27.8309C62.3805 27.6838 62.5024 27.5703 62.6495 27.5703H63.4146C63.5617 27.5703 63.6794 27.688 63.6836 27.8309L63.7005 28.3606C63.7005 28.4321 63.6752 28.5035 63.6248 28.554C63.5743 28.6044 63.5029 28.6338 63.4314 28.6338H63.4272Z" fill="#F0663F"/>
<path d="M63.4135 27.8344L63.3967 27.3047H62.6653L62.6484 27.8344H63.4135Z" fill="white"/>
<path d="M63.4134 28.1026H62.6483C62.5769 28.1026 62.5054 28.0732 62.455 28.0227C62.4045 27.9723 62.3751 27.9008 62.3793 27.8294L62.3961 27.2997C62.3961 27.1526 62.518 27.0391 62.6652 27.0391H63.3966C63.5437 27.0391 63.6614 27.1568 63.6656 27.2997L63.6824 27.8294C63.6824 27.9008 63.6572 27.9723 63.6068 28.0227C63.5563 28.0732 63.4849 28.1026 63.4134 28.1026Z" fill="#F0663F"/>
<path d="M58.0069 36.5373C58.9147 36.5373 59.6506 35.8014 59.6506 34.8936C59.6506 33.9859 58.9147 33.25 58.0069 33.25C57.0992 33.25 56.3633 33.9859 56.3633 34.8936C56.3633 35.8014 57.0992 36.5373 58.0069 36.5373Z" fill="#FAE0B7"/>
<path d="M58.0064 36.8058C56.9513 36.8058 56.0938 35.9483 56.0938 34.8931C56.0938 33.838 56.9513 32.9805 58.0064 32.9805C59.0616 32.9805 59.9191 33.838 59.9191 34.8931C59.9191 35.9483 59.0616 36.8058 58.0064 36.8058ZM58.0064 33.5143C57.2498 33.5143 56.6318 34.1323 56.6318 34.8889C56.6318 35.6456 57.2498 36.2635 58.0064 36.2635C58.7631 36.2635 59.381 35.6456 59.381 34.8889C59.381 34.1323 58.7631 33.5143 58.0064 33.5143Z" fill="#F0663F"/>
<path d="M58.0044 35.5048C58.3433 35.5048 58.6181 35.23 58.6181 34.8911C58.6181 34.5521 58.3433 34.2773 58.0044 34.2773C57.6654 34.2773 57.3906 34.5521 57.3906 34.8911C57.3906 35.23 57.6654 35.5048 58.0044 35.5048Z" fill="white"/>
<path d="M58.0039 35.7734C57.5162 35.7734 57.1211 35.3782 57.1211 34.8906C57.1211 34.403 57.5162 34.0078 58.0039 34.0078C58.4915 34.0078 58.8866 34.403 58.8866 34.8906C58.8866 35.3782 58.4915 35.7734 58.0039 35.7734ZM58.0039 34.5417C57.8147 34.5417 57.6592 34.6972 57.6592 34.8864C57.6592 35.0755 57.8147 35.2311 58.0039 35.2311C58.193 35.2311 58.3486 35.0755 58.3486 34.8864C58.3486 34.6972 58.193 34.5417 58.0039 34.5417Z" fill="#F0663F"/>
<path d="M67.8468 36.5373C68.7545 36.5373 69.4904 35.8014 69.4904 34.8936C69.4904 33.9859 68.7545 33.25 67.8468 33.25C66.939 33.25 66.2031 33.9859 66.2031 34.8936C66.2031 35.8014 66.939 36.5373 67.8468 36.5373Z" fill="#FAE0B7"/>
<path d="M67.8463 36.8058C66.7911 36.8058 65.9336 35.9483 65.9336 34.8931C65.9336 33.838 66.7911 32.9805 67.8463 32.9805C68.9014 32.9805 69.7589 33.838 69.7589 34.8931C69.7589 35.9483 68.9014 36.8058 67.8463 36.8058ZM67.8463 33.5143C67.0896 33.5143 66.4717 34.1323 66.4717 34.8889C66.4717 35.6456 67.0896 36.2635 67.8463 36.2635C68.6029 36.2635 69.2209 35.6456 69.2209 34.8889C69.2209 34.1323 68.6029 33.5143 67.8463 33.5143Z" fill="#F0663F"/>
<path d="M67.8481 35.5048C68.1871 35.5048 68.4619 35.23 68.4619 34.8911C68.4619 34.5521 68.1871 34.2773 67.8481 34.2773C67.5092 34.2773 67.2344 34.5521 67.2344 34.8911C67.2344 35.23 67.5092 35.5048 67.8481 35.5048Z" fill="white"/>
<path d="M67.8476 35.7734C67.36 35.7734 66.9648 35.3782 66.9648 34.8906C66.9648 34.403 67.36 34.0078 67.8476 34.0078C68.3352 34.0078 68.7304 34.403 68.7304 34.8906C68.7304 35.3782 68.3352 35.7734 67.8476 35.7734ZM67.8476 34.5417C67.6585 34.5417 67.5029 34.6972 67.5029 34.8864C67.5029 35.0755 67.6585 35.2311 67.8476 35.2311C68.0368 35.2311 68.1923 35.0755 68.1923 34.8864C68.1923 34.6972 68.0368 34.5417 67.8476 34.5417Z" fill="#F0663F"/>
</g>
<path d="M47.988 87.824H45.86V91.488H44.644V83.136H45.86V86.816H47.988V87.824ZM44.804 92.496C45.604 92.9653 46.004 93.6107 46.004 94.432C46.004 95.2533 45.5987 95.8987 44.788 96.368C43.988 96.848 42.8627 97.088 41.412 97.088C39.9613 97.088 38.8413 96.848 38.052 96.368C37.2627 95.8987 36.868 95.2533 36.868 94.432C36.868 93.6213 37.2627 92.976 38.052 92.496C38.8413 92.016 39.9613 91.776 41.412 91.776C42.884 91.776 44.0147 92.016 44.804 92.496ZM41.412 92.768C40.388 92.768 39.5827 92.9173 38.996 93.216C38.42 93.5147 38.132 93.92 38.132 94.432C38.132 94.944 38.42 95.3493 38.996 95.648C39.5827 95.9467 40.388 96.096 41.412 96.096C42.4787 96.096 43.3 95.9467 43.876 95.648C44.4627 95.3493 44.756 94.944 44.756 94.432C44.756 93.92 44.4627 93.5147 43.876 93.216C43.3 92.9173 42.4787 92.768 41.412 92.768ZM42.132 90.544H35.572V83.888H36.788V86.192H40.9V83.888H42.132V90.544ZM40.9 89.536V87.2H36.788V89.536H40.9ZM60.4918 88.832H51.0358V83.904H60.4918V88.832ZM59.2758 87.824V84.912H52.2518V87.824H59.2758ZM56.3958 94.16H55.1798V91.408H49.4518V90.4H62.0758V91.408H56.3958V94.16ZM60.6518 96.672H51.0198V92.72H52.2358V95.664H60.6518V96.672ZM76.4195 91.2H63.7955V90.176H69.4755V88.544H65.4115V83.776H74.8035V88.544H70.6915V90.176H76.4195V91.2ZM73.5875 87.536V84.768H66.6275V87.536H73.5875ZM65.1555 92.592H74.8515V97.216H73.6355V93.6H65.1555V92.592ZM89.2433 85.952C89.2433 86.912 88.6619 87.616 87.4993 88.064V90.08H90.7633V91.104H78.1393V90.08H81.3553V88.048C80.2246 87.5893 79.6593 86.8907 79.6593 85.952C79.6593 85.1413 80.0806 84.5067 80.9233 84.048C81.7659 83.5893 82.9393 83.36 84.4433 83.36C85.9473 83.36 87.1206 83.5893 87.9633 84.048C88.8166 84.5067 89.2433 85.1413 89.2433 85.952ZM87.9953 85.952C87.9953 85.4293 87.6753 85.0347 87.0353 84.768C86.4059 84.4907 85.5419 84.352 84.4433 84.352C83.3446 84.352 82.4806 84.4907 81.8513 84.768C81.2219 85.0347 80.9073 85.4293 80.9073 85.952C80.9073 86.464 81.2219 86.8587 81.8513 87.136C82.4806 87.4027 83.3446 87.536 84.4433 87.536C85.5419 87.536 86.4059 87.4027 87.0353 87.136C87.6753 86.8587 87.9953 86.464 87.9953 85.952ZM79.5793 92.56H89.1473V97.216H87.9313V93.568H79.5793V92.56ZM84.4433 88.528C83.7286 88.528 83.1046 88.4747 82.5713 88.368V90.08H86.2833V88.384C85.7393 88.48 85.1259 88.528 84.4433 88.528Z" fill="#262626"/>
<defs>
<clipPath id="clip0_841_9136">
<rect width="25.7476" height="44" fill="white" transform="translate(50.125 24)"/>
</clipPath>
</defs>
</svg>
