<svg width="126" height="126" viewBox="0 0 126 126" fill="none" xmlns="http://www.w3.org/2000/svg">
<rect x="0.5" y="0.5" width="125" height="125" rx="15.5" stroke="#F0663F"/>
<g clip-path="url(#clip0_841_9142)">
<path d="M69.7484 24.543C68.5905 36.1672 59.1991 44.7514 59.0859 44.8533L60.4098 46.328C60.9076 45.8792 70.7441 36.9064 71.7775 24.4336" fill="#EB944D"/>
<path d="M60.4062 46.76C60.2855 46.76 60.1686 46.711 60.0819 46.6167L58.758 45.142C58.5996 44.9647 58.6147 44.6894 58.792 44.531C58.8863 44.448 68.172 35.9731 69.3148 24.4998C69.3375 24.2622 69.5525 24.0887 69.7901 24.1113C70.0277 24.1339 70.2012 24.3489 70.1786 24.5865C69.1225 35.1886 61.3567 43.2562 59.6858 44.878L60.4326 45.7115C62.194 44.0369 70.4086 35.6487 71.3402 24.3979C71.3591 24.1603 71.5665 23.9793 71.8079 24.0019C72.0455 24.0208 72.2228 24.232 72.2039 24.4696C71.1554 37.1536 61.1228 46.2697 60.6929 46.6506C60.6099 46.7261 60.5081 46.76 60.4025 46.76H60.4062Z" fill="#F0663F"/>
<path d="M79.159 46.0761C78.9176 47.5546 78.0728 48.8181 77.062 49.844C75.0554 51.8807 72.3813 52.9858 72.3813 52.9858L71.6836 52.3635C71.6836 52.3635 74.6406 50.7416 75.9342 47.2642C76.6546 45.3256 76.8583 42.8099 75.7381 39.6719C75.7381 39.6719 79.8756 41.6784 79.1552 46.0761H79.159Z" fill="white"/>
<path d="M72.3803 53.4169C72.2747 53.4169 72.1728 53.3792 72.0936 53.3075L71.3959 52.6852C71.2903 52.5909 71.2374 52.4514 71.2525 52.3118C71.2676 52.1723 71.3506 52.0478 71.4751 51.9799C71.5015 51.9648 74.3113 50.3845 75.5296 47.1107C76.3443 44.9232 76.2764 42.4678 75.3335 39.8164C75.2731 39.6504 75.3221 39.4656 75.4541 39.3487C75.5862 39.2318 75.7747 39.2053 75.9331 39.2808C75.9784 39.3034 80.3535 41.4834 79.5916 46.1452C79.3653 47.5407 78.6186 48.8872 77.3739 50.1469C75.3297 52.2213 72.6631 53.3377 72.55 53.383C72.4972 53.4056 72.4406 53.4169 72.384 53.4169H72.3803ZM72.3991 52.4212L72.4595 52.474C73.1534 52.1534 75.1788 51.1351 76.7516 49.5397C77.868 48.4119 78.5318 47.2201 78.7279 46.0094C79.1768 43.2636 77.6002 41.5325 76.5064 40.6838C77.1589 43.0977 77.1024 45.3607 76.3367 47.4162C75.3184 50.1544 73.3345 51.7762 72.3953 52.4212H72.3991Z" fill="#F0663F"/>
<g style="mix-blend-mode:darken">
<path d="M77.062 49.8454C75.0554 51.8821 72.3813 52.9872 72.3813 52.9872L71.6836 52.3649C71.6836 52.3649 74.6406 50.7431 75.9342 47.2656C76.3567 47.9672 76.7753 48.8346 77.062 49.8454Z" fill="#FAE0B7"/>
</g>
<path d="M56.1109 59.2149C54.9681 58.5172 53.9158 57.9288 53.1426 56.8388C50.1404 52.607 53.5952 47.553 53.5952 47.553L47.8811 46.6478C47.1344 46.5234 46.6365 45.8067 46.7836 45.06L46.8213 44.8601C46.8364 44.7959 46.8515 44.7318 46.8741 44.6677C46.9194 44.5432 46.9835 44.4263 47.0552 44.3207C47.2513 44.0492 47.5417 43.853 47.8849 43.7776L47.9377 43.7663L48.9862 43.5438C49.5067 43.4344 49.9782 43.1817 50.3553 42.8309C50.7325 42.4802 51.0154 42.0276 51.1662 41.5184C51.4303 40.5981 52.128 39.8777 53.0332 39.576L54.8587 38.9688H54.9228C56.9897 38.9688 58.7887 40.3793 59.2904 42.3859L59.7316 44.2868C60.3389 46.893 62.6622 48.7373 65.3401 48.7373H72.5741C74.7617 48.7373 76.5381 50.51 76.5381 52.7013C76.5381 54.8889 74.7654 56.6653 72.5741 56.6653H72.0008C70.2621 56.6653 64.8498 57.1556 63.3826 58.0834C61.9154 59.0113 60.2106 59.2187 58.4757 59.2187H56.1071" fill="white"/>
<path d="M58.4812 59.6487H56.1126C56.0334 59.6487 55.9542 59.6261 55.8863 59.5846L55.6185 59.4224C54.5587 58.7774 53.5554 58.1664 52.7898 57.0877C50.2213 53.4632 52.0543 49.3672 52.8878 47.8774L47.8112 47.074C47.3284 46.9948 46.9135 46.727 46.6382 46.331C46.3629 45.9312 46.2648 45.4522 46.3591 44.977L46.3968 44.7809C46.4157 44.6903 46.4383 44.6149 46.4609 44.5357C46.5213 44.366 46.6005 44.2151 46.7023 44.0718C46.9701 43.7022 47.3586 43.4495 47.7961 43.3552L48.9012 43.1213C49.3349 43.0308 49.7347 42.8234 50.0666 42.5141C50.391 42.2124 50.6286 41.8239 50.7568 41.3939C51.0586 40.3454 51.8619 39.5081 52.9029 39.1611L54.7284 38.5539C54.7736 38.5388 54.8189 38.5312 54.8642 38.5312H54.9283C57.1988 38.5312 59.1676 40.0701 59.7145 42.2765L60.1596 44.1812C60.7253 46.6026 62.8563 48.296 65.3456 48.296H72.5796C75.0047 48.296 76.9773 50.2686 76.9773 52.6938C76.9773 55.1189 75.0047 57.0915 72.5796 57.0915H72.0063C70.1544 57.0915 64.9307 57.6158 63.6182 58.4455C61.9322 59.5091 59.9861 59.6449 58.4812 59.6449V59.6487ZM56.237 58.7812H58.4812C59.8729 58.7812 61.6607 58.6605 63.158 57.7138C64.8025 56.6729 70.4411 56.2278 72.0063 56.2278H72.5796C74.5257 56.2278 76.1098 54.6437 76.1098 52.6975C76.1098 50.7514 74.5257 49.1673 72.5796 49.1673H65.3456C62.4527 49.1673 59.971 47.1985 59.3147 44.3811L58.8734 42.4802C58.4246 40.6698 56.8028 39.4025 54.9321 39.3987L53.1745 39.9833C52.4051 40.2398 51.8129 40.8584 51.5866 41.6353C51.4131 42.2161 51.0925 42.7366 50.655 43.144C50.21 43.5589 49.6631 43.8417 49.0785 43.9662L47.9734 44.2C47.7471 44.2491 47.5434 44.3811 47.4039 44.5734C47.3511 44.6489 47.3096 44.7281 47.2794 44.811C47.2681 44.845 47.2568 44.894 47.2454 44.9468L47.2115 45.1354C47.1625 45.3843 47.2115 45.6295 47.3548 45.8332C47.4944 46.0368 47.7094 46.1726 47.9545 46.2141L53.6648 47.1193C53.8119 47.1419 53.9363 47.24 53.9967 47.3758C54.057 47.5115 54.0419 47.6699 53.959 47.7906C53.925 47.8397 50.7154 52.6485 53.5026 56.5786C54.1626 57.5102 55.049 58.0495 56.0749 58.6718L56.2408 58.7737L56.237 58.7812Z" fill="#F0663F"/>
<path d="M47.9422 43.7922C47.9422 44.2862 47.5424 44.686 47.0484 44.686C46.988 44.686 46.9277 44.6823 46.8711 44.6672C47.0333 44.2184 47.4104 43.8827 47.8857 43.7808L47.9385 43.7695C47.9385 43.7695 47.9385 43.7846 47.9385 43.7922H47.9422Z" fill="white"/>
<path d="M47.0521 45.1205C46.954 45.1205 46.8635 45.1092 46.7767 45.0903C46.656 45.0602 46.5542 44.9847 46.4939 44.8753C46.4335 44.766 46.426 44.6377 46.4675 44.5208C46.6824 43.9249 47.1803 43.4874 47.7988 43.3554L47.8554 43.3441C48.0704 43.3026 48.2816 43.4233 48.3533 43.6307C48.3684 43.676 48.3797 43.7476 48.3797 43.7967C48.3797 44.5284 47.7838 45.1243 47.0521 45.1243V45.1205Z" fill="#F0663F"/>
<path d="M56.0689 58.1978L56.2877 64.4248L56.4008 67.5704H51.543C51.5882 65.1754 53.9078 65.2395 53.9078 65.2395L51.9654 53.6719" fill="white"/>
<path d="M56.3971 67.9985H51.5392C51.4223 67.9985 51.3129 67.9532 51.2299 67.8703C51.147 67.7873 51.1055 67.6741 51.1055 67.5572C51.1206 66.7161 51.3883 66.0448 51.8975 65.562C52.3803 65.1019 52.98 64.9208 53.3986 64.8492L51.5317 53.7417C51.4939 53.5041 51.6524 53.2815 51.8862 53.2438C52.1238 53.2061 52.3463 53.3645 52.3841 53.5984L54.3265 65.166C54.3491 65.2942 54.3114 65.4262 54.2246 65.5243C54.1379 65.6224 54.0247 65.6827 53.8852 65.6714C53.8852 65.6714 53.3798 65.6639 52.897 65.9052C52.4142 66.1466 52.1163 66.5577 52.0107 67.131H55.9445L55.6314 58.2073C55.6239 57.9697 55.8087 57.766 56.0501 57.7585C56.2953 57.7509 56.4914 57.9395 56.4989 58.1771L56.8271 67.5459C56.8308 67.6628 56.7856 67.776 56.7064 67.8627C56.6234 67.9457 56.5102 67.9947 56.3933 67.9947L56.3971 67.9985Z" fill="#F0663F"/>
<g style="mix-blend-mode:darken">
<path d="M53.5952 47.5487L47.8811 46.6435C47.1344 46.519 46.6365 45.8024 46.7836 45.0556L46.8213 44.8558C46.8364 44.7916 46.8515 44.7275 46.8741 44.6634C46.9194 44.5389 46.9835 44.422 47.0552 44.3164C47.372 44.9312 48.0245 45.6327 49.3483 46.0287C52.0941 46.8472 53.5952 47.5449 53.5952 47.5449V47.5487Z" fill="#FAE0B7"/>
</g>
<path d="M68.4023 55.0754V56.4935C68.4023 58.2624 69.481 59.8503 71.1255 60.5028C72.5134 61.0534 73.5167 62.283 73.7807 63.7539L74.0447 65.2362C74.0447 65.2362 71.7252 65.172 71.6799 67.567H76.5378V52.6992" fill="white"/>
<path d="M76.542 67.9969H71.6841C71.5672 67.9969 71.4578 67.9516 71.3748 67.8686C71.2918 67.7857 71.2503 67.6725 71.2503 67.5556C71.2654 66.7145 71.5332 66.0432 72.0424 65.5604C72.5252 65.1003 73.1211 64.9192 73.5397 64.8476L73.3587 63.8292C73.1211 62.4978 72.2272 61.404 70.9712 60.9062C69.1495 60.1858 67.9766 58.4546 67.9766 56.4934V55.0752C67.9766 54.8338 68.1689 54.6415 68.4103 54.6415C68.6517 54.6415 68.844 54.8338 68.844 55.0752V56.4934C68.844 58.0925 69.8058 59.5069 71.2918 60.0991C72.8307 60.7101 73.9244 62.0452 74.2149 63.6746L74.4789 65.1568C74.5015 65.2851 74.4676 65.4171 74.3808 65.5151C74.2941 65.6132 74.1771 65.6736 74.0414 65.666C74.0376 65.666 73.536 65.6585 73.0532 65.8998C72.5667 66.1412 72.2725 66.5523 72.1669 67.1256H76.1158V52.6916C76.1158 52.4502 76.3081 52.2578 76.5495 52.2578C76.7909 52.2578 76.9832 52.4502 76.9832 52.6916V67.5594C76.9832 67.8008 76.7909 67.9931 76.5495 67.9931L76.542 67.9969Z" fill="#F0663F"/>
<path d="M55.3867 40.7556V36.7539C56.9557 36.7539 58.2305 38.0287 58.2305 39.5977V40.7556" fill="white"/>
<path d="M58.2307 41.1896C57.9893 41.1896 57.7969 40.9973 57.7969 40.7559V39.598C57.7969 38.4175 56.9446 37.4331 55.8206 37.2294V40.7597C55.8206 41.0011 55.6282 41.1934 55.3869 41.1934C55.1455 41.1934 54.9531 41.0011 54.9531 40.7597V36.758C54.9531 36.5166 55.1455 36.3242 55.3869 36.3242C57.1935 36.3242 58.6644 37.7952 58.6644 39.6018V40.7597C58.6644 41.0011 58.4721 41.1934 58.2307 41.1934V41.1896Z" fill="#F0663F"/>
<path d="M60.8317 45.8064L60.0078 43.8125L51.5722 47.298L52.396 49.2919L60.8317 45.8064Z" fill="#EB944D"/>
<path d="M52.3951 49.7228C52.3385 49.7228 52.2819 49.7115 52.2291 49.6889C52.1235 49.6436 52.0368 49.5606 51.9953 49.455L51.1731 47.4636C51.0825 47.2411 51.1881 46.9884 51.4069 46.8979L59.8403 43.4129C59.9459 43.3676 60.0666 43.3676 60.1722 43.4129C60.2778 43.4581 60.3646 43.5411 60.406 43.6467L61.2283 45.6381C61.3188 45.8606 61.2132 46.1133 60.9944 46.2039L52.561 49.6889C52.5082 49.7115 52.4516 49.7228 52.3951 49.7228ZM52.1386 47.5315L52.6289 48.7233L60.2627 45.5702L59.7724 44.3784L52.1386 47.5315Z" fill="#F0663F"/>
</g>
<path d="M58.548 87.008C59.284 87.3493 59.652 87.84 59.652 88.48C59.652 89.12 59.284 89.6107 58.548 89.952C57.8227 90.2933 56.7827 90.464 55.428 90.464C54.0733 90.464 53.0333 90.2987 52.308 89.968C51.5827 89.6267 51.22 89.1307 51.22 88.48C51.22 87.8293 51.5827 87.3387 52.308 87.008C53.0333 86.6667 54.0733 86.496 55.428 86.496C56.7827 86.496 57.8227 86.6667 58.548 87.008ZM56.068 94.336H54.852V92.192H49.108V91.184H61.732V92.192H56.068V94.336ZM60.308 96.72H50.756V93.248H51.972V95.712H60.308V96.72ZM60.948 85.952H49.892V84.96H60.948V85.952ZM55.428 89.488C57.38 89.488 58.356 89.152 58.356 88.48C58.356 87.808 57.38 87.472 55.428 87.472C53.476 87.472 52.5 87.808 52.5 88.48C52.5 89.152 53.476 89.488 55.428 89.488ZM57.876 84.256H53.06V83.248H57.876V84.256ZM74.8758 93.392H73.6598V89.616H71.1478V88.624H73.6598V86.56H71.1478V85.568H73.6598V83.136H74.8758V93.392ZM75.2438 96.848H65.7398V92.768H66.9718V95.856H75.2438V96.848ZM70.8758 90.512L71.0038 91.488C69.6171 91.7227 67.7771 91.84 65.4838 91.84L63.9158 91.824V87.376H68.9878V85.104H63.8997V84.096H70.2038V88.368H65.1318V90.816L65.8358 90.832C67.8731 90.8533 69.5531 90.7467 70.8758 90.512Z" fill="#262626"/>
<defs>
<clipPath id="clip0_841_9142">
<rect width="33.3489" height="44" fill="white" transform="translate(46.3242 24)"/>
</clipPath>
</defs>
</svg>
