<svg width="126" height="126" viewBox="0 0 126 126" fill="none" xmlns="http://www.w3.org/2000/svg">
<rect x="0.5" y="0.5" width="125" height="125" rx="15.5" stroke="#F0663F"/>
<g clip-path="url(#clip0_841_9147)">
<path d="M74.0355 25.8398L71.8138 24.4648L69.588 25.8398L67.3662 24.4648L65.1404 25.8398L62.9186 24.4648L60.6968 25.8398L58.471 24.4648L56.2492 25.8398L54.0275 24.4648L51.8017 25.8398L49.7734 24.5858L50.9186 28.6786H75.0839L76.2654 24.4689L76.2573 24.4648L74.0355 25.8398Z" fill="#EB944D"/>
<path d="M75.0841 29.1381H50.9188C50.7091 29.1381 50.5276 29.001 50.4712 28.7994L49.326 24.7107C49.2736 24.5252 49.3421 24.3317 49.4954 24.2147C49.6486 24.1018 49.8542 24.0897 50.0196 24.1905L51.8059 25.2954L53.7817 24.0696C53.9309 23.9768 54.1204 23.9768 54.2696 24.0696L56.2494 25.2954L58.2292 24.0696C58.3784 23.9768 58.568 23.9768 58.7171 24.0696L60.697 25.2954L62.6768 24.0696C62.826 23.9768 63.0155 23.9768 63.1647 24.0696L65.1446 25.2954L67.1204 24.0696C67.2696 23.9768 67.4591 23.9768 67.6083 24.0696L69.5881 25.2954L71.568 24.0696C71.7171 23.9768 71.9067 23.9768 72.0559 24.0696L74.0357 25.2954L76.0155 24.0696C76.1647 23.9768 76.3542 23.9768 76.5034 24.0696C76.6768 24.1784 76.7655 24.3921 76.7091 24.5897L75.5317 28.7994C75.4752 29.001 75.2938 29.1381 75.0841 29.1381ZM51.2696 28.2147H74.7333L75.4994 25.4808L74.2817 26.2349C74.1325 26.3276 73.943 26.3276 73.7938 26.2349L71.8139 25.0091L69.8341 26.2349C69.6849 26.3276 69.4954 26.3276 69.3462 26.2349L67.3663 25.0091L65.3865 26.2349C65.2373 26.3276 65.0478 26.3276 64.8986 26.2349L62.9188 25.0091L60.9389 26.2349C60.7897 26.3276 60.6002 26.3276 60.451 26.2349L58.4712 25.0091L56.4913 26.2349C56.3421 26.3276 56.1526 26.3276 56.0034 26.2349L54.0236 25.0091L52.0438 26.2349C51.8946 26.3276 51.7051 26.3276 51.5559 26.2349L50.5397 25.6058L51.2696 28.2147Z" fill="#F0663F"/>
<path d="M75.0842 28.6797H50.9189C48.556 33.341 48.6729 39.3894 48.6729 46.0023C48.6729 52.6152 48.5519 58.6595 50.9189 63.3248H75.0842C77.4511 58.6595 77.3302 52.6111 77.3302 46.0023C77.3302 39.3934 77.4511 33.345 75.0842 28.6797Z" fill="white"/>
<path d="M75.0824 63.7874H50.917C50.7437 63.7874 50.5824 63.6906 50.5017 63.5334C48.1993 58.985 48.2033 53.1221 48.2074 46.9124V46.0011V45.0898C48.2033 38.8802 48.1993 33.0173 50.5017 28.4689C50.5824 28.3116 50.7396 28.2148 50.917 28.2148H75.0824C75.2558 28.2148 75.417 28.3116 75.4977 28.4689C77.8041 33.0173 77.8001 38.8802 77.792 45.0898V46.0011V46.9124C77.7961 53.1221 77.8001 58.985 75.4977 63.5334C75.417 63.6906 75.2598 63.7874 75.0824 63.7874ZM51.2033 62.86H74.792C76.8727 58.5415 76.8687 52.8882 76.8606 46.9124V45.9971V45.0818C76.8646 39.106 76.8687 33.4527 74.792 29.1342H51.2074C49.1267 33.4608 49.1308 39.11 49.1348 45.0858V46.0011V46.9165C49.1308 52.8923 49.1267 58.5455 51.2033 62.864V62.86Z" fill="#F0663F"/>
<path d="M74.0355 66.1629L71.8138 67.5379L69.588 66.1629L67.3662 67.5379L65.1404 66.1629L62.9186 67.5379L60.6968 66.1629L58.471 67.5379L56.2492 66.1629L54.0275 67.5379L51.8017 66.1629L49.7734 67.417L50.9186 63.3242H75.0839L76.2654 67.5339L76.2573 67.5379L74.0355 66.1629Z" fill="#EB944D"/>
<path d="M71.8124 68.0005C71.7277 68.0005 71.6431 67.9763 71.5705 67.932L69.5906 66.7061L67.6108 67.932C67.4616 68.0247 67.2721 68.0247 67.1229 67.932L65.1431 66.7061L63.1632 67.932C63.014 68.0247 62.8245 68.0247 62.6753 67.932L60.6955 66.7061L58.7156 67.932C58.5665 68.0247 58.3769 68.0247 58.2277 67.932L56.2479 66.7061L54.2681 67.932C54.1189 68.0247 53.9294 68.0247 53.7802 67.932L51.8003 66.7061L50.014 67.811C49.8527 67.9118 49.6431 67.9037 49.4898 67.7868C49.3366 67.6739 49.2721 67.4763 49.3205 67.2908L50.4656 63.1981C50.5221 62.9965 50.7036 62.8594 50.9132 62.8594H75.0786C75.2882 62.8594 75.4697 62.9965 75.5261 63.1981L76.7036 67.4078C76.76 67.6053 76.6794 67.815 76.5019 67.9279C76.3527 68.0207 76.1592 68.0247 76.006 67.932L74.0261 66.7061L72.0463 67.932C71.9697 67.9763 71.885 68.0005 71.8044 68.0005H71.8124ZM65.1431 65.6981C65.2277 65.6981 65.3124 65.7223 65.385 65.7666L67.3648 66.9924L69.3447 65.7666C69.4939 65.6739 69.6834 65.6739 69.8326 65.7666L71.8124 66.9924L73.7923 65.7666C73.9415 65.6739 74.131 65.6739 74.2802 65.7666L75.4979 66.5207L74.7318 63.7868H51.2681L50.5382 66.3957L51.5544 65.7666C51.7036 65.6739 51.8931 65.6739 52.0423 65.7666L54.0221 66.9924L56.0019 65.7666C56.1511 65.6739 56.3406 65.6739 56.4898 65.7666L58.4697 66.9924L60.4495 65.7666C60.5987 65.6739 60.7882 65.6739 60.9374 65.7666L62.9173 66.9924L64.8971 65.7666C64.9737 65.7223 65.0584 65.6981 65.139 65.6981H65.1431Z" fill="#F0663F"/>
<path d="M63.0478 53.9041C67.4126 53.9041 70.951 50.3657 70.951 46.0009C70.951 41.6361 67.4126 38.0977 63.0478 38.0977C58.6829 38.0977 55.1445 41.6361 55.1445 46.0009C55.1445 50.3657 58.6829 53.9041 63.0478 53.9041Z" fill="#EB944D"/>
<path d="M63.0494 54.3656C60.9083 54.3656 58.7631 53.551 57.1341 51.918C53.872 48.6559 53.872 43.3454 57.1341 40.0833C60.3962 36.8212 65.7067 36.8212 68.9688 40.0833C72.2308 43.3454 72.2308 48.6559 68.9688 51.918C67.3357 53.551 65.1946 54.3656 63.0534 54.3656H63.0494ZM63.0494 38.5631C61.1421 38.5631 59.2389 39.2889 57.7873 40.7405C54.8881 43.6438 54.8881 48.3615 57.7873 51.2647C60.6865 54.1639 65.4083 54.1639 68.3115 51.2647C71.2107 48.3655 71.2107 43.6438 68.3115 40.7405C66.8599 39.2889 64.9567 38.5631 63.0494 38.5631Z" fill="#F0663F"/>
<path d="M69.1415 37.0668C68.1254 36.0507 66.4762 36.0507 65.4601 37.0668C64.4439 38.0829 64.4439 39.7321 65.4601 40.7482C65.4802 40.7684 65.5044 40.7805 65.5246 40.7966L57.8552 48.466C57.8552 48.466 57.823 48.4216 57.8068 48.4015C56.7907 47.3853 55.1415 47.3853 54.1254 48.4015C53.1092 49.4176 53.1092 51.0668 54.1254 52.0829C54.702 52.6595 55.4762 52.8974 56.2302 52.8208C56.1536 53.5708 56.3915 54.349 56.9681 54.9257C57.9842 55.9418 59.6334 55.9418 60.6496 54.9257C61.6657 53.9095 61.6657 52.2603 60.6496 51.2442C60.6294 51.224 60.6052 51.2119 60.5851 51.1958L68.2544 43.5265C68.2544 43.5265 68.2867 43.5708 68.3028 43.591C69.3189 44.6071 70.9681 44.6071 71.9842 43.591C73.0004 42.5748 73.0004 40.9257 71.9842 39.9095C71.4076 39.3329 70.6334 39.095 69.8794 39.1716C69.956 38.4216 69.7181 37.6434 69.1415 37.0668Z" fill="white"/>
<path d="M58.8019 56.1574C58.0156 56.1574 57.2293 55.859 56.6326 55.2582C56.1084 54.734 55.7979 54.0364 55.7495 53.2985C55.0116 53.2501 54.314 52.9437 53.7898 52.4154C53.2092 51.8348 52.8906 51.0646 52.8906 50.2461C52.8906 49.4275 53.2092 48.6574 53.7898 48.0767C54.8947 46.9719 56.6366 46.8872 57.8422 47.8227L64.8745 40.7904C64.4592 40.2542 64.2293 39.6009 64.2293 38.9074C64.2293 38.0888 64.5479 37.3187 65.1285 36.738C66.3261 35.5404 68.2697 35.5404 69.4672 36.738C69.9914 37.2622 70.3019 37.9598 70.3503 38.6977C71.0882 38.7461 71.7858 39.0525 72.31 39.5808C73.5076 40.7784 73.5076 42.7219 72.31 43.9195C71.7293 44.5001 70.9592 44.8187 70.1406 44.8187C69.4511 44.8187 68.7939 44.5929 68.2576 44.1735L61.2253 51.2058C62.1608 52.4074 62.0761 54.1533 60.9713 55.2582C60.3745 55.855 59.5882 56.1574 58.8019 56.1574ZM56.2213 52.363C56.3422 52.363 56.4632 52.4114 56.5479 52.5001C56.6447 52.5969 56.6971 52.734 56.6809 52.8751C56.6164 53.5243 56.8342 54.1534 57.2858 54.605C58.1205 55.4396 59.4793 55.4396 60.314 54.605C61.1447 53.7743 61.1487 52.4275 60.3261 51.5929C60.3019 51.5767 60.2697 51.5485 60.2576 51.5404C60.1648 51.4558 60.1124 51.3348 60.1124 51.2098C60.1124 51.0848 60.1608 50.9638 60.2495 50.8751L67.9189 43.2058C68.0076 43.1171 68.1285 43.0727 68.2535 43.0687C68.3785 43.0687 68.4995 43.1251 68.5842 43.2138C68.6003 43.23 68.6366 43.2743 68.6487 43.2945C69.0277 43.6735 69.568 43.8953 70.1366 43.8953C70.7051 43.8953 71.2455 43.6735 71.6487 43.2663C72.4834 42.4316 72.4834 41.0727 71.6487 40.238C71.2011 39.7904 70.568 39.5687 69.9189 39.6332C69.7818 39.6453 69.6447 39.5969 69.5439 39.5001C69.4471 39.4034 69.3947 39.2663 69.4108 39.1251C69.4753 38.4759 69.2576 37.8469 68.8059 37.3953C67.9713 36.5606 66.6124 36.5606 65.7777 37.3953C65.3745 37.7985 65.1527 38.3388 65.1527 38.9074C65.1527 39.4759 65.3705 40.0042 65.7656 40.4074C65.7898 40.4235 65.8221 40.4517 65.8301 40.4598C65.9229 40.5445 65.9753 40.6654 65.9753 40.7904C65.9753 40.9154 65.9269 41.0364 65.8382 41.1251L58.1689 48.7945C58.0801 48.8832 57.9551 48.9275 57.8342 48.9316C57.7092 48.9316 57.5882 48.8751 57.5035 48.7864C57.4874 48.7703 57.4511 48.7259 57.439 48.7058C56.6285 47.8993 55.2697 47.8993 54.435 48.734C54.0318 49.1372 53.81 49.6775 53.81 50.2461C53.81 50.8146 54.0318 51.355 54.439 51.7582C54.8906 52.2098 55.5197 52.4275 56.1689 52.363C56.185 52.363 56.2011 52.363 56.2172 52.363H56.2213Z" fill="#F0663F"/>
<g style="mix-blend-mode:darken">
<path d="M71.9803 39.9084C72.9965 40.9245 72.9965 42.5777 71.9803 43.5939C70.9642 44.61 69.315 44.61 68.2989 43.5939C68.2787 43.5737 68.2707 43.5536 68.2465 43.5334L60.5771 51.2027C60.5973 51.2229 60.6215 51.235 60.6376 51.2552C61.6537 52.2713 61.6537 53.9245 60.6376 54.9366C59.6215 55.9527 57.9682 55.9527 56.9521 54.9366C56.8715 54.856 56.7989 54.7753 56.7344 54.6866C57.6699 55.0495 58.7626 54.856 59.5207 54.1019C60.5368 53.0858 60.5408 51.4366 59.5207 50.4205C59.5005 50.4003 59.4763 50.3882 59.4561 50.3721L67.1255 42.7027C67.1255 42.7027 67.1578 42.7471 67.1779 42.7632C68.1941 43.7794 69.8392 43.7794 70.8594 42.7632C71.7949 41.8277 71.8715 40.356 71.0811 39.3398C71.4078 39.4648 71.7102 39.6544 71.9723 39.9165L71.9803 39.9084Z" fill="#FAE0B7"/>
</g>
<g style="mix-blend-mode:darken">
<path d="M77.3299 46.0023C77.3299 52.6152 77.4509 58.6636 75.088 63.3248H72.8984C74.8339 58.6636 74.7331 52.6152 74.7331 46.0023C74.7331 39.3894 74.8339 33.345 72.8984 28.6797H75.088C77.4509 33.345 77.3299 39.3934 77.3299 46.0023Z" fill="#FAE0B7"/>
</g>
</g>
<path d="M42.004 97.136H40.788V92.064H35.108V91.04H47.732V92.064H42.004V97.136ZM47.22 88.512L46.644 89.552C45.5453 89.328 44.5 88.9067 43.508 88.288C42.516 87.6693 41.8173 86.9653 41.412 86.176C41.1987 86.6987 40.8093 87.2 40.244 87.68C39.6893 88.16 39.06 88.5653 38.356 88.896C37.6627 89.216 36.9533 89.4453 36.228 89.584L35.636 88.544C37.012 88.3627 38.212 87.8827 39.236 87.104C40.2707 86.3147 40.788 85.4507 40.788 84.512V83.616H42.068V84.512C42.068 85.4293 42.6067 86.288 43.684 87.088C44.7613 87.8773 45.94 88.352 47.22 88.512ZM56.5878 92.928L55.8198 93.824C55.2544 93.4293 54.6784 92.8693 54.0918 92.144C53.5158 91.408 53.1371 90.6987 52.9557 90.016C52.8171 90.7733 52.4704 91.536 51.9158 92.304C51.3718 93.0613 50.7478 93.6907 50.0438 94.192L49.2278 93.344C50.1131 92.7787 50.8544 91.9627 51.4518 90.896C52.0491 89.8293 52.3478 88.6507 52.3478 87.36V85.792H49.5638V84.784H56.2358V85.792H53.5477V87.328C53.5477 89.7493 54.5611 91.616 56.5878 92.928ZM58.4758 96.416H57.2758V89.28H55.0358V88.272H57.2758V83.472H58.4758V96.416ZM61.2438 97.12H60.0438V83.136H61.2438V97.12ZM76.6755 88.544H74.5475V93.6H73.3315V83.136H74.5475V87.52H76.6755V88.544ZM74.9795 96.768H65.7475V92.448H66.9635V95.76H74.9795V96.768ZM64.2755 84.368H70.6435C70.5688 86.2133 69.9555 87.7973 68.8035 89.12C67.6622 90.4427 66.1688 91.3973 64.3235 91.984L63.6995 90.96C65.2035 90.576 66.4728 89.8773 67.5075 88.864C68.5422 87.84 69.1448 86.6827 69.3155 85.392H64.2755V84.368ZM89.5633 91.472H88.3473V83.136H89.5633V91.472ZM86.5873 89.68L85.8673 90.64C85.1206 90.3093 84.4166 89.8453 83.7553 89.248C83.0939 88.6507 82.6299 88.0107 82.3633 87.328C82.1499 88.0533 81.7179 88.7573 81.0673 89.44C80.4273 90.112 79.6646 90.672 78.7793 91.12L78.0273 90.144C79.0726 89.7173 79.9473 89.056 80.6513 88.16C81.3553 87.2533 81.7073 86.2667 81.7073 85.2V83.712H82.9393V85.152C82.9393 86.1973 83.3126 87.136 84.0593 87.968C84.8059 88.7893 85.6486 89.36 86.5873 89.68ZM89.5633 97.12H88.3473V93.248H80.2353V92.24H89.5633V97.12Z" fill="#262626"/>
<defs>
<clipPath id="clip0_841_9147">
<rect width="29.5847" height="44" fill="white" transform="translate(48.207 24)"/>
</clipPath>
</defs>
</svg>
