<svg width="126" height="126" viewBox="0 0 126 126" fill="none" xmlns="http://www.w3.org/2000/svg">
<rect x="0.5" y="0.5" width="125" height="125" rx="15.5" stroke="#F0663F"/>
<g clip-path="url(#clip0_841_9152)">
<path d="M47.2854 39.991C47.4767 41.157 48.144 42.1543 48.9426 42.9641C50.5247 44.5725 52.6392 45.446 52.6392 45.446L53.1904 44.9549C53.1904 44.9549 50.8546 43.6764 49.8311 40.9283C49.2612 39.3987 49.1038 37.4116 49.9848 34.9297C49.9848 34.9297 46.7156 36.5156 47.2854 39.9873V39.991Z" fill="white"/>
<path d="M52.6399 45.7854C52.7223 45.7854 52.8048 45.7554 52.8686 45.6992L53.4197 45.208C53.5022 45.133 53.5434 45.0243 53.5322 44.9156C53.5209 44.8069 53.4534 44.7056 53.356 44.6531C53.3335 44.6419 51.1177 43.3934 50.1542 40.8065C49.5093 39.0782 49.5618 37.1399 50.3079 35.0441C50.3529 34.9129 50.3191 34.7666 50.2142 34.6729C50.1092 34.5792 49.9592 34.5604 49.8355 34.6204C49.8018 34.6392 46.345 36.36 46.9449 40.0417C47.1249 41.1439 47.7135 42.2087 48.6958 43.2022C50.3079 44.8406 52.4149 45.7217 52.5049 45.7591C52.5461 45.7779 52.5911 45.7854 52.6361 45.7854H52.6399ZM52.6249 44.9981L52.5761 45.0393C52.0288 44.7844 50.4279 43.982 49.1869 42.7223C48.3059 41.83 47.781 40.8927 47.6235 39.933C47.2673 37.766 48.5121 36.3975 49.3781 35.7264C48.8607 37.6347 48.9057 39.4193 49.5131 41.0465C50.3191 43.2097 51.8863 44.4919 52.6249 44.9981Z" fill="#F0663F"/>
<g style="mix-blend-mode:darken">
<path d="M48.9453 42.9616C50.5275 44.57 52.642 45.4435 52.642 45.4435L53.1931 44.9524C53.1931 44.9524 50.8574 43.6739 49.8339 40.9258C49.5002 41.4769 49.1703 42.1667 48.9453 42.9616Z" fill="#FAE0B7"/>
</g>
<path d="M65.4879 50.3614C66.3914 49.8102 67.22 49.3453 67.8311 48.483C70.2043 45.1388 67.4749 41.1497 67.4749 41.1497L71.9889 40.4336C72.5813 40.3361 72.9712 39.77 72.855 39.1814L72.825 39.0239C72.8137 38.9715 72.7987 38.9227 72.7837 38.874C72.7462 38.7765 72.6975 38.6828 72.6413 38.6003C72.4876 38.3866 72.2551 38.2291 71.9852 38.1729L71.9439 38.1654L71.1154 37.9892C70.703 37.9029 70.3318 37.7042 70.0319 37.4268C69.7319 37.1494 69.5107 36.7932 69.3908 36.3883C69.1808 35.661 68.6297 35.0911 67.9173 34.8549L66.4777 34.375H66.4252C64.7943 34.375 63.3696 35.4885 62.976 37.0744L62.6273 38.574C62.1474 40.6323 60.3103 42.0907 58.1958 42.0907H52.4821C50.7537 42.0907 49.3516 43.4929 49.3516 45.2213C49.3516 46.9496 50.7537 48.3518 52.4821 48.3518H52.9357C54.3079 48.3518 58.582 48.7417 59.7442 49.4728C60.9027 50.2039 62.2486 50.3689 63.6208 50.3689H65.4916" fill="white"/>
<path d="M63.6181 50.7076H65.4889C65.5526 50.7076 65.6126 50.6889 65.6689 50.6589L65.8788 50.5314C66.7186 50.0215 67.5097 49.5379 68.1133 48.6868C70.1416 45.8262 68.6944 42.5907 68.0346 41.4135L72.0424 40.7799C72.4248 40.7161 72.751 40.5062 72.9685 40.1913C73.1859 39.8763 73.2646 39.4977 73.1897 39.119L73.1597 38.9653C73.1447 38.8941 73.1297 38.8341 73.1072 38.7741C73.0584 38.6391 72.9947 38.5229 72.916 38.4104C72.7023 38.118 72.3986 37.9193 72.0537 37.8443L71.1801 37.6606C70.8389 37.5893 70.5203 37.4244 70.2616 37.1807C70.0066 36.9407 69.8154 36.6371 69.7179 36.2959C69.478 35.4673 68.8444 34.8075 68.0233 34.5338L66.5837 34.0539C66.5499 34.0427 66.5124 34.0352 66.4749 34.0352H66.4224C64.6304 34.0352 63.0745 35.2499 62.6396 36.9932L62.2871 38.4966C61.841 40.4087 60.1576 41.7472 58.1893 41.7472H52.4756C50.5598 41.7472 49.0039 43.303 49.0039 45.2189C49.0039 47.1347 50.5598 48.6906 52.4756 48.6906H52.9293C54.3914 48.6906 58.5192 49.1067 59.554 49.7591C60.885 50.5989 62.4221 50.7076 63.6143 50.7076H63.6181ZM65.3914 50.0215H63.6181C62.5196 50.0215 61.1062 49.924 59.9252 49.178C58.6242 48.3569 54.174 48.0045 52.9368 48.0045H52.4831C50.946 48.0045 49.6975 46.7523 49.6975 45.2189C49.6975 43.6855 50.9497 42.4332 52.4831 42.4332H58.1968C60.4838 42.4332 62.4409 40.8774 62.962 38.6541L63.3107 37.1544C63.6668 35.726 64.9453 34.7213 66.4224 34.7213L67.8096 35.1824C68.417 35.3848 68.8856 35.8722 69.0618 36.4871C69.1968 36.9445 69.4518 37.3569 69.7967 37.6793C70.1491 38.0055 70.5803 38.2305 71.0414 38.3279L71.9149 38.5116C72.0949 38.5491 72.2561 38.6541 72.3648 38.8078C72.4061 38.8678 72.4398 38.9315 72.4661 38.9953C72.4736 39.0215 72.4848 39.059 72.4923 39.1003L72.5186 39.2502C72.5561 39.4452 72.5186 39.6401 72.4061 39.8013C72.2936 39.9626 72.1249 40.0713 71.9337 40.1013L67.4235 40.8174C67.3072 40.8361 67.2098 40.9111 67.161 41.0198C67.116 41.1285 67.1273 41.2523 67.191 41.3497C67.2173 41.3872 69.7554 45.1851 67.5509 48.2932C67.0298 49.028 66.3287 49.4554 65.5189 49.9465L65.3877 50.0253L65.3914 50.0215Z" fill="#F0663F"/>
<path d="M71.9375 38.1867C71.9375 38.5766 72.2524 38.8916 72.6423 38.8916C72.6911 38.8916 72.7361 38.8878 72.7811 38.8766C72.6536 38.5241 72.3537 38.2542 71.9787 38.1755L71.9375 38.168C71.9375 38.168 71.9375 38.1792 71.9375 38.1867Z" fill="white"/>
<path d="M72.6437 39.2332C72.7224 39.2332 72.7936 39.2257 72.8611 39.2107C72.9548 39.1882 73.0373 39.1282 73.0823 39.042C73.1273 38.9558 73.1348 38.8546 73.1048 38.7646C72.9361 38.2922 72.5424 37.9473 72.055 37.8423L72.0101 37.8348C71.8414 37.801 71.6726 37.8985 71.6164 38.0597C71.6052 38.0972 71.5977 38.1535 71.5977 38.191C71.5977 38.7683 72.0663 39.2407 72.6474 39.2407L72.6437 39.2332Z" fill="#F0663F"/>
<path d="M65.5204 49.5611L65.3479 54.4762L65.2617 56.9619H69.0971C69.0596 55.0723 67.23 55.121 67.23 55.121L68.7634 45.9844" fill="white"/>
<path d="M65.263 57.3012H69.0984C69.1922 57.3012 69.2784 57.2637 69.3421 57.2C69.4059 57.1362 69.4433 57.0463 69.4396 56.9525C69.4284 56.2889 69.2184 55.7603 68.8135 55.3741C68.4311 55.0105 67.9587 54.868 67.6288 54.8118L69.1022 46.0388C69.1322 45.8513 69.0084 45.6751 68.821 45.6451C68.6335 45.6151 68.4573 45.7388 68.4273 45.9263L66.8939 55.063C66.8752 55.1642 66.9052 55.2692 66.9727 55.3441C67.0401 55.4229 67.1301 55.4679 67.2426 55.4604C67.2426 55.4604 67.64 55.4566 68.0224 55.6478C68.4048 55.839 68.641 56.1652 68.7235 56.6151H65.6192L65.8667 49.5667C65.8742 49.3793 65.7242 49.218 65.5367 49.2105C65.3418 49.2068 65.1881 49.353 65.1806 49.5405L64.9219 56.9413C64.9219 57.035 64.9519 57.125 65.0194 57.1925C65.0831 57.26 65.1731 57.2975 65.2668 57.2975L65.263 57.3012Z" fill="#F0663F"/>
<g style="mix-blend-mode:darken">
<path d="M67.4766 41.151L71.9905 40.4349C72.5829 40.3374 72.9728 39.7713 72.8566 39.1827L72.8266 39.0252C72.8153 38.9727 72.8004 38.924 72.7854 38.8753C72.7479 38.7778 72.6991 38.684 72.6429 38.6016C72.3917 39.089 71.8781 39.6401 70.832 39.955C68.665 40.6036 67.4766 41.151 67.4766 41.151Z" fill="#FAE0B7"/>
</g>
<path d="M55.7776 47.0971V48.2181C55.7776 49.6128 54.9265 50.8687 53.6256 51.3824C52.5308 51.8173 51.736 52.7883 51.5298 53.9505L51.3199 55.1203C51.3199 55.1203 53.1494 55.0678 53.1869 56.9611H49.3516V45.2188" fill="white"/>
<path d="M49.3527 57.3034H53.1881C53.2818 57.3034 53.3681 57.2659 53.4318 57.2022C53.4955 57.1385 53.533 57.0485 53.5293 56.9548C53.518 56.2912 53.3081 55.7625 52.9032 55.3764C52.5208 55.0127 52.0521 54.8702 51.7222 54.814L51.8647 54.0117C52.0521 52.9619 52.757 52.0959 53.7505 51.7022C55.1864 51.1323 56.1162 49.7639 56.1162 48.2192V47.0982C56.1162 46.9108 55.9625 46.7571 55.775 46.7571C55.5876 46.7571 55.4339 46.9108 55.4339 47.0982V48.2192C55.4339 49.4827 54.6728 50.5999 53.4993 51.0648C52.2846 51.5447 51.4223 52.602 51.1898 53.888L50.9799 55.0577C50.9611 55.1589 50.9911 55.2639 51.0586 55.3426C51.1261 55.4214 51.2198 55.4663 51.3285 55.4626C51.3285 55.4626 51.7259 55.4551 52.1084 55.65C52.4908 55.8413 52.727 56.1674 52.8094 56.6173H49.6902V45.2162C49.6902 45.0287 49.5364 44.875 49.349 44.875C49.1615 44.875 49.0078 45.0287 49.0078 45.2162V56.9585C49.0078 57.146 49.1615 57.2997 49.349 57.2997L49.3527 57.3034Z" fill="#F0663F"/>
<path d="M66.0621 35.7855V32.625C64.8212 32.625 63.8164 33.6298 63.8164 34.8707V35.7855" fill="white"/>
<path d="M63.8176 36.128C64.005 36.128 64.1588 35.9743 64.1588 35.7869V34.8721C64.1588 33.9385 64.8336 33.1625 65.7184 33.0012V35.7869C65.7184 35.9743 65.8721 36.128 66.0596 36.128C66.247 36.128 66.4007 35.9743 66.4007 35.7869V32.6263C66.4007 32.4389 66.247 32.2852 66.0596 32.2852C64.6311 32.2852 63.4727 33.4474 63.4727 34.8721V35.7869C63.4727 35.9743 63.6264 36.128 63.8138 36.128H63.8176Z" fill="#F0663F"/>
<path d="M78.5276 57.6452H42.7944C42.5545 57.6452 42.3633 57.454 42.3633 57.214V45.7866C42.3633 45.5467 42.5545 45.3555 42.7944 45.3555H78.5238C78.7638 45.3555 78.955 45.5467 78.955 45.7866V57.214C78.955 57.454 78.7638 57.6452 78.5238 57.6452H78.5276ZM43.2293 56.7829H78.0964V46.2178H43.2256V56.7829H43.2293Z" fill="#F0663F"/>
<g opacity="0.5">
<path d="M78.5223 45.7852H42.793V57.2126H78.5223V45.7852Z" fill="#FAE0B7"/>
<path d="M78.5276 57.6452H42.7944C42.5545 57.6452 42.3633 57.454 42.3633 57.214V45.7866C42.3633 45.5467 42.5545 45.3555 42.7944 45.3555H78.5238C78.7638 45.3555 78.955 45.5467 78.955 45.7866V57.214C78.955 57.454 78.7638 57.6452 78.5238 57.6452H78.5276ZM43.2293 56.7829H78.0964V46.2178H43.2256V56.7829H43.2293Z" fill="#F0663F"/>
</g>
<path d="M80.3232 34.0312H78.5273V57.1897H80.3232V34.0312Z" fill="white"/>
<path d="M80.3247 57.6224H78.5288C78.2889 57.6224 78.0977 57.4311 78.0977 57.1912V34.0327C78.0977 33.7928 78.2889 33.6016 78.5288 33.6016H80.3247C80.5646 33.6016 80.7558 33.7928 80.7558 34.0327V57.1912C80.7558 57.4311 80.5646 57.6224 80.3247 57.6224ZM78.96 56.76H79.8935V34.4639H78.96V56.76Z" fill="#F0663F"/>
<path d="M83.0227 57.1953H42.9743C42.1213 57.1953 41.4297 57.8869 41.4297 58.74C41.4297 59.593 42.1213 60.2846 42.9743 60.2846H83.0227C83.8758 60.2846 84.5674 59.593 84.5674 58.74C84.5674 57.8869 83.8758 57.1953 83.0227 57.1953Z" fill="#FAE0B7"/>
<path d="M83.0242 60.7172H42.9758C41.8848 60.7172 41 59.8324 41 58.7414C41 57.6504 41.8848 56.7656 42.9758 56.7656H83.0242C84.1152 56.7656 85 57.6504 85 58.7414C85 59.8324 84.1152 60.7172 83.0242 60.7172ZM42.9758 57.6279C42.3609 57.6279 41.8623 58.1266 41.8623 58.7414C41.8623 59.3563 42.3609 59.8549 42.9758 59.8549H83.0242C83.6391 59.8549 84.1377 59.3563 84.1377 58.7414C84.1377 58.1266 83.6391 57.6279 83.0242 57.6279H42.9758Z" fill="#F0663F"/>
<path d="M79.5366 37.0536C81.0108 37.0536 82.206 35.8585 82.206 34.3842C82.206 32.91 81.0108 31.7148 79.5366 31.7148C78.0623 31.7148 76.8672 32.91 76.8672 34.3842C76.8672 35.8585 78.0623 37.0536 79.5366 37.0536Z" fill="white"/>
<path d="M79.538 37.4902C77.8284 37.4902 76.4375 36.0992 76.4375 34.3896C76.4375 32.68 77.8284 31.2891 79.538 31.2891C81.2477 31.2891 82.6386 32.68 82.6386 34.3896C82.6386 36.0992 81.2477 37.4902 79.538 37.4902ZM79.538 32.1476C78.3046 32.1476 77.2998 33.1524 77.2998 34.3859C77.2998 35.6193 78.3046 36.6241 79.538 36.6241C80.7715 36.6241 81.7763 35.6193 81.7763 34.3859C81.7763 33.1524 80.7715 32.1476 79.538 32.1476Z" fill="#F0663F"/>
<path d="M48.4634 46.2178H41.6812C41.4412 46.2178 41.25 46.0266 41.25 45.7866C41.25 45.5467 41.4412 45.3555 41.6812 45.3555H48.4634C48.7033 45.3555 48.8945 45.5467 48.8945 45.7866C48.8945 46.0266 48.7033 46.2178 48.4634 46.2178Z" fill="#F0663F"/>
<path d="M79.5345 35.1472C79.9548 35.1472 80.2956 34.8064 80.2956 34.3861C80.2956 33.9657 79.9548 33.625 79.5345 33.625C79.1142 33.625 78.7734 33.9657 78.7734 34.3861C78.7734 34.8064 79.1142 35.1472 79.5345 35.1472Z" fill="white"/>
<path d="M79.536 35.5798C78.8799 35.5798 78.3438 35.0436 78.3438 34.3875C78.3438 33.7314 78.8799 33.1953 79.536 33.1953C80.1921 33.1953 80.7282 33.7314 80.7282 34.3875C80.7282 35.0436 80.1921 35.5798 79.536 35.5798ZM79.536 34.0576C79.3523 34.0576 79.2061 34.2076 79.2061 34.3875C79.2061 34.5675 79.356 34.7175 79.536 34.7175C79.7159 34.7175 79.8659 34.5675 79.8659 34.3875C79.8659 34.2076 79.7159 34.0576 79.536 34.0576Z" fill="#F0663F"/>
</g>
<path d="M44.196 93.184C43.1933 93.3227 41.748 93.4453 39.86 93.552C37.6947 93.6373 36.1693 93.6853 35.284 93.696C35.1987 93.2267 35.14 92.8693 35.108 92.624C36.004 92.624 36.692 92.6187 37.172 92.608L36.66 86.8L37.892 86.656L38.292 92.592C38.6653 92.5813 39.2147 92.5547 39.94 92.512C40.004 92.512 40.0893 92.512 40.196 92.512C40.3027 92.5013 40.388 92.496 40.452 92.496C40.6333 89.712 40.7667 87.76 40.852 86.64L42.068 86.784C41.8547 89.0667 41.684 90.9493 41.556 92.432C42.6333 92.368 43.4813 92.288 44.1 92.192L44.196 93.184ZM46.5 97.12H45.284V83.136H46.5V97.12ZM43.332 85.632H35.492V84.608H43.332V85.632ZM60.1558 88.56H52.2198V90.736H60.5718V91.76H50.9878V84.48H60.4278V85.504H52.2198V87.536H60.1558V88.56ZM62.0758 95.344H49.4518V94.32H62.0758V95.344ZM75.1235 83.136V97.12H73.9235V83.136H75.1235ZM72.4995 91.984L72.6115 93.04C71.8328 93.2213 70.6862 93.376 69.1715 93.504C67.6568 93.6213 66.3342 93.68 65.2035 93.68H64.5795V84.592H65.8115V92.608C66.7608 92.608 67.9128 92.5493 69.2675 92.432C70.6328 92.304 71.7102 92.1547 72.4995 91.984ZM90.2993 90.336L89.6273 91.36C88.4966 91.0187 87.4193 90.4373 86.3953 89.616C85.3819 88.784 84.7259 87.9947 84.4273 87.248C84.1713 87.9947 83.5419 88.784 82.5393 89.616C81.5366 90.4373 80.4486 91.0133 79.2753 91.344L78.6353 90.304C79.8619 90.0587 81.0299 89.4507 82.1393 88.48C83.2593 87.5093 83.8193 86.4853 83.8193 85.408V84.304H85.0833V85.408C85.0833 85.952 85.2539 86.5067 85.5953 87.072C85.9366 87.6267 86.3686 88.1227 86.8913 88.56C87.4139 88.9867 87.9739 89.36 88.5713 89.68C89.1793 90 89.7553 90.2187 90.2993 90.336ZM90.7633 95.2H78.1393V94.176H90.7633V95.2Z" fill="#262626"/>
<defs>
<clipPath id="clip0_841_9152">
<rect width="44" height="29.4308" fill="white" transform="translate(41 31.2852)"/>
</clipPath>
</defs>
</svg>
