<svg width="126" height="126" viewBox="0 0 126 126" fill="none" xmlns="http://www.w3.org/2000/svg">
<rect x="0.5" y="0.5" width="125" height="125" rx="15.5" stroke="#F0663F"/>
<g clip-path="url(#clip0_841_9157)">
<path d="M71.958 27.8122V27.6797H54.0384V27.7849C54.0384 29.1451 53.4499 30.4545 52.3899 31.308C48.7109 34.2544 46.2673 38.6894 45.9984 43.6506C45.823 46.8815 46.5518 49.933 47.9548 52.5676C49.9775 56.3713 51.7234 60.3192 52.955 64.4464L53.4227 66.017C53.6955 66.925 54.5295 67.5486 55.4765 67.5486H70.5082C71.4552 67.5486 72.2932 66.925 72.5621 66.017C73.9456 61.3753 75.7422 56.8623 78.0221 52.587C79.2926 50.2019 80.0136 47.4816 80.0136 44.5899C80.0136 39.2389 77.5467 34.4687 73.6884 31.347C72.6127 30.474 71.9541 29.1918 71.9541 27.8044L71.958 27.8122Z" fill="white"/>
<path d="M70.5159 67.9996H55.4803C54.3423 67.9996 53.3212 67.2397 52.9938 66.1484L52.5262 64.5779C51.4037 60.8131 49.7786 56.9548 47.5572 52.7809C46.0723 49.9826 45.3786 46.8181 45.554 43.6262C45.819 38.704 48.208 34.0857 52.1091 30.9562C53.0484 30.2002 53.5901 29.0466 53.5901 27.7839V27.6787C53.5901 27.4292 53.7889 27.2305 54.0383 27.2305H71.9579C72.2073 27.2305 72.406 27.4292 72.406 27.6787V27.8112C72.406 29.0349 72.9789 30.1963 73.9766 31.003C78.1038 34.3391 80.4695 39.2925 80.4695 44.5927C80.4695 47.4533 79.7641 50.2905 78.4234 52.8004C76.2526 56.873 74.4248 61.3626 72.9984 66.1484C72.675 67.2397 71.65 67.9996 70.512 67.9996H70.5159ZM54.4748 28.1268C54.3851 29.5298 53.7382 30.8004 52.6704 31.6577C48.968 34.6236 46.6998 39.0041 46.4503 43.673C46.2867 46.7011 46.9453 49.7059 48.3561 52.3561C50.6048 56.5846 52.2494 60.4974 53.3913 64.3167L53.859 65.8873C54.0734 66.6005 54.7398 67.0994 55.4842 67.0994H70.5159C71.2603 67.0994 71.9306 66.6005 72.141 65.8873C73.5869 61.0469 75.4342 56.4988 77.6323 52.3755C78.9028 49.9982 79.5731 47.3052 79.5731 44.5927C79.5731 39.5653 77.3283 34.8652 73.4115 31.6967C72.2891 30.7887 71.611 29.5026 71.5214 28.1229H54.4748V28.1268Z" fill="#F0663F"/>
<path d="M55.1913 24.4492H70.8037C71.7547 24.4492 72.5302 25.2209 72.5302 26.1757V27.68H53.4648V26.1757C53.4648 25.2248 54.2365 24.4492 55.1913 24.4492Z" fill="white"/>
<path d="M72.5292 28.1272H53.4638C53.2144 28.1272 53.0156 27.9284 53.0156 27.679V26.1747C53.0156 24.9782 53.9899 24 55.1903 24H70.8027C71.9991 24 72.9774 24.9743 72.9774 26.1747V27.679C72.9774 27.9284 72.7786 28.1272 72.5292 28.1272ZM53.912 27.2308H72.081V26.1747C72.081 25.4693 71.5081 24.8964 70.8027 24.8964H55.1903C54.4849 24.8964 53.912 25.4693 53.912 26.1747V27.2308Z" fill="#F0663F"/>
<path d="M65.8584 38.1843C64.9503 37.5413 63.9136 37.2724 62.9978 37.3659C62.078 37.2724 61.0452 37.5374 60.1372 38.1843C58.4263 39.4003 57.8222 41.4853 58.7887 42.8454C59.4123 43.7223 60.5308 44.0809 61.7078 43.9016C62.5652 43.7691 63.4343 43.7691 64.2917 43.9016C65.4686 44.0809 66.591 43.7223 67.2107 42.8454C68.1772 41.4853 67.5692 39.4003 65.8623 38.1843H65.8584Z" fill="#FAE0B7"/>
<path d="M64.8834 44.3919C64.669 44.3919 64.4469 44.3764 64.2208 44.3413C63.4063 44.2166 62.584 44.2166 61.7695 44.3413C60.3703 44.5556 59.1193 44.0919 58.4178 43.1019C57.8722 42.3303 57.7319 41.3482 58.0242 40.3349C58.3087 39.3567 58.9634 38.4642 59.8754 37.8173C60.8146 37.1508 61.9487 36.8235 62.9971 36.9131C64.0416 36.8235 65.1796 37.1469 66.1188 37.8173C67.0268 38.4642 67.6855 39.3567 67.97 40.3349C68.2623 41.3482 68.1259 42.3303 67.5764 43.1019C66.9879 43.9321 66.0097 44.3919 64.8834 44.3919ZM62.9971 43.3514C63.4531 43.3514 63.9051 43.3864 64.3572 43.4566C65.4134 43.6164 66.3409 43.2929 66.8437 42.5836C67.2295 42.0419 67.323 41.3287 67.1087 40.5843C66.8827 39.801 66.3448 39.08 65.6005 38.55C64.821 37.9965 63.8896 37.7276 63.0439 37.8134C63.0127 37.8134 62.9854 37.8134 62.9542 37.8134C62.1085 37.7276 61.1771 37.9965 60.3976 38.55C59.6532 39.08 59.1154 39.801 58.8894 40.5843C58.675 41.3287 58.7686 42.0419 59.1544 42.5836C59.6571 43.289 60.5847 43.6164 61.6408 43.4566C62.0929 43.3864 62.545 43.3514 63.001 43.3514H62.9971Z" fill="#F0663F"/>
<path d="M60.7315 35.5177C61.4203 35.5177 61.9786 34.9593 61.9786 34.2706C61.9786 33.5818 61.4203 33.0234 60.7315 33.0234C60.0427 33.0234 59.4844 33.5818 59.4844 34.2706C59.4844 34.9593 60.0427 35.5177 60.7315 35.5177Z" fill="#FAE0B7"/>
<path d="M60.7326 35.9606C60.5222 35.9606 60.3117 35.9217 60.1091 35.8398C59.6882 35.6722 59.3569 35.3527 59.1776 34.9357C58.8074 34.0783 59.2049 33.0806 60.0623 32.7103C60.4754 32.5311 60.9392 32.5233 61.3601 32.6908C61.781 32.8584 62.1123 33.178 62.2915 33.595C62.4708 34.012 62.4786 34.4719 62.311 34.8928C62.1434 35.3137 61.8239 35.645 61.4069 35.8242C61.1925 35.9178 60.9626 35.9645 60.7365 35.9645L60.7326 35.9606ZM60.7326 33.4664C60.6235 33.4664 60.5183 33.4898 60.417 33.5326C60.2221 33.6184 60.0701 33.7743 59.9922 33.9691C59.9142 34.1679 59.9181 34.3822 60 34.581C60.0857 34.7759 60.2416 34.9279 60.4364 35.0058C60.6313 35.0838 60.8496 35.0799 61.0483 34.998C61.2471 34.9162 61.3952 34.7564 61.4731 34.5615C61.5511 34.3628 61.5472 34.1484 61.4653 33.9497C61.3835 33.7509 61.2237 33.6028 61.0288 33.5249C60.9353 33.4859 60.834 33.4664 60.7365 33.4664H60.7326Z" fill="#F0663F"/>
<path d="M65.2627 35.5177C65.9515 35.5177 66.5099 34.9593 66.5099 34.2706C66.5099 33.5818 65.9515 33.0234 65.2627 33.0234C64.574 33.0234 64.0156 33.5818 64.0156 34.2706C64.0156 34.9593 64.574 35.5177 65.2627 35.5177Z" fill="#FAE0B7"/>
<path d="M65.2614 35.9606C65.0315 35.9606 64.8054 35.9139 64.5911 35.8203C64.1741 35.6411 63.8545 35.3098 63.6869 34.8889C63.5194 34.468 63.5271 34.0081 63.7064 33.5911C63.8857 33.1741 64.217 32.8545 64.6379 32.6869C65.0588 32.5194 65.5186 32.5271 65.9357 32.7064C66.3527 32.8857 66.6722 33.217 66.8398 33.6379C67.0074 34.0588 66.9996 34.5186 66.8203 34.9357C66.6411 35.3527 66.3098 35.6722 65.8889 35.8398C65.6862 35.9217 65.4758 35.9606 65.2653 35.9606H65.2614ZM65.2614 33.4664C65.164 33.4664 65.0627 33.4859 64.9691 33.5248C64.7704 33.6028 64.6145 33.7548 64.5326 33.9496C64.4508 34.1445 64.443 34.3628 64.5248 34.5615C64.6028 34.7603 64.7548 34.9162 64.9496 34.998C65.1445 35.0798 65.3628 35.0876 65.5615 35.0058C65.7603 34.9279 65.9162 34.7759 65.998 34.581C66.0798 34.3861 66.0876 34.1679 66.0058 33.9691C65.9279 33.7704 65.7759 33.6145 65.581 33.5326C65.4797 33.4898 65.3705 33.4664 65.2653 33.4664H65.2614Z" fill="#F0663F"/>
<path d="M56.8174 38.006C57.5062 38.006 58.0646 37.4476 58.0646 36.7588C58.0646 36.0701 57.5062 35.5117 56.8174 35.5117C56.1287 35.5117 55.5703 36.0701 55.5703 36.7588C55.5703 37.4476 56.1287 38.006 56.8174 38.006Z" fill="#FAE0B7"/>
<path d="M56.8186 38.4553C56.6081 38.4553 56.3977 38.4163 56.195 38.3345C55.7741 38.1669 55.4428 37.8473 55.2636 37.4303C54.8933 36.5729 55.2909 35.5752 56.1482 35.205C57.0056 34.8347 58.0033 35.2323 58.3736 36.0897C58.5529 36.5067 58.5606 36.9665 58.3931 37.3874C58.2255 37.8083 57.9059 38.1396 57.4889 38.3189C57.2746 38.4124 57.0446 38.4592 56.8186 38.4592V38.4553ZM56.8186 35.961C56.7133 35.961 56.6081 35.9805 56.5029 36.0273C56.0976 36.2027 55.9144 36.6703 56.0859 37.0757C56.1716 37.2705 56.3275 37.4225 56.5224 37.5005C56.7211 37.5784 56.9355 37.5745 57.1343 37.4927C57.3291 37.4069 57.4811 37.251 57.5591 37.0562C57.637 36.8574 57.6331 36.6431 57.5513 36.4443C57.4226 36.1442 57.1265 35.9649 56.8186 35.9649V35.961Z" fill="#F0663F"/>
<path d="M69.169 38.0099C69.8578 38.0099 70.4161 37.4515 70.4161 36.7627C70.4161 36.074 69.8578 35.5156 69.169 35.5156C68.4802 35.5156 67.9219 36.074 67.9219 36.7627C67.9219 37.4515 68.4802 38.0099 69.169 38.0099Z" fill="#FAE0B7"/>
<path d="M69.1677 38.4567C68.9455 38.4567 68.7156 38.4139 68.4973 38.3164C68.0803 38.1371 67.7608 37.8059 67.5932 37.385C67.4256 36.9641 67.4334 36.5042 67.6127 36.0872C67.7919 35.6702 68.1232 35.3506 68.5441 35.183C68.965 35.0154 69.4249 35.0232 69.8419 35.2025C70.6993 35.5728 71.0968 36.5705 70.7266 37.4278C70.4499 38.067 69.8263 38.4489 69.1677 38.4489V38.4567ZM69.1677 35.9664C69.0663 35.9664 68.9689 35.9859 68.8754 36.0248C68.6766 36.1028 68.5207 36.2548 68.4389 36.4496C68.3531 36.6445 68.3493 36.8627 68.4311 37.0615C68.509 37.2603 68.661 37.4162 68.8559 37.498C69.2612 37.6734 69.7289 37.4863 69.9043 37.081C70.0796 36.6757 69.8926 36.208 69.4873 36.0326C69.3859 35.9898 69.2768 35.9664 69.1716 35.9664H69.1677Z" fill="#F0663F"/>
<path d="M66.7894 64.4611L58.4531 50.9727L61.5203 51.0077L68.2664 61.807L66.7894 64.4611Z" fill="#EB944D"/>
<path d="M66.7889 64.9087C66.633 64.9087 66.4888 64.8268 66.407 64.6943L58.0707 51.2059C57.985 51.0656 57.9811 50.8903 58.0629 50.7499C58.1448 50.6058 58.289 50.5161 58.4566 50.5239L61.5237 50.559C61.6757 50.559 61.816 50.6408 61.8978 50.7694L68.644 61.5687C68.7297 61.7051 68.7336 61.8805 68.6557 62.0247L67.1825 64.6787C67.1046 64.819 66.9604 64.9048 66.8006 64.9087H66.7889ZM59.2594 51.4281L66.7655 63.5719L67.7398 61.8182L61.2665 51.4515L59.2594 51.4281Z" fill="#F0663F"/>
<path d="M59.2036 64.4611L67.5438 50.9727L64.4766 51.0077L57.7305 61.807L59.2036 64.4611Z" fill="#EB944D"/>
<path d="M59.2037 64.9082H59.192C59.0322 64.9082 58.888 64.8186 58.8101 64.6783L57.3369 62.0242C57.259 61.88 57.2629 61.7086 57.3486 61.5683L64.0948 50.769C64.1766 50.6404 64.3169 50.5585 64.4689 50.5585L67.536 50.5234C67.7075 50.5234 67.8517 50.6092 67.9297 50.7495C68.0115 50.8898 68.0076 51.0652 67.9219 51.2055L59.5856 64.6939C59.5038 64.8264 59.3596 64.9082 59.2037 64.9082ZM58.2489 61.8177L59.2232 63.5714L66.7293 51.4276L64.7222 51.451L58.2489 61.8177Z" fill="#F0663F"/>
<path d="M67.5415 50.9823H58.4531L60.0315 48.3867H65.9631L67.5415 50.9823Z" fill="#EB944D"/>
<path d="M67.5435 51.4294H58.4551C58.2914 51.4294 58.1433 51.3437 58.0653 51.1995C57.9874 51.0553 57.9874 50.8838 58.0731 50.7474L59.6515 48.1519C59.7334 48.0193 59.8776 47.9375 60.0334 47.9375H65.9651C66.121 47.9375 66.2652 48.0193 66.347 48.1519L67.9254 50.7474C68.0111 50.8838 68.0111 51.0592 67.9332 51.1995C67.8552 51.3398 67.7032 51.4294 67.5435 51.4294ZM59.2501 50.5331H66.7445L65.7117 48.8339H60.2829L59.2501 50.5331Z" fill="#F0663F"/>
<g style="mix-blend-mode:darken">
<path d="M80.0209 44.5977C80.0209 47.4855 79.296 50.2058 78.0255 52.587C76.8875 54.7227 75.8703 56.9247 74.9623 59.1656C74.0542 61.4104 73.2592 63.6981 72.5655 66.017C72.2965 66.9289 71.4586 67.5525 70.5116 67.5525H68.7695C69.4983 67.5525 70.1414 66.9289 70.3479 66.017C71.4119 61.3753 72.7876 56.8623 74.5336 52.587C75.5118 50.2058 76.0652 47.4816 76.0652 44.5977C76.0652 39.2467 74.1711 34.4765 71.2053 31.3509C70.3791 30.4818 69.8725 29.1957 69.8725 27.8122V27.6797H71.9575V27.8122C71.9575 29.1957 72.6161 30.4818 73.6918 31.3509C77.5539 34.4765 80.0209 39.2467 80.0209 44.5977Z" fill="#FAE0B7"/>
</g>
<g style="mix-blend-mode:darken">
<path d="M72.5322 26.1757V27.68H69.5937V26.1757C69.5937 25.2209 68.822 24.4492 67.8672 24.4492H70.8057C71.7566 24.4492 72.5322 25.2209 72.5322 26.1757Z" fill="#FAE0B7"/>
</g>
</g>
<path d="M53.052 94.448C53.052 95.2693 52.6307 95.9147 51.788 96.384C50.956 96.864 49.8093 97.104 48.348 97.104C46.8867 97.104 45.74 96.864 44.908 96.384C44.076 95.9147 43.66 95.2693 43.66 94.448C43.66 93.6053 44.076 92.9493 44.908 92.48C45.74 92 46.8867 91.76 48.348 91.76C49.8093 91.76 50.956 92 51.788 92.48C52.6307 92.9493 53.052 93.6053 53.052 94.448ZM42.188 85.168V84.144H49.82V85.168H46.636C46.636 85.584 46.6413 85.84 46.652 85.936C46.7053 86.7893 47.068 87.5787 47.74 88.304C48.412 89.0187 49.1747 89.5147 50.028 89.792L49.356 90.768C48.6733 90.4907 48.0173 90.064 47.388 89.488C46.7587 88.912 46.3 88.3147 46.012 87.696C45.82 88.336 45.3773 88.992 44.684 89.664C43.9907 90.3253 43.26 90.8213 42.492 91.152L41.788 90.208C42.7267 89.856 43.5533 89.2747 44.268 88.464C44.9827 87.6533 45.356 86.8053 45.388 85.92C45.388 85.8987 45.388 85.8027 45.388 85.632C45.3987 85.4613 45.404 85.3067 45.404 85.168H42.188ZM51.804 94.448C51.804 93.9147 51.4947 93.504 50.876 93.216C50.268 92.928 49.4253 92.784 48.348 92.784C47.2813 92.784 46.444 92.928 45.836 93.216C45.228 93.504 44.924 93.9147 44.924 94.448C44.924 94.96 45.228 95.3653 45.836 95.664C46.444 95.952 47.2813 96.096 48.348 96.096C49.4147 96.096 50.2573 95.952 50.876 95.664C51.4947 95.3653 51.804 94.96 51.804 94.448ZM55.02 88.032H52.86V91.728H51.644V83.136H52.86V87.008H55.02V88.032ZM68.2438 97.12H67.0438V83.136H68.2438V97.12ZM64.4998 91.136H62.5958V90.096H64.4998V87.792H62.5958V86.768H64.4998V83.472H65.6838V96.4H64.4998V91.136ZM62.8358 92.272L62.9478 93.264C61.6358 93.52 59.9504 93.648 57.8918 93.648H57.0118V88.496H60.7238V85.792H56.9798V84.784H61.9558V89.504H58.2278V92.608C60.0944 92.6293 61.6304 92.5173 62.8358 92.272ZM82.2195 91.472H81.0035V83.136H82.2195V91.472ZM79.2435 89.68L78.5235 90.64C77.7768 90.3093 77.0728 89.8453 76.4115 89.248C75.7502 88.6507 75.2862 88.0107 75.0195 87.328C74.8062 88.0533 74.3742 88.7573 73.7235 89.44C73.0835 90.112 72.3208 90.672 71.4355 91.12L70.6835 90.144C71.7288 89.7173 72.6035 89.056 73.3075 88.16C74.0115 87.2533 74.3635 86.2667 74.3635 85.2V83.712H75.5955V85.152C75.5955 86.1973 75.9688 87.136 76.7155 87.968C77.4622 88.7893 78.3048 89.36 79.2435 89.68ZM82.2195 97.12H81.0035V93.248H72.8915V92.24H82.2195V97.12Z" fill="#262626"/>
<defs>
<clipPath id="clip0_841_9157">
<rect width="34.9428" height="44" fill="white" transform="translate(45.5273 24)"/>
</clipPath>
</defs>
</svg>
