<svg width="12" height="7" viewBox="0 0 12 7" fill="none" xmlns="http://www.w3.org/2000/svg">
<path d="M6.00345 6.87757C6.09096 6.87757 6.17386 6.86145 6.25216 6.82921C6.33506 6.79237 6.40645 6.7417 6.46632 6.67723L11.8135 1.19881C11.9378 1.07446 12 0.927081 12 0.756672C12 0.636926 11.9724 0.528693 11.9171 0.431975C11.8618 0.335256 11.7858 0.259263 11.6891 0.203995C11.597 0.148728 11.4911 0.121094 11.3713 0.121094C11.2009 0.121094 11.0512 0.180967 10.9223 0.300714L5.6304 5.71004H6.3696L1.07772 0.300714C0.953368 0.180967 0.803684 0.121094 0.62867 0.121094C0.508923 0.121094 0.400691 0.148728 0.303972 0.203995C0.21186 0.259263 0.138169 0.335256 0.0829016 0.431975C0.0276339 0.528693 0 0.636926 0 0.756672C0 0.84418 0.0161197 0.927081 0.0483592 1.00538C0.0805987 1.07907 0.126655 1.14585 0.186528 1.20572L5.53368 6.67723C5.67185 6.81079 5.82844 6.87757 6.00345 6.87757Z" fill="#7B7B7B"/>
</svg>
