<svg width="48" height="48" viewBox="0 0 48 48" fill="none" xmlns="http://www.w3.org/2000/svg">
<g clip-path="url(#clip0_618_4829)">
<path d="M24 23.5C23.337 23.5 22.7011 23.2366 22.2322 22.7678C21.7634 22.2989 21.5 21.663 21.5 21C21.5 20.337 21.7634 19.7011 22.2322 19.2322C22.7011 18.7634 23.337 18.5 24 18.5C24.663 18.5 25.2989 18.7634 25.7678 19.2322C26.2366 19.7011 26.5 20.337 26.5 21C26.5 21.3283 26.4353 21.6534 26.3097 21.9567C26.1841 22.26 25.9999 22.5356 25.7678 22.7678C25.5356 22.9999 25.26 23.1841 24.9567 23.3097C24.6534 23.4353 24.3283 23.5 24 23.5ZM24 14C22.1435 14 20.363 14.7375 19.0503 16.0503C17.7375 17.363 17 19.1435 17 21C17 26.25 24 34 24 34C24 34 31 26.25 31 21C31 19.1435 30.2625 17.363 28.9497 16.0503C27.637 14.7375 25.8565 14 24 14Z" fill="white"/>
</g>
<defs>
<clipPath id="clip0_618_4829">
<rect x="4" y="4" width="40" height="40" rx="20" fill="white"/>
</clipPath>
</defs>
</svg>
