<svg width="84" height="27" viewBox="0 0 84 27" fill="none" xmlns="http://www.w3.org/2000/svg">
<path d="M21.174 14.0949H23.8506C24.6843 14.0949 25.264 13.9043 25.5897 13.523C25.9153 13.1416 26.0799 12.559 26.0799 11.7752V8.51628H27.5971C28.3307 8.51628 28.6993 8.17379 28.6993 7.48882C28.6993 6.80384 28.3307 6.46136 27.5971 6.46136H26.0799V3.23068C26.0799 1.07689 24.8883 0 22.5087 0C20.1291 0 18.9375 1.07689 18.9375 3.23068V11.7752C18.9375 12.559 19.1021 13.1416 19.4277 13.523C19.7534 13.9043 20.3366 14.0949 21.1668 14.0949H21.174Z" fill="url(#paint0_linear_841_2242)"/>
<path d="M14.8385 13.5089C15.6722 13.5089 16.2519 13.3183 16.5776 12.937C16.9032 12.5556 17.0678 11.973 17.0678 11.1892V3.20255C17.0678 2.41871 16.9032 1.83613 16.5776 1.4548C16.2519 1.07348 15.6687 0.882812 14.8385 0.882812H2.72932C1.89556 0.882812 1.31587 1.07348 0.990235 1.4548C0.664604 1.83613 0.5 2.41871 0.5 3.20255V11.1892C0.5 11.973 0.664604 12.5556 0.990235 12.937C1.31587 13.3183 1.89914 13.5089 2.72932 13.5089H14.8385ZM7.63882 3.52738C7.63882 3.13546 7.87857 2.94127 8.35449 2.94127H9.21688C9.6928 2.94127 9.93255 3.13546 9.93255 3.52738V10.8679C9.93255 11.2598 9.6928 11.454 9.21688 11.454H8.35449C7.87857 11.454 7.63882 11.2598 7.63882 10.8679V3.52738Z" fill="url(#paint1_linear_841_2242)"/>
<path d="M55.4055 21.6102C54.9582 21.2183 54.2318 21.0241 53.2191 21.0241H48.3382C47.941 21.0241 47.6726 20.9641 47.5367 20.8476C47.3971 20.7311 47.3291 20.4945 47.3291 20.1414V15.0041C47.3291 12.8503 46.1375 11.7734 43.7579 11.7734C41.3783 11.7734 40.1867 12.8503 40.1867 15.0041V21.6385C40.1867 22.1469 40.3048 22.5141 40.5446 22.7401C40.7843 22.9661 41.2101 23.079 41.8256 23.079H49.3437C49.0754 23.365 48.9358 23.6934 48.9358 24.0783C48.9358 24.2725 48.8463 24.3713 48.6674 24.3713H9.54167C9.06574 24.3713 8.82599 24.1771 8.82599 23.7852V22.1716C8.82599 21.7797 9.06574 21.5855 9.54167 21.5855H23.8515C24.6853 21.5855 25.265 21.3949 25.5906 21.0135C25.9162 20.6322 26.0808 20.0496 26.0808 19.2658V17.5922C26.0808 16.8084 25.9162 16.2258 25.5906 15.8444C25.265 15.4631 24.6817 15.2725 23.8515 15.2725H2.78573C2.05216 15.2725 1.68359 15.6149 1.68359 16.2999C1.68359 16.9849 2.05216 17.3274 2.78573 17.3274H18.2263C18.7023 17.3274 18.942 17.5216 18.942 17.9135V18.941C18.942 19.3329 18.7023 19.5271 18.2263 19.5271H3.91649C3.08273 19.5271 2.50304 19.7177 2.17741 20.0991C1.85178 20.4804 1.68717 21.063 1.68717 21.8468V24.1065C1.68717 24.8903 1.85178 25.4729 2.17741 25.8543C2.50304 26.2356 3.08631 26.4262 3.91649 26.4262H54.4357C55.0512 26.4262 55.477 26.3133 55.7168 26.0873C55.9565 25.8613 56.0746 25.4941 56.0746 24.9857V23.4286C56.0746 22.6059 55.8528 21.9986 55.4055 21.6102Z" fill="url(#paint2_linear_841_2242)"/>
<path d="M30.3987 3.52758H31.4686C31.9445 3.52758 32.1843 3.72177 32.1843 4.11369V15.5923C32.1843 16.3761 32.3489 16.9587 32.6745 17.3401C33.0001 17.7214 33.5834 17.912 34.4136 17.912H37.0902C37.924 17.912 38.5037 17.7214 38.8293 17.3401C39.1549 16.9587 39.3195 16.3761 39.3195 15.5923V3.79239C39.3195 3.00855 39.1549 2.42597 38.8293 2.04465C38.5037 1.66332 37.9204 1.47266 37.0902 1.47266H30.3951C29.6615 1.47266 29.293 1.81514 29.293 2.50012C29.293 3.18509 29.6615 3.52758 30.3951 3.52758H30.3987Z" fill="url(#paint3_linear_841_2242)"/>
<path d="M42.3284 3.52758H47.5635C48.0394 3.52758 48.2792 3.72177 48.2792 4.11369V15.5923C48.2792 16.3761 48.4438 16.9587 48.7694 17.3401C49.095 17.7214 49.6783 17.912 50.5085 17.912H53.1851C54.0189 17.912 54.5986 17.7214 54.9242 17.3401C55.2498 16.9587 55.4144 16.3761 55.4144 15.5923V3.79239C55.4144 3.00855 55.2498 2.42597 54.9242 2.04465C54.5986 1.66332 54.0153 1.47266 53.1851 1.47266H42.3248C41.5912 1.47266 41.2227 1.81514 41.2227 2.50012C41.2227 3.18509 41.5876 3.52758 42.3248 3.52758H42.3284Z" fill="url(#paint4_linear_841_2242)"/>
<path d="M79.9345 0.00390625C77.5549 0.00390625 76.3633 1.0808 76.3633 3.23458V24.6806C76.3633 25.4645 76.5279 26.0471 76.8535 26.4284C77.1791 26.8097 77.7624 27.0004 78.5926 27.0004H81.2692C82.103 27.0004 82.6827 26.8097 83.0083 26.4284C83.3339 26.0471 83.4985 25.4645 83.4985 24.6806V3.23458C83.4985 1.0808 82.3069 0.00390625 79.9273 0.00390625H79.9345Z" fill="url(#paint5_linear_841_2242)"/>
<path d="M73.4525 22.2408C72.8585 21.75 71.9639 21.5064 70.7759 21.5064C69.5879 21.5064 68.6933 21.743 68.0993 22.2126C67.5053 22.6822 67.2083 23.2789 67.2083 24.0027C67.2083 24.3946 66.9793 24.5888 66.5248 24.5888H65.1865C64.7106 24.5888 64.4709 24.3946 64.4709 24.0027V14.3883C64.4709 13.9964 64.7106 13.8022 65.1865 13.8022H71.4057C72.2395 13.8022 72.8192 13.6115 73.1448 13.2302C73.4704 12.8489 73.635 12.2663 73.635 11.4825V3.79239C73.635 3.00855 73.4704 2.42597 73.1448 2.04465C72.8192 1.66332 72.2359 1.47266 71.4057 1.47266H58.4342C57.7006 1.47266 57.332 1.81514 57.332 2.50012C57.332 3.18509 57.7006 3.52758 58.4342 3.52758H65.7841C66.26 3.52758 66.4998 3.72177 66.4998 4.11369V11.1612C66.4998 11.5531 66.3101 11.7473 65.9344 11.7473H59.5685C58.7347 11.7473 58.1551 11.9379 57.8294 12.3193C57.5038 12.7006 57.3392 13.2832 57.3392 14.067V24.3275C57.3392 25.1113 57.5038 25.6939 57.8294 26.0752C58.1551 26.4566 58.7383 26.6472 59.5685 26.6472H72.719C73.3344 26.6472 73.7603 26.5343 74 26.3083C74.2398 26.0823 74.3579 25.7151 74.3579 25.2067V24.2957C74.3579 23.4166 74.0609 22.7316 73.4668 22.2408H73.4525Z" fill="url(#paint6_linear_841_2242)"/>
<defs>
<linearGradient id="paint0_linear_841_2242" x1="23.822" y1="14.0949" x2="23.822" y2="0.003531" gradientUnits="userSpaceOnUse">
<stop stop-color="#E45939"/>
<stop offset="1" stop-color="#EB954D"/>
</linearGradient>
<linearGradient id="paint1_linear_841_2242" x1="8.7839" y1="13.5089" x2="8.7839" y2="0.882812" gradientUnits="userSpaceOnUse">
<stop stop-color="#E45939"/>
<stop offset="1" stop-color="#EB954D"/>
</linearGradient>
<linearGradient id="paint2_linear_841_2242" x1="28.8791" y1="26.4227" x2="28.8791" y2="11.7734" gradientUnits="userSpaceOnUse">
<stop stop-color="#E45939"/>
<stop offset="1" stop-color="#EB954D"/>
</linearGradient>
<linearGradient id="paint3_linear_841_2242" x1="34.3134" y1="17.912" x2="34.3134" y2="1.47266" gradientUnits="userSpaceOnUse">
<stop stop-color="#E45939"/>
<stop offset="1" stop-color="#EB954D"/>
</linearGradient>
<linearGradient id="paint4_linear_841_2242" x1="48.3257" y1="17.912" x2="48.3257" y2="1.47266" gradientUnits="userSpaceOnUse">
<stop stop-color="#E45939"/>
<stop offset="1" stop-color="#EB954D"/>
</linearGradient>
<linearGradient id="paint5_linear_841_2242" x1="79.9345" y1="26.9968" x2="79.9345" y2="0.00390625" gradientUnits="userSpaceOnUse">
<stop stop-color="#E45939"/>
<stop offset="1" stop-color="#EB954D"/>
</linearGradient>
<linearGradient id="paint6_linear_841_2242" x1="65.8342" y1="26.6472" x2="65.8342" y2="1.47266" gradientUnits="userSpaceOnUse">
<stop stop-color="#E45939"/>
<stop offset="1" stop-color="#EB954D"/>
</linearGradient>
</defs>
</svg>
