<svg width="42" height="48" viewBox="0 0 42 48" fill="none" xmlns="http://www.w3.org/2000/svg">
<path fill-rule="evenodd" clip-rule="evenodd" d="M37.3333 5.33268H35V0.666016H30.3333V5.33268H11.6667V0.666016H7V5.33268H4.66667C2.07667 5.33268 0 7.43268 0 9.99935V42.666C0 45.2327 2.07667 47.3327 4.66667 47.3327H37.3333C39.9 47.3327 42 45.2327 42 42.666V9.99935C42 7.43268 39.9 5.33268 37.3333 5.33268ZM37.3333 42.666H4.66667V16.9993H37.3333V42.666ZM8.16667 26.3327C8.16667 23.1127 10.78 20.4993 14 20.4993C17.22 20.4993 19.8333 23.1127 19.8333 26.3327C19.8333 29.5527 17.22 32.166 14 32.166C10.78 32.166 8.16667 29.5527 8.16667 26.3327Z" fill="#F0663F"/>
</svg>
