<svg width="24" height="25" viewBox="0 0 24 25" fill="none" xmlns="http://www.w3.org/2000/svg">
<path d="M12 24.9219C13.6392 24.9219 15.1804 24.6082 16.6235 23.9807C18.0745 23.3532 19.3529 22.4866 20.4588 21.3807C21.5647 20.2748 22.4314 19.0003 23.0588 17.5572C23.6863 16.1062 24 14.5611 24 12.9219C24 11.2827 23.6863 9.74148 23.0588 8.29835C22.4314 6.84737 21.5647 5.56893 20.4588 4.46305C19.3529 3.35717 18.0745 2.4905 16.6235 1.86305C15.1725 1.2356 13.6275 0.921875 11.9882 0.921875C10.349 0.921875 8.80392 1.2356 7.35294 1.86305C5.9098 2.4905 4.63529 3.35717 3.52941 4.46305C2.43137 5.56893 1.56863 6.84737 0.941176 8.29835C0.313725 9.74148 0 11.2827 0 12.9219C0 14.5611 0.313725 16.1062 0.941176 17.5572C1.56863 19.0003 2.43529 20.2748 3.54118 21.3807C4.64706 22.4866 5.92157 23.3532 7.36471 23.9807C8.81569 24.6082 10.3608 24.9219 12 24.9219ZM6.58824 18.416C5.9451 18.416 5.46275 18.2591 5.14118 17.9454C4.81961 17.6238 4.65882 17.1493 4.65882 16.5219V10.1101C4.65882 9.46697 4.81961 8.98854 5.14118 8.67482C5.46275 8.36109 5.9451 8.20423 6.58824 8.20423H8.11765C8.35294 8.20423 8.52549 8.17286 8.63529 8.11011C8.75294 8.04737 8.87843 7.9454 9.01176 7.80423L9.51765 7.23952C9.66667 7.07482 9.83137 6.94933 10.0118 6.86305C10.2 6.77678 10.451 6.73364 10.7647 6.73364H13.2118C13.5255 6.73364 13.7725 6.77678 13.9529 6.86305C14.1333 6.94933 14.298 7.07482 14.4471 7.23952L14.9529 7.80423C15.0863 7.95325 15.2078 8.05913 15.3176 8.12188C15.4353 8.17678 15.6118 8.20423 15.8471 8.20423H17.4235C18.0588 8.20423 18.5373 8.36109 18.8588 8.67482C19.1882 8.98854 19.3529 9.46697 19.3529 10.1101V16.5219C19.3529 17.1493 19.1882 17.6238 18.8588 17.9454C18.5373 18.2591 18.0588 18.416 17.4235 18.416H6.58824ZM12.0235 16.8866C12.6902 16.8866 13.298 16.7297 13.8471 16.416C14.3961 16.0944 14.8314 15.6591 15.1529 15.1101C15.4824 14.5611 15.6471 13.9415 15.6471 13.2513C15.6471 12.5768 15.4824 11.965 15.1529 11.416C14.8314 10.867 14.3961 10.4317 13.8471 10.1101C13.298 9.7807 12.6902 9.61599 12.0235 9.61599C11.349 9.61599 10.7373 9.7807 10.1882 10.1101C9.63922 10.4317 9.2 10.867 8.87059 11.416C8.54118 11.965 8.37647 12.5768 8.37647 13.2513C8.37647 13.9258 8.54118 14.5376 8.87059 15.0866C9.2 15.6356 9.63922 16.0748 10.1882 16.4042C10.7373 16.7258 11.349 16.8866 12.0235 16.8866ZM12.0118 15.8395C11.5333 15.8395 11.098 15.7258 10.7059 15.4983C10.3137 15.2631 10 14.9493 9.76471 14.5572C9.53726 14.165 9.42353 13.7297 9.42353 13.2513C9.42353 12.7729 9.53726 12.3376 9.76471 11.9454C10 11.5532 10.3137 11.2434 10.7059 11.016C11.098 10.7807 11.5333 10.6631 12.0118 10.6631C12.4824 10.6631 12.9137 10.7807 13.3059 11.016C13.698 11.2434 14.0078 11.5532 14.2353 11.9454C14.4706 12.3376 14.5882 12.7729 14.5882 13.2513C14.5882 13.7297 14.4706 14.165 14.2353 14.5572C14.0078 14.9493 13.698 15.2631 13.3059 15.4983C12.9137 15.7258 12.4824 15.8395 12.0118 15.8395ZM16.8588 11.4983C17.0863 11.4983 17.2784 11.4199 17.4353 11.2631C17.6 11.1062 17.6824 10.9101 17.6824 10.6748C17.6824 10.4474 17.6 10.2552 17.4353 10.0983C17.2784 9.94148 17.0863 9.86305 16.8588 9.86305C16.6314 9.86305 16.4353 9.94148 16.2706 10.0983C16.1137 10.2552 16.0353 10.4474 16.0353 10.6748C16.0353 10.9101 16.1137 11.1062 16.2706 11.2631C16.4353 11.4199 16.6314 11.4983 16.8588 11.4983Z" fill="#EB944D"/>
</svg>
