<svg width="49" height="49" viewBox="0 0 49 49" fill="none" xmlns="http://www.w3.org/2000/svg">
<g clip-path="url(#clip0_618_27788)">
<path d="M22.1406 33.8984H26.1406C26.1406 34.9984 25.2406 35.8984 24.1406 35.8984C23.0406 35.8984 22.1406 34.9984 22.1406 33.8984ZM33.1406 31.8984V32.8984H15.1406V31.8984L17.1406 29.8984V23.8984C17.1406 20.7984 19.1406 18.0984 22.1406 17.1984V16.8984C22.1406 15.7984 23.0406 14.8984 24.1406 14.8984C25.2406 14.8984 26.1406 15.7984 26.1406 16.8984V17.1984C29.1406 18.0984 31.1406 20.7984 31.1406 23.8984V29.8984L33.1406 31.8984ZM29.1406 23.8984C29.1406 21.0984 26.9406 18.8984 24.1406 18.8984C21.3406 18.8984 19.1406 21.0984 19.1406 23.8984V30.8984H29.1406V23.8984Z" fill="#7B7B7B"/>
</g>
<defs>
<clipPath id="clip0_618_27788">
<rect x="4.14062" y="4.89844" width="40" height="40" rx="20" fill="white"/>
</clipPath>
</defs>
</svg>
