<svg width="49" height="49" viewBox="0 0 49 49" fill="none" xmlns="http://www.w3.org/2000/svg">
<g clip-path="url(#clip0_618_27786)">
<path fill-rule="evenodd" clip-rule="evenodd" d="M24.1406 14.8984C18.6206 14.8984 14.1406 19.3784 14.1406 24.8984C14.1406 30.4184 18.6206 34.8984 24.1406 34.8984C29.6606 34.8984 34.1406 30.4184 34.1406 24.8984C34.1406 19.3784 29.6606 14.8984 24.1406 14.8984ZM30.5006 29.7284C29.0706 27.9884 25.6006 27.3984 24.1406 27.3984C22.6806 27.3984 19.2106 27.9884 17.7806 29.7284C16.7606 28.3884 16.1406 26.7184 16.1406 24.8984C16.1406 20.4884 19.7306 16.8984 24.1406 16.8984C28.5506 16.8984 32.1406 20.4884 32.1406 24.8984C32.1406 26.7184 31.5206 28.3884 30.5006 29.7284ZM20.6406 22.3984C20.6406 20.4584 22.2006 18.8984 24.1406 18.8984C26.0806 18.8984 27.6406 20.4584 27.6406 22.3984C27.6406 24.3384 26.0806 25.8984 24.1406 25.8984C22.2006 25.8984 20.6406 24.3384 20.6406 22.3984Z" fill="#7B7B7B"/>
</g>
<defs>
<clipPath id="clip0_618_27786">
<rect x="6.14062" y="6.89844" width="36" height="36" rx="18" fill="white"/>
</clipPath>
</defs>
</svg>
