<svg width="49" height="49" viewBox="0 0 49 49" fill="none" xmlns="http://www.w3.org/2000/svg">
<g clip-path="url(#clip0_618_27787)">
<path fill-rule="evenodd" clip-rule="evenodd" d="M26.9006 26.1684L32.6306 31.8984L31.1406 33.3884L25.4106 27.6584C24.3406 28.4284 23.0506 28.8984 21.6406 28.8984C18.0506 28.8984 15.1406 25.9884 15.1406 22.3984C15.1406 18.8084 18.0506 15.8984 21.6406 15.8984C25.2306 15.8984 28.1406 18.8084 28.1406 22.3984C28.1406 23.8084 27.6706 25.0984 26.9006 26.1684ZM21.6406 17.8984C19.1506 17.8984 17.1406 19.9084 17.1406 22.3984C17.1406 24.8884 19.1506 26.8984 21.6406 26.8984C24.1306 26.8984 26.1406 24.8884 26.1406 22.3984C26.1406 19.9084 24.1306 17.8984 21.6406 17.8984Z" fill="#7B7B7B"/>
</g>
<defs>
<clipPath id="clip0_618_27787">
<rect x="4.14062" y="4.89844" width="40" height="40" rx="20" fill="white"/>
</clipPath>
</defs>
</svg>
