<svg width="178" height="52" viewBox="0 0 178 52" fill="none" xmlns="http://www.w3.org/2000/svg">
<path d="M44.3407 27.1458H50.0809C51.869 27.1458 53.1122 26.7786 53.8105 26.0442C54.5089 25.3098 54.8619 24.1878 54.8619 22.6782V16.4017H58.1157C59.6889 16.4017 60.4793 15.7421 60.4793 14.4229C60.4793 13.1037 59.6889 12.4441 58.1157 12.4441H54.8619V6.22205C54.8619 2.07402 52.3064 0 47.2032 0C42.0999 0 39.5444 2.07402 39.5444 6.22205V22.6782C39.5444 24.1878 39.8974 25.3098 40.5958 26.0442C41.2941 26.7786 42.545 27.1458 44.3254 27.1458H44.3407Z" fill="url(#paint0_linear_1_54358)"/>
<path d="M30.75 26.0162C32.538 26.0162 33.7812 25.649 34.4796 24.9146C35.1779 24.1802 35.5309 23.0582 35.5309 21.5486V6.16685C35.5309 4.65724 35.1779 3.53523 34.4796 2.80083C33.7812 2.06642 32.5304 1.69922 30.75 1.69922H4.78094C2.99289 1.69922 1.74969 2.06642 1.05135 2.80083C0.353007 3.53523 0 4.65724 0 6.16685V21.5486C0 23.0582 0.353007 24.1802 1.05135 24.9146C1.74969 25.649 3.00056 26.0162 4.78094 26.0162H30.75ZM15.3098 6.79246C15.3098 6.03765 15.8239 5.66365 16.8446 5.66365H18.694C19.7147 5.66365 20.2288 6.03765 20.2288 6.79246V20.9298C20.2288 21.6846 19.7147 22.0586 18.694 22.0586H16.8446C15.8239 22.0586 15.3098 21.6846 15.3098 20.9298V6.79246Z" fill="url(#paint1_linear_1_54358)"/>
<path d="M117.751 41.6227C116.792 40.8679 115.234 40.4939 113.062 40.4939H102.595C101.743 40.4939 101.167 40.3783 100.876 40.1539C100.576 39.9295 100.43 39.4739 100.43 38.7939V28.8998C100.43 24.7518 97.875 22.6777 92.7717 22.6777C87.6685 22.6777 85.113 24.7518 85.113 28.8998V41.6771C85.113 42.6563 85.3662 43.3635 85.8804 43.7987C86.3946 44.2339 87.3078 44.4515 88.6277 44.4515H104.751C104.175 45.0023 103.876 45.6347 103.876 46.3759C103.876 46.7499 103.684 46.9403 103.301 46.9403H19.3923C18.3716 46.9403 17.8575 46.5663 17.8575 45.8115V42.7039C17.8575 41.9491 18.3716 41.5751 19.3923 41.5751H50.0809C51.8689 41.5751 53.1121 41.2079 53.8105 40.4735C54.5088 39.7391 54.8618 38.6171 54.8618 37.1074V33.8842C54.8618 32.3746 54.5088 31.2526 53.8105 30.5182C53.1121 29.7838 51.8613 29.4166 50.0809 29.4166H4.90365C3.33047 29.4166 2.54004 30.0762 2.54004 31.3954C2.54004 32.7146 3.33047 33.3742 4.90365 33.3742H38.0173C39.0379 33.3742 39.5521 33.7482 39.5521 34.503V36.4818C39.5521 37.2366 39.0379 37.6106 38.0173 37.6106H7.32866C5.5406 37.6106 4.2974 37.9779 3.59906 38.7123C2.90072 39.4467 2.54771 40.5687 2.54771 42.0783V46.4303C2.54771 47.9399 2.90072 49.0619 3.59906 49.7963C4.2974 50.5308 5.54827 50.8979 7.32866 50.8979H115.671C116.991 50.8979 117.904 50.6803 118.418 50.2451C118.933 49.8099 119.186 49.1027 119.186 48.1235V45.1247C119.186 43.5403 118.71 42.3707 117.751 41.6227Z" fill="url(#paint2_linear_1_54358)"/>
<path d="M64.1169 6.79357H66.4114C67.4321 6.79357 67.9463 7.16757 67.9463 7.92238V30.0293C67.9463 31.539 68.2993 32.661 68.9976 33.3954C69.6959 34.1298 70.9468 34.497 72.7272 34.497H78.4674C80.2555 34.497 81.4987 34.1298 82.197 33.3954C82.8953 32.661 83.2483 31.539 83.2483 30.0293V7.30357C83.2483 5.79396 82.8953 4.67195 82.197 3.93755C81.4987 3.20314 80.2478 2.83594 78.4674 2.83594H64.1092C62.536 2.83594 61.7456 3.49554 61.7456 4.81475C61.7456 6.13396 62.536 6.79357 64.1092 6.79357H64.1169Z" fill="url(#paint3_linear_1_54358)"/>
<path d="M89.7023 6.79357H100.93C101.95 6.79357 102.464 7.16757 102.464 7.92238V30.0293C102.464 31.539 102.817 32.661 103.516 33.3954C104.214 34.1298 105.465 34.497 107.245 34.497H112.985C114.774 34.497 116.017 34.1298 116.715 33.3954C117.413 32.661 117.766 31.539 117.766 30.0293V7.30357C117.766 5.79396 117.413 4.67195 116.715 3.93755C116.017 3.20314 114.766 2.83594 112.985 2.83594H89.6947C88.1215 2.83594 87.3311 3.49554 87.3311 4.81475C87.3311 6.13396 88.1138 6.79357 89.6947 6.79357H89.7023Z" fill="url(#paint4_linear_1_54358)"/>
<path d="M170.356 0.00585938C165.253 0.00585938 162.698 2.07988 162.698 6.22791V47.5314C162.698 49.041 163.051 50.163 163.749 50.8974C164.447 51.6319 165.698 51.9991 167.479 51.9991H173.219C175.007 51.9991 176.25 51.6319 176.948 50.8974C177.647 50.163 178 49.041 178 47.5314V6.22791C178 2.07988 175.444 0.00585938 170.341 0.00585938H170.356Z" fill="url(#paint5_linear_1_54358)"/>
<path d="M156.451 42.8339C155.177 41.8886 153.259 41.4194 150.711 41.4194C148.163 41.4194 146.245 41.875 144.971 42.7794C143.697 43.6839 143.06 44.8331 143.06 46.2271C143.06 46.9819 142.569 47.3559 141.594 47.3559H138.724C137.703 47.3559 137.189 46.9819 137.189 46.2271V27.7105C137.189 26.9557 137.703 26.5817 138.724 26.5817H152.062C153.85 26.5817 155.093 26.2145 155.791 25.4801C156.489 24.7457 156.842 23.6237 156.842 22.1141V7.30357C156.842 5.79396 156.489 4.67195 155.791 3.93755C155.093 3.20314 153.842 2.83594 152.062 2.83594H124.243C122.67 2.83594 121.879 3.49554 121.879 4.81475C121.879 6.13396 122.67 6.79357 124.243 6.79357H140.006C141.026 6.79357 141.54 7.16757 141.54 7.92238V21.4953C141.54 22.2501 141.134 22.6241 140.328 22.6241H126.676C124.888 22.6241 123.644 22.9913 122.946 23.7257C122.248 24.4601 121.895 25.5821 121.895 27.0917V46.8527C121.895 48.3623 122.248 49.4843 122.946 50.2187C123.644 50.9531 124.895 51.3203 126.676 51.3203H154.878C156.198 51.3203 157.111 51.1027 157.625 50.6675C158.139 50.2323 158.393 49.5251 158.393 48.5459V46.7915C158.393 45.0983 157.756 43.7791 156.482 42.8339H156.451Z" fill="url(#paint6_linear_1_54358)"/>
<defs>
<linearGradient id="paint0_linear_1_54358" x1="50.0195" y1="27.1458" x2="50.0195" y2="0.00680044" gradientUnits="userSpaceOnUse">
<stop stop-color="#E45939"/>
<stop offset="1" stop-color="#EB954D"/>
</linearGradient>
<linearGradient id="paint1_linear_1_54358" x1="17.7655" y1="26.0162" x2="17.7655" y2="1.69922" gradientUnits="userSpaceOnUse">
<stop stop-color="#E45939"/>
<stop offset="1" stop-color="#EB954D"/>
</linearGradient>
<linearGradient id="paint2_linear_1_54358" x1="60.8629" y1="50.8911" x2="60.8629" y2="22.6777" gradientUnits="userSpaceOnUse">
<stop stop-color="#E45939"/>
<stop offset="1" stop-color="#EB954D"/>
</linearGradient>
<linearGradient id="paint3_linear_1_54358" x1="72.5123" y1="34.497" x2="72.5123" y2="2.83594" gradientUnits="userSpaceOnUse">
<stop stop-color="#E45939"/>
<stop offset="1" stop-color="#EB954D"/>
</linearGradient>
<linearGradient id="paint4_linear_1_54358" x1="102.564" y1="34.497" x2="102.564" y2="2.83594" gradientUnits="userSpaceOnUse">
<stop stop-color="#E45939"/>
<stop offset="1" stop-color="#EB954D"/>
</linearGradient>
<linearGradient id="paint5_linear_1_54358" x1="170.356" y1="51.9923" x2="170.356" y2="0.00585938" gradientUnits="userSpaceOnUse">
<stop stop-color="#E45939"/>
<stop offset="1" stop-color="#EB954D"/>
</linearGradient>
<linearGradient id="paint6_linear_1_54358" x1="140.113" y1="51.3203" x2="140.113" y2="2.83594" gradientUnits="userSpaceOnUse">
<stop stop-color="#E45939"/>
<stop offset="1" stop-color="#EB954D"/>
</linearGradient>
</defs>
</svg>
