<svg width="48" height="49" viewBox="0 0 48 49" fill="none" xmlns="http://www.w3.org/2000/svg">
<g clip-path="url(#clip0_678_9938)">
<path d="M0 0.964844H48V48.9648H0" fill="white"/>
<path d="M8.4375 32.9336C9.67078 35.363 11.4395 37.4808 13.6102 39.1272C15.781 40.7737 18.2972 41.9059 20.9692 42.4385C23.6412 42.9711 26.3992 42.8902 29.0353 42.2018C31.6715 41.5135 34.117 40.2357 36.1875 38.4648V33.9648H30.375C25.4062 37.2461 17.1562 36.0273 14.3438 28.3398" fill="#34A853"/>
<path d="M36.1875 38.4648C38.2264 36.5691 39.7812 33.9744 40.6632 30.9955C41.5452 28.0166 41.7165 24.7818 41.1562 21.6836H24.375V28.6211H33.9375C33.5 30.9336 32.3125 32.7148 30.375 33.9648" fill="#4285F4"/>
<path d="M8.43811 32.9336C7.20565 30.4276 6.56641 27.69 6.56641 24.918C6.56641 22.1459 7.20565 19.4083 8.43811 16.9023L14.3444 21.4961C13.5944 23.8086 13.5944 26.0898 14.3444 28.3398" fill="#FBBC02"/>
<path d="M14.3438 21.4957C16.4062 15.0269 25.2188 11.2769 31.125 16.8082L36.2812 11.7457C28.9688 4.71441 14.7188 4.99566 8.4375 16.9019" fill="#EA4335"/>
</g>
<rect x="0.5" y="1.46484" width="47" height="47" rx="3.5" stroke="#F5F5F5"/>
<defs>
<clipPath id="clip0_678_9938">
<rect y="0.964844" width="48" height="48" rx="4" fill="white"/>
</clipPath>
</defs>
</svg>
