<svg width="48" height="49" viewBox="0 0 48 49" fill="none" xmlns="http://www.w3.org/2000/svg">
<g clip-path="url(#clip0_678_9944)">
<path d="M48 45.2148C48 47.2861 46.3213 48.9648 44.25 48.9648H3.75C1.67871 48.9648 0 47.2861 0 45.2148V4.71484C0 2.64355 1.67871 0.964844 3.75 0.964844H44.25C46.3213 0.964844 48 2.64355 48 4.71484" fill="#FFE812"/>
<path d="M24 7.71484C13.2305 7.71484 4.5 14.5989 4.5 23.0898C4.5 28.5793 8.14966 33.3965 13.6399 36.1167C13.3418 37.1465 11.7209 42.7436 11.6565 43.1831C11.6565 43.1831 11.6177 43.5134 11.8315 43.6394C12.0454 43.7654 12.2966 43.668 12.2966 43.668C12.9104 43.5823 19.4114 39.0156 20.5364 38.2231C21.6606 38.3821 22.8179 38.4648 24 38.4648C34.7695 38.4648 43.5 31.5815 43.5 23.0898C43.5 14.5989 34.7695 7.71484 24 7.71484Z" fill="black"/>
<path d="M13.2188 28.457C12.5984 28.457 12.0938 27.9751 12.0938 27.3826V20.6992H10.3381C9.72949 20.6992 9.23438 20.2048 9.23438 19.5977C9.23438 18.9905 9.72949 18.4961 10.3381 18.4961H16.0994C16.708 18.4961 17.2031 18.9905 17.2031 19.5977C17.2031 20.2048 16.708 20.6992 16.0994 20.6992H14.3438V27.3826C14.3438 27.9751 13.8391 28.457 13.2188 28.457Z" fill="#FFE812"/>
<path d="M20.9968 24.4946L19.8733 21.302L18.7497 24.4946H20.9968ZM23.082 28.4424C22.6125 28.4424 22.2536 28.252 22.1452 27.9451L21.5886 26.4868H18.1579L17.6006 27.9458C17.4929 28.252 17.134 28.4424 16.6652 28.4424C16.417 28.4424 16.1694 28.3889 15.9497 28.2871C15.6399 28.1443 15.3418 27.7502 15.6831 26.6897L18.374 19.6064C18.5637 19.0681 19.1394 18.5129 19.8725 18.4961C20.6071 18.5129 21.1828 19.0681 21.3725 19.6079L24.0627 26.6875C24.4055 27.751 24.1067 28.145 23.7968 28.2871C23.5764 28.3889 23.3296 28.4424 23.082 28.4424Z" fill="#FFE812"/>
<path d="M25.875 28.293C25.2803 28.293 24.7969 27.8301 24.7969 27.2617V19.6211C24.7969 19.0007 25.3118 18.4961 25.9453 18.4961C26.5789 18.4961 27.0938 19.0007 27.0938 19.6211V26.2305H29.4844C30.0791 26.2305 30.5625 26.6934 30.5625 27.2617C30.5625 27.8301 30.0791 28.293 29.4844 28.293" fill="#FFE812"/>
<path d="M32.125 28.4424C31.5039 28.4424 31 27.9377 31 27.3174V19.6211C31 19.0007 31.5039 18.4961 32.125 18.4961C32.7454 18.4961 33.25 19.0007 33.25 19.6211V22.0388L36.3884 18.9004C36.5503 18.7393 36.7715 18.6499 37.0125 18.6499C37.293 18.6499 37.575 18.7708 37.7866 18.9824C37.9836 19.1794 38.1016 19.4321 38.1177 19.6951C38.1338 19.9609 38.0452 20.2041 37.8694 20.3806L35.3052 22.9441L38.0745 26.6121C38.2554 26.8523 38.3323 27.1482 38.2905 27.4456C38.2488 27.7437 38.0942 28.0073 37.854 28.1875C37.657 28.3362 37.4233 28.4153 37.1772 28.4153C36.8206 28.4153 36.4932 28.252 36.2786 27.9678L33.6404 24.4719L33.25 24.8623V27.3167C33.25 27.9377 32.7454 28.4424 32.125 28.4424Z" fill="#FFE812"/>
</g>
<defs>
<clipPath id="clip0_678_9944">
<rect width="48" height="48" fill="white" transform="translate(0 0.964844)"/>
</clipPath>
</defs>
</svg>
