<svg width="97" height="29" viewBox="0 0 97 29" fill="none" xmlns="http://www.w3.org/2000/svg">
<path d="M24.1493 14.8709H27.2451C28.2094 14.8709 28.8799 14.6732 29.2566 14.2777C29.6332 13.8823 29.8236 13.2781 29.8236 12.4652V9.08561H31.5785C32.4269 9.08561 32.8532 8.73043 32.8532 8.02009C32.8532 7.30975 32.4269 6.95457 31.5785 6.95457H29.8236V3.60424C29.8236 1.37068 28.4454 0.253906 25.693 0.253906C22.9407 0.253906 21.5625 1.37068 21.5625 3.60424V12.4652C21.5625 13.2781 21.7529 13.8823 22.1295 14.2777C22.5062 14.6732 23.1808 14.8709 24.141 14.8709H24.1493Z" fill="url(#paint0_linear_618_5836)"/>
<path d="M16.8186 14.2617C17.783 14.2617 18.4535 14.064 18.8301 13.6686C19.2067 13.2731 19.3971 12.669 19.3971 11.8561V3.57362C19.3971 2.76075 19.2067 2.15659 18.8301 1.76114C18.4535 1.36569 17.7788 1.16797 16.8186 1.16797H2.81286C1.84852 1.16797 1.17803 1.36569 0.801394 1.76114C0.424761 2.15659 0.234375 2.76075 0.234375 3.57362V11.8561C0.234375 12.669 0.424761 13.2731 0.801394 13.6686C1.17803 14.064 1.85265 14.2617 2.81286 14.2617H16.8186ZM8.49133 3.91048C8.49133 3.50405 8.76863 3.30266 9.31909 3.30266H10.3165C10.867 3.30266 11.1443 3.50405 11.1443 3.91048V11.5229C11.1443 11.9293 10.867 12.1307 10.3165 12.1307H9.31909C8.76863 12.1307 8.49133 11.9293 8.49133 11.5229V3.91048Z" fill="url(#paint1_linear_618_5836)"/>
<path d="M63.7416 22.666C63.2243 22.2595 62.3841 22.0581 61.2128 22.0581H55.5674C55.108 22.0581 54.7976 21.9959 54.6403 21.8751C54.4789 21.7542 54.4003 21.5089 54.4003 21.1428V15.8152C54.4003 13.5816 53.0221 12.4648 50.2697 12.4648C47.5174 12.4648 46.1392 13.5816 46.1392 15.8152V22.6953C46.1392 23.2225 46.2758 23.6033 46.5531 23.8377C46.8304 24.072 47.3229 24.1892 48.0348 24.1892H56.7304C56.42 24.4858 56.2586 24.8263 56.2586 25.2254C56.2586 25.4268 56.1551 25.5293 55.9482 25.5293H10.6943C10.1439 25.5293 9.86656 25.3279 9.86656 24.9215V23.2482C9.86656 22.8417 10.1439 22.6403 10.6943 22.6403H27.2455C28.2098 22.6403 28.8803 22.4426 29.2569 22.0472C29.6336 21.6517 29.824 21.0476 29.824 20.2347V18.4991C29.824 17.6862 29.6336 17.0821 29.2569 16.6866C28.8803 16.2912 28.2057 16.0935 27.2455 16.0935H2.88023C2.03177 16.0935 1.60547 16.4486 1.60547 17.159C1.60547 17.8693 2.03177 18.2245 2.88023 18.2245H20.7392C21.2897 18.2245 21.567 18.4259 21.567 18.8323V19.8978C21.567 20.3043 21.2897 20.5056 20.7392 20.5056H4.18809C3.22375 20.5056 2.55326 20.7034 2.17663 21.0988C1.79999 21.4943 1.60961 22.0984 1.60961 22.9113V25.2547C1.60961 26.0676 1.79999 26.6717 2.17663 27.0672C2.55326 27.4626 3.22789 27.6603 4.18809 27.6603H62.62C63.3319 27.6603 63.8244 27.5432 64.1017 27.3088C64.379 27.0745 64.5156 26.6937 64.5156 26.1664V24.5517C64.5156 23.6985 64.259 23.0687 63.7416 22.666Z" fill="url(#paint2_linear_618_5836)"/>
<path d="M34.8141 3.91228H36.0516C36.602 3.91228 36.8793 4.11367 36.8793 4.5201V16.4239C36.8793 17.2367 37.0697 17.8409 37.4463 18.2363C37.823 18.6318 38.4976 18.8295 39.4578 18.8295H42.5536C43.518 18.8295 44.1885 18.6318 44.5651 18.2363C44.9417 17.8409 45.1321 17.2367 45.1321 16.4239V4.1869C45.1321 3.37403 44.9417 2.76987 44.5651 2.37442C44.1885 1.97897 43.5139 1.78125 42.5536 1.78125H34.8099C33.9615 1.78125 33.5352 2.13642 33.5352 2.84677C33.5352 3.55711 33.9615 3.91228 34.8099 3.91228H34.8141Z" fill="url(#paint3_linear_618_5836)"/>
<path d="M48.6148 3.91228H54.6699C55.2204 3.91228 55.4977 4.11367 55.4977 4.5201V16.4239C55.4977 17.2367 55.6881 17.8409 56.0647 18.2363C56.4413 18.6318 57.116 18.8295 58.0762 18.8295H61.172C62.1364 18.8295 62.8069 18.6318 63.1835 18.2363C63.5601 17.8409 63.7505 17.2367 63.7505 16.4239V4.1869C63.7505 3.37403 63.5601 2.76987 63.1835 2.37442C62.8069 1.97897 62.1322 1.78125 61.172 1.78125H48.6107C47.7622 1.78125 47.3359 2.13642 47.3359 2.84677C47.3359 3.55711 47.7581 3.91228 48.6107 3.91228H48.6148Z" fill="url(#paint4_linear_618_5836)"/>
<path d="M92.111 0.257812C89.3587 0.257812 87.9805 1.37459 87.9805 3.60815V25.8485C87.9805 26.6614 88.1709 27.2655 88.5475 27.661C88.9241 28.0564 89.5987 28.2542 90.559 28.2542H93.6548C94.6191 28.2542 95.2896 28.0564 95.6663 27.661C96.0429 27.2655 96.2333 26.6614 96.2333 25.8485V3.60815C96.2333 1.37459 94.8551 0.257812 92.1027 0.257812H92.111Z" fill="url(#paint5_linear_618_5836)"/>
<path d="M84.6141 23.3186C83.9271 22.8096 82.8924 22.557 81.5183 22.557C80.1442 22.557 79.1095 22.8023 78.4225 23.2893C77.7354 23.7763 77.3919 24.3951 77.3919 25.1457C77.3919 25.5521 77.127 25.7535 76.6014 25.7535H75.0535C74.503 25.7535 74.2257 25.5521 74.2257 25.1457V15.1753C74.2257 14.7688 74.503 14.5674 75.0535 14.5674H82.2467C83.2111 14.5674 83.8816 14.3697 84.2582 13.9743C84.6348 13.5788 84.8252 12.9747 84.8252 12.1618V4.1869C84.8252 3.37403 84.6348 2.76987 84.2582 2.37442C83.8816 1.97897 83.2069 1.78125 82.2467 1.78125H67.2435C66.395 1.78125 65.9688 2.13642 65.9688 2.84677C65.9688 3.55711 66.395 3.91228 67.2435 3.91228H75.7446C76.2951 3.91228 76.5724 4.11367 76.5724 4.5201V11.8286C76.5724 12.235 76.3531 12.4364 75.9185 12.4364H68.5555C67.5912 12.4364 66.9207 12.6341 66.544 13.0296C66.1674 13.425 65.977 14.0292 65.977 14.8421V25.4826C65.977 26.2954 66.1674 26.8996 66.544 27.295C66.9207 27.6905 67.5953 27.8882 68.5555 27.8882H83.7657C84.4776 27.8882 84.9701 27.7711 85.2474 27.5367C85.5247 27.3024 85.6613 26.9216 85.6613 26.3943V25.4496C85.6613 24.5379 85.3177 23.8275 84.6307 23.3186H84.6141Z" fill="url(#paint6_linear_618_5836)"/>
<defs>
<linearGradient id="paint0_linear_618_5836" x1="27.212" y1="14.8709" x2="27.212" y2="0.257568" gradientUnits="userSpaceOnUse">
<stop stop-color="#E45939"/>
<stop offset="1" stop-color="#EB954D"/>
</linearGradient>
<linearGradient id="paint1_linear_618_5836" x1="9.81575" y1="14.2617" x2="9.81575" y2="1.16797" gradientUnits="userSpaceOnUse">
<stop stop-color="#E45939"/>
<stop offset="1" stop-color="#EB954D"/>
</linearGradient>
<linearGradient id="paint2_linear_618_5836" x1="33.0605" y1="27.6567" x2="33.0605" y2="12.4648" gradientUnits="userSpaceOnUse">
<stop stop-color="#E45939"/>
<stop offset="1" stop-color="#EB954D"/>
</linearGradient>
<linearGradient id="paint3_linear_618_5836" x1="39.3419" y1="18.8295" x2="39.3419" y2="1.78125" gradientUnits="userSpaceOnUse">
<stop stop-color="#E45939"/>
<stop offset="1" stop-color="#EB954D"/>
</linearGradient>
<linearGradient id="paint4_linear_618_5836" x1="55.5515" y1="18.8295" x2="55.5515" y2="1.78125" gradientUnits="userSpaceOnUse">
<stop stop-color="#E45939"/>
<stop offset="1" stop-color="#EB954D"/>
</linearGradient>
<linearGradient id="paint5_linear_618_5836" x1="92.111" y1="28.2505" x2="92.111" y2="0.257812" gradientUnits="userSpaceOnUse">
<stop stop-color="#E45939"/>
<stop offset="1" stop-color="#EB954D"/>
</linearGradient>
<linearGradient id="paint6_linear_618_5836" x1="75.8026" y1="27.8882" x2="75.8026" y2="1.78125" gradientUnits="userSpaceOnUse">
<stop stop-color="#E45939"/>
<stop offset="1" stop-color="#EB954D"/>
</linearGradient>
</defs>
</svg>
