<svg width="57" height="56" viewBox="0 0 57 56" fill="none" xmlns="http://www.w3.org/2000/svg">
<rect x="1" y="0.5" width="55" height="55" rx="15.5" fill="white"/>
<rect x="1" y="0.5" width="55" height="55" rx="15.5" stroke="#F5B75C"/>
<path d="M23.44 18C23.856 18 24.193 18.324 24.193 18.724V20.184C24.861 20.172 25.61 20.172 26.453 20.172H30.468C31.31 20.172 32.059 20.172 32.727 20.185V18.725C32.727 18.325 33.064 18 33.48 18C33.896 18 34.233 18.324 34.233 18.724V20.25C35.678 20.361 36.627 20.634 37.323 21.305C38.021 21.975 38.305 22.887 38.42 24.277L38.5 25H18.5V24.276C18.616 22.886 18.9 21.974 19.597 21.304C20.294 20.634 21.242 20.36 22.687 20.249V18.724C22.687 18.324 23.024 18 23.44 18Z" fill="#EB944D"/>
<path opacity="0.5" d="M38.5003 30V28C38.5003 27.161 38.4963 25.665 38.4833 25H18.5103C18.4973 25.665 18.5003 27.161 18.5003 28V30C18.5003 33.771 18.5003 35.657 19.6723 36.828C20.8433 38 22.7283 38 26.5003 38H30.5003C34.2703 38 36.1563 38 37.3283 36.828C38.5003 35.658 38.5003 33.772 38.5003 30Z" fill="#EB944D"/>
<path d="M34.5 33C34.5 33.2652 34.3946 33.5196 34.2071 33.7071C34.0196 33.8946 33.7652 34 33.5 34C33.2348 34 32.9804 33.8946 32.7929 33.7071C32.6054 33.5196 32.5 33.2652 32.5 33C32.5 32.7348 32.6054 32.4804 32.7929 32.2929C32.9804 32.1054 33.2348 32 33.5 32C33.7652 32 34.0196 32.1054 34.2071 32.2929C34.3946 32.4804 34.5 32.7348 34.5 33ZM34.5 29C34.5 29.2652 34.3946 29.5196 34.2071 29.7071C34.0196 29.8946 33.7652 30 33.5 30C33.2348 30 32.9804 29.8946 32.7929 29.7071C32.6054 29.5196 32.5 29.2652 32.5 29C32.5 28.7348 32.6054 28.4804 32.7929 28.2929C32.9804 28.1054 33.2348 28 33.5 28C33.7652 28 34.0196 28.1054 34.2071 28.2929C34.3946 28.4804 34.5 28.7348 34.5 29ZM29.5 33C29.5 33.2652 29.3946 33.5196 29.2071 33.7071C29.0196 33.8946 28.7652 34 28.5 34C28.2348 34 27.9804 33.8946 27.7929 33.7071C27.6054 33.5196 27.5 33.2652 27.5 33C27.5 32.7348 27.6054 32.4804 27.7929 32.2929C27.9804 32.1054 28.2348 32 28.5 32C28.7652 32 29.0196 32.1054 29.2071 32.2929C29.3946 32.4804 29.5 32.7348 29.5 33ZM29.5 29C29.5 29.2652 29.3946 29.5196 29.2071 29.7071C29.0196 29.8946 28.7652 30 28.5 30C28.2348 30 27.9804 29.8946 27.7929 29.7071C27.6054 29.5196 27.5 29.2652 27.5 29C27.5 28.7348 27.6054 28.4804 27.7929 28.2929C27.9804 28.1054 28.2348 28 28.5 28C28.7652 28 29.0196 28.1054 29.2071 28.2929C29.3946 28.4804 29.5 28.7348 29.5 29ZM24.5 33C24.5 33.2652 24.3946 33.5196 24.2071 33.7071C24.0196 33.8946 23.7652 34 23.5 34C23.2348 34 22.9804 33.8946 22.7929 33.7071C22.6054 33.5196 22.5 33.2652 22.5 33C22.5 32.7348 22.6054 32.4804 22.7929 32.2929C22.9804 32.1054 23.2348 32 23.5 32C23.7652 32 24.0196 32.1054 24.2071 32.2929C24.3946 32.4804 24.5 32.7348 24.5 33ZM24.5 29C24.5 29.2652 24.3946 29.5196 24.2071 29.7071C24.0196 29.8946 23.7652 30 23.5 30C23.2348 30 22.9804 29.8946 22.7929 29.7071C22.6054 29.5196 22.5 29.2652 22.5 29C22.5 28.7348 22.6054 28.4804 22.7929 28.2929C22.9804 28.1054 23.2348 28 23.5 28C23.7652 28 24.0196 28.1054 24.2071 28.2929C24.3946 28.4804 24.5 28.7348 24.5 29Z" fill="#EB944D"/>
</svg>
