<svg width="24" height="23" viewBox="0 0 24 23" fill="none" xmlns="http://www.w3.org/2000/svg">
<path d="M5.30853 5.0018C5.30853 6.31774 6.37654 7.38575 7.69248 7.38575H15.866C16.4983 7.38575 17.1047 7.13459 17.5518 6.68751C17.9988 6.24043 18.25 5.63406 18.25 5.0018V0.473641C18.25 0.266578 18.4189 0.0976573 18.626 0.0976573C18.7243 0.0974824 18.8214 0.118576 18.9108 0.159492C19.0001 0.200407 19.0796 0.260174 19.1436 0.33469L23.18 5.0413C23.7391 5.69349 24.031 6.53285 23.9974 7.3912L23.5315 19.3028C23.497 20.182 23.1236 21.0137 22.4895 21.6237C21.8554 22.2337 21.0098 22.5746 20.1299 22.575H19.6136C19.433 22.575 19.2597 22.5032 19.132 22.3755C19.0043 22.2477 18.9325 22.0745 18.9325 21.8938V15.0825C18.9325 14.4503 18.6813 13.8439 18.2343 13.3968C17.7872 12.9497 17.1808 12.6986 16.5485 12.6986H7.01271C6.69953 12.6984 6.38939 12.7599 6.1 12.8796C5.8106 12.9994 5.54764 13.1749 5.32612 13.3963C5.10461 13.6177 4.92888 13.8806 4.80899 14.1699C4.6891 14.4592 4.6274 14.7693 4.6274 15.0825V21.8938C4.6274 22.0745 4.55563 22.2477 4.4279 22.3755C4.30016 22.5032 4.12691 22.575 3.94626 22.575H3.75964C2.96685 22.575 2.20122 22.2861 1.60615 21.7623C1.01109 21.2384 0.627415 20.5156 0.52699 19.7292C-0.145674 14.4736 -0.174495 9.15552 0.441168 3.89292L0.522904 3.18454C0.622409 2.33419 1.03077 1.55001 1.67041 0.980933C2.31006 0.411858 3.13643 0.0975317 3.99258 0.0976573H4.6274C4.80804 0.0976573 4.98129 0.169419 5.10903 0.297156C5.23676 0.424893 5.30853 0.598141 5.30853 0.778788V5.0018Z" fill="#EB944D"/>
<path d="M6.67188 21.8938C6.67188 22.0745 6.74364 22.2477 6.87137 22.3755C6.99911 22.5032 7.17236 22.575 7.35301 22.575H16.2077C16.3883 22.575 16.5616 22.5032 16.6893 22.3755C16.8171 22.2477 16.8888 22.0745 16.8888 21.8938V15.0825C16.8888 14.9922 16.853 14.9056 16.7891 14.8417C16.7252 14.7778 16.6386 14.742 16.5483 14.742H7.01244C6.92212 14.742 6.83549 14.7778 6.77162 14.8417C6.70776 14.9056 6.67188 14.9922 6.67188 15.0825V21.8938ZM16.2077 0.778787C16.2077 0.59814 16.1359 0.424892 16.0082 0.297155C15.8805 0.169418 15.7072 0.0976562 15.5266 0.0976562H8.03414C7.85349 0.0976562 7.68024 0.169418 7.5525 0.297155C7.42477 0.424892 7.35301 0.59814 7.35301 0.778787V5.0018C7.35301 5.18979 7.50558 5.34236 7.69357 5.34236H15.8671C15.9575 5.34236 16.0441 5.30648 16.108 5.24261C16.1718 5.17874 16.2077 5.09212 16.2077 5.0018V0.778787Z" fill="#EB944D"/>
</svg>
