<svg width="57" height="56" viewBox="0 0 57 56" fill="none" xmlns="http://www.w3.org/2000/svg">
<rect x="1" y="0.5" width="55" height="55" rx="15.5" fill="white"/>
<rect x="1" y="0.5" width="55" height="55" rx="15.5" stroke="#F5B75C"/>
<rect width="19.6588" height="19.8483" transform="translate(20.5 17.0742)" fill="white"/>
<path d="M39.8333 19.8558L37.3667 17.3891C37.1546 17.187 36.8729 17.0742 36.58 17.0742C36.2871 17.0742 36.0054 17.187 35.7933 17.3891L33.6 19.5891H21.8333C21.4797 19.5891 21.1406 19.7296 20.8905 19.9797C20.6405 20.2297 20.5 20.5689 20.5 20.9225V35.5891C20.5 35.9428 20.6405 36.2819 20.8905 36.5319C21.1406 36.782 21.4797 36.9225 21.8333 36.9225H36.5C36.8536 36.9225 37.1928 36.782 37.4428 36.5319C37.6929 36.2819 37.8333 35.9428 37.8333 35.5891V23.4291L39.8333 21.4291C40.0418 21.2204 40.1588 20.9375 40.1588 20.6425C40.1588 20.3475 40.0418 20.0645 39.8333 19.8558ZM30.3867 29.0091L27.5933 29.6291L28.26 26.8625L34.6267 20.4825L36.78 22.6358L30.3867 29.0091ZM37.5 21.8758L35.3467 19.7225L36.58 18.4891L38.7333 20.6425L37.5 21.8758Z" fill="#EB944D"/>
</svg>
