<svg width="57" height="56" viewBox="0 0 57 56" fill="none" xmlns="http://www.w3.org/2000/svg">
<rect x="1" y="0.5" width="55" height="55" rx="15.5" fill="white"/>
<rect x="1" y="0.5" width="55" height="55" rx="15.5" stroke="#F5B75C"/>
<rect width="24" height="24" transform="translate(16.5 16)" fill="white"/>
<path fill-rule="evenodd" clip-rule="evenodd" d="M30.673 21.0565C30.9314 20.5391 31.3288 20.1038 31.8207 19.7996C32.3125 19.4954 32.8794 19.3341 33.4578 19.334H34.5099C34.6051 19.334 34.6964 19.3718 34.7637 19.4391C34.831 19.5064 34.8688 19.5977 34.8688 19.6928V22.8795L38.756 24.1743C38.8271 24.1983 38.889 24.2441 38.9327 24.3051C38.9765 24.3661 39 24.4394 39 24.5145V25.8925C38.9996 26.7178 38.6716 27.5091 38.0881 28.0926C37.5045 28.6762 36.7132 29.0042 35.888 29.0046H33.4908V29.0074C32.0209 28.6959 30.9299 27.8677 30.1405 26.8916C29.602 26.2199 29.1737 25.467 28.8715 24.6609L30.673 21.0565ZM27.0356 24.8446H24.736C23.5661 24.8445 22.4311 24.4461 21.5178 23.715L19.5842 22.1675C19.5314 22.1253 19.4676 22.0989 19.4004 22.0914C19.3332 22.0838 19.2652 22.0954 19.2043 22.1248C19.1434 22.1542 19.092 22.2002 19.0561 22.2576C19.0202 22.3149 19.0013 22.3812 19.0014 22.4489V34.1549C18.9902 34.4803 19.0447 34.8046 19.1615 35.1086C19.2783 35.4125 19.455 35.6898 19.6813 35.924C19.9075 36.1581 20.1786 36.3443 20.4783 36.4715C20.778 36.5987 21.1003 36.6642 21.4259 36.6642C21.7515 36.6642 22.0738 36.5987 22.3735 36.4715C22.6732 36.3443 22.9443 36.1581 23.1705 35.924C23.3968 35.6898 23.5735 35.4125 23.6903 35.1086C23.8071 34.8046 23.8616 34.4803 23.8504 34.1549V33.4659C23.8507 33.1959 23.9583 32.937 24.1494 32.7462C24.3405 32.5554 24.5995 32.4482 24.8695 32.4482H27.6241C27.758 32.4482 27.8905 32.4745 28.0141 32.5258C28.1378 32.577 28.2501 32.652 28.3448 32.7467C28.4394 32.8413 28.5145 32.9537 28.5657 33.0773C28.6169 33.201 28.6433 33.3335 28.6433 33.4673V34.1563C28.6321 34.4818 28.6865 34.8061 28.8033 35.11C28.9201 35.4139 29.0969 35.6912 29.3231 35.9254C29.5494 36.1596 29.8204 36.3458 30.1202 36.473C30.4199 36.6001 30.7422 36.6657 31.0678 36.6657C31.3933 36.6657 31.7156 36.6001 32.0153 36.473C32.3151 36.3458 32.5861 36.1596 32.8124 35.9254C33.0386 35.6912 33.2154 35.4139 33.3322 35.11C33.449 34.8061 33.5034 34.4818 33.4922 34.1563V30.8304C31.3534 30.4874 29.8031 29.3232 28.7452 28.0198C27.9865 27.0742 27.4076 25.9975 27.037 24.8432L27.0356 24.8446Z" fill="#EB944D"/>
</svg>
