<svg width="10" height="17" viewBox="0 0 10 17" fill="none" xmlns="http://www.w3.org/2000/svg">
<path d="M9.9982 8.33594C9.9982 8.21919 9.97362 8.11167 9.92447 8.01336C9.88146 7.9089 9.81694 7.81366 9.73092 7.72764L2.43138 0.575569C2.26548 0.415815 2.06272 0.335938 1.82308 0.335938C1.66947 0.335938 1.52815 0.372804 1.39912 0.446537C1.27009 0.520269 1.16871 0.621652 1.09497 0.750684C1.02124 0.873572 0.984375 1.01489 0.984375 1.17465C0.984375 1.40199 1.06425 1.60168 1.22401 1.77373L7.93368 8.33594L1.22401 14.8981C1.06425 15.0702 0.984375 15.2699 0.984375 15.4972C0.984375 15.657 1.02124 15.7983 1.09497 15.9212C1.16871 16.0502 1.27009 16.1516 1.39912 16.2253C1.52815 16.2991 1.66947 16.3359 1.82308 16.3359C2.06272 16.3359 2.26548 16.253 2.43138 16.0871L9.73092 8.94423C9.81694 8.85821 9.88146 8.76604 9.92447 8.66773C9.97362 8.56328 9.9982 8.45268 9.9982 8.33594Z" fill="#7B7B7B"/>
</svg>
