<svg width="16" height="16" viewBox="0 0 16 16" fill="none" xmlns="http://www.w3.org/2000/svg">
<path d="M0.315998 15.6875C0.452311 15.8237 0.612679 15.9159 0.797102 15.9639C0.981526 16.012 1.16595 16.012 1.35037 15.9639C1.54281 15.9159 1.70719 15.8237 1.8435 15.6875L8.00164 9.52066L14.1718 15.6875C14.3081 15.8237 14.4685 15.9159 14.6529 15.9639C14.8373 16.012 15.0218 16.012 15.2062 15.9639C15.3906 15.9159 15.551 15.8237 15.6873 15.6875C15.8316 15.5512 15.9238 15.3909 15.9639 15.2066C16.012 15.0143 16.012 14.8259 15.9639 14.6416C15.9238 14.4573 15.8316 14.297 15.6873 14.1608L9.52915 7.99399L15.6873 1.83922C15.8316 1.70298 15.9238 1.5427 15.9639 1.35838C16.012 1.17405 16.012 0.989732 15.9639 0.805409C15.9238 0.613073 15.8316 0.448785 15.6873 0.312547C15.551 0.176309 15.3906 0.0841473 15.2062 0.0360631C15.0218 -0.012021 14.8373 -0.012021 14.6529 0.0360631C14.4685 0.0841473 14.3081 0.176309 14.1718 0.312547L8.00164 6.47934L1.8435 0.312547C1.70719 0.176309 1.54281 0.0841473 1.35037 0.0360631C1.16595 -0.012021 0.981526 -0.012021 0.797102 0.0360631C0.612679 0.0841473 0.452311 0.176309 0.315998 0.312547C0.171667 0.448785 0.0754459 0.613073 0.0273355 0.805409C-0.0127566 0.989732 -0.00874735 1.17405 0.0393631 1.35838C0.0874735 1.5427 0.179685 1.70298 0.315998 1.83922L6.48616 7.99399L0.315998 14.1608C0.179685 14.297 0.0874735 14.4573 0.0393631 14.6416C-0.00874735 14.8259 -0.0127566 15.0143 0.0273355 15.2066C0.0754459 15.3909 0.171667 15.5512 0.315998 15.6875Z" fill="#7B7B7B"/>
</svg>
